<svg width="40" height="40" viewBox="0 0 40 40" fill="none" xmlns="http://www.w3.org/2000/svg">
<path d="M10.4976 0.000101089C9.03101 0.000101089 7.83105 1.12506 7.83105 2.50001V37.4987C7.83105 38.8736 9.03101 39.9986 10.4976 39.9986H37.1633C38.6299 39.9986 39.8298 38.8736 39.8298 37.4987V9.99972L29.1636 0.000101089H10.4976Z" fill="#E2E5E7"/>
<path d="M31.9984 9.99972H39.998L29.3318 0.000101089V7.49981C29.3318 8.87476 30.5317 9.99972 31.9984 9.99972Z" fill="#B0B7BD"/>
<path d="M39.9999 17.4994L32.0002 9.99968H39.9999V17.4994Z" fill="white"/>
<path d="M36.57 32.4745C36.57 33.1554 35.8843 33.7125 35.0463 33.7125H1.52375C0.685688 33.7125 0 33.1554 0 32.4745V20.094C0 19.4131 0.685688 18.856 1.52375 18.856H35.0463C35.8843 18.856 36.57 19.4131 36.57 20.094V32.4745Z" fill="#52B596"/>
<path d="M13.6325 28.9994V24.6358H16.3385V25.2025H14.2909V26.5321H16.1446V27.0967H14.2909V28.9994H13.6325ZM17.097 28.9994V25.7267H17.7341V28.9994H17.097ZM17.4188 25.2217C17.308 25.2217 17.2128 25.1848 17.1332 25.1109C17.0551 25.0356 17.0161 24.9461 17.0161 24.8424C17.0161 24.7373 17.0551 24.6478 17.1332 24.574C17.2128 24.4987 17.308 24.461 17.4188 24.461C17.5296 24.461 17.624 24.4987 17.7021 24.574C17.7817 24.6478 17.8215 24.7373 17.8215 24.8424C17.8215 24.9461 17.7817 25.0356 17.7021 25.1109C17.624 25.1848 17.5296 25.2217 17.4188 25.2217ZM19.2282 24.6358V28.9994H18.5912V24.6358H19.2282ZM21.4958 29.0655C21.1734 29.0655 20.8957 28.9966 20.6627 28.8588C20.4312 28.7196 20.2522 28.5243 20.1258 28.2728C20.0008 28.02 19.9383 27.7238 19.9383 27.3843C19.9383 27.0491 20.0008 26.7537 20.1258 26.498C20.2522 26.2423 20.4283 26.0427 20.6542 25.8993C20.8815 25.7558 21.1471 25.6841 21.4511 25.6841C21.6357 25.6841 21.8147 25.7146 21.988 25.7757C22.1613 25.8368 22.3168 25.9326 22.4546 26.0633C22.5924 26.194 22.7011 26.3637 22.7806 26.5726C22.8602 26.7799 22.8999 27.0321 22.8999 27.3289V27.5548H20.2984V27.0775H22.2756C22.2756 26.9099 22.2416 26.7615 22.1734 26.6322C22.1052 26.5015 22.0093 26.3985 21.8857 26.3233C21.7636 26.248 21.6201 26.2103 21.4553 26.2103C21.2764 26.2103 21.1201 26.2544 20.9866 26.3424C20.8545 26.4291 20.7522 26.5427 20.6798 26.6833C20.6087 26.8226 20.5732 26.9738 20.5732 27.1372V27.5101C20.5732 27.7288 20.6116 27.9149 20.6883 28.0683C20.7664 28.2217 20.8751 28.3389 21.0143 28.4199C21.1535 28.4994 21.3161 28.5392 21.5022 28.5392C21.6229 28.5392 21.733 28.5221 21.8325 28.488C21.9319 28.4525 22.0178 28.4 22.0903 28.3304C22.1627 28.2608 22.2181 28.1748 22.2565 28.0726L22.8595 28.1812C22.8112 28.3588 22.7245 28.5143 22.5995 28.6478C22.4759 28.7799 22.3204 28.8829 22.1329 28.9568C21.9468 29.0292 21.7345 29.0655 21.4958 29.0655Z" fill="white"/>
<path d="M35.1373 33.7104H7.9231V34.8533H35.1373C35.9251 34.8533 36.5696 34.339 36.5696 33.7104V32.5676C36.5696 33.1962 35.9251 33.7104 35.1373 33.7104Z" fill="white"/>
</svg>
