<svg width="455" height="206" viewBox="0 0 455 206" fill="none" xmlns="http://www.w3.org/2000/svg">
<path d="M2 203.188H452.669" stroke="#BDBDBD" stroke-width="4" stroke-linecap="round" stroke-linejoin="round"/>
<path d="M448.251 202.81C448.251 202.81 456.768 149.433 352.73 169.746C248.691 190.06 259.243 135.69 203.05 157.813C146.857 179.936 130.046 174.953 117.529 147.45C105.011 119.948 75.5602 81.7516 34.0398 107.208C-17.6973 138.924 23.6373 202.833 23.6373 202.833L448.251 202.81Z" fill="#EFF6FF"/>
<path d="M212.878 8.30164H154.007V201.222H212.878V8.30164Z" fill="#D8A9A3"/>
<path d="M154.007 8.30164H141.067V201.222H154.007V8.30164Z" fill="#B7807B"/>
<path d="M210.763 13.4503H156.115V201.222H210.763V13.4503Z" fill="url(#paint0_linear_1195_1169)"/>
<path d="M212.878 19.2864H154.007V21.517H212.878V19.2864Z" fill="#D8A9A3"/>
<path d="M212.878 27.353H154.007V29.5836H212.878V27.353Z" fill="#D8A9A3"/>
<path d="M212.878 35.4125H154.007V37.6431H212.878V35.4125Z" fill="#D8A9A3"/>
<path d="M212.878 43.4791H154.007V45.7097H212.878V43.4791Z" fill="#D8A9A3"/>
<path d="M212.878 51.5459H154.007V53.7765H212.878V51.5459Z" fill="#D8A9A3"/>
<path d="M212.878 59.6125H154.007V61.8431H212.878V59.6125Z" fill="#D8A9A3"/>
<path d="M212.878 67.6792H154.007V69.9098H212.878V67.6792Z" fill="#D8A9A3"/>
<path d="M212.878 75.746H154.007V77.9766H212.878V75.746Z" fill="#D8A9A3"/>
<path d="M212.878 83.8126H154.007V86.0432H212.878V83.8126Z" fill="#D8A9A3"/>
<path d="M212.878 91.8794H154.007V94.11H212.878V91.8794Z" fill="#D8A9A3"/>
<path d="M212.878 99.946H154.007V102.177H212.878V99.946Z" fill="#D8A9A3"/>
<path d="M212.878 108.005H154.007V110.236H212.878V108.005Z" fill="#D8A9A3"/>
<path d="M212.878 116.072H154.007V118.303H212.878V116.072Z" fill="#D8A9A3"/>
<path d="M212.878 124.139H154.007V126.369H212.878V124.139Z" fill="#D8A9A3"/>
<path d="M212.878 132.205H154.007V134.436H212.878V132.205Z" fill="#D8A9A3"/>
<path d="M212.878 140.272H154.007V142.503H212.878V140.272Z" fill="#D8A9A3"/>
<path d="M212.878 148.339H154.007V150.569H212.878V148.339Z" fill="#D8A9A3"/>
<path d="M212.878 156.406H154.007V158.636H212.878V156.406Z" fill="#D8A9A3"/>
<path d="M212.878 164.472H154.007V166.703H212.878V164.472Z" fill="#D8A9A3"/>
<path d="M212.878 172.532H154.007V174.762H212.878V172.532Z" fill="#D8A9A3"/>
<path d="M212.878 180.598H154.007V182.829H212.878V180.598Z" fill="#D8A9A3"/>
<path d="M212.878 188.665H154.007V190.896H212.878V188.665Z" fill="#D8A9A3"/>
<path d="M165.416 13.4503H165.189V200.454H165.416V13.4503Z" fill="#D8A9A3"/>
<path d="M156.341 13.4503H156.115V200.454H156.341V13.4503Z" fill="#D8A9A3"/>
<path d="M174.481 13.4503H174.255V200.454H174.481V13.4503Z" fill="#D8A9A3"/>
<path d="M183.549 13.4503H183.323V200.454H183.549V13.4503Z" fill="#D8A9A3"/>
<path d="M192.623 13.4503H192.397V200.454H192.623V13.4503Z" fill="#D8A9A3"/>
<path d="M201.689 13.4503H201.463V200.454H201.689V13.4503Z" fill="#D8A9A3"/>
<path d="M210.763 13.4503H210.537V200.454H210.763V13.4503Z" fill="#D8A9A3"/>
<path d="M165.19 13.4503H164.847V19.2864H165.19V13.4503Z" fill="#B7807B"/>
<path d="M174.257 13.4503H173.914V19.2864H174.257V13.4503Z" fill="#B7807B"/>
<path d="M183.323 13.4503H182.98V19.2864H183.323V13.4503Z" fill="#B7807B"/>
<path d="M192.397 13.4503H192.054V19.2864H192.397V13.4503Z" fill="#B7807B"/>
<path d="M201.464 13.4503H201.121V19.2864H201.464V13.4503Z" fill="#B7807B"/>
<path d="M210.537 13.4503H210.194V19.2864H210.537V13.4503Z" fill="#B7807B"/>
<path d="M165.19 21.517H164.847V27.3531H165.19V21.517Z" fill="#B7807B"/>
<path d="M174.257 21.517H173.914V27.3531H174.257V21.517Z" fill="#B7807B"/>
<path d="M183.323 21.517H182.98V27.3531H183.323V21.517Z" fill="#B7807B"/>
<path d="M192.397 21.517H192.054V27.3531H192.397V21.517Z" fill="#B7807B"/>
<path d="M201.464 21.517H201.121V27.3531H201.464V21.517Z" fill="#B7807B"/>
<path d="M210.537 21.517H210.194V27.3531H210.537V21.517Z" fill="#B7807B"/>
<path d="M165.19 29.5836H164.847V35.4197H165.19V29.5836Z" fill="#B7807B"/>
<path d="M174.257 29.5836H173.914V35.4197H174.257V29.5836Z" fill="#B7807B"/>
<path d="M183.323 29.5836H182.98V35.4197H183.323V29.5836Z" fill="#B7807B"/>
<path d="M192.397 29.5836H192.054V35.4197H192.397V29.5836Z" fill="#B7807B"/>
<path d="M201.464 29.5836H201.121V35.4197H201.464V29.5836Z" fill="#B7807B"/>
<path d="M210.537 29.5836H210.194V35.4197H210.537V29.5836Z" fill="#B7807B"/>
<path d="M165.19 37.6504H164.847V43.4865H165.19V37.6504Z" fill="#B7807B"/>
<path d="M174.257 37.6504H173.914V43.4865H174.257V37.6504Z" fill="#B7807B"/>
<path d="M183.323 37.6504H182.98V43.4865H183.323V37.6504Z" fill="#B7807B"/>
<path d="M192.397 37.6504H192.054V43.4865H192.397V37.6504Z" fill="#B7807B"/>
<path d="M201.464 37.6504H201.121V43.4865H201.464V37.6504Z" fill="#B7807B"/>
<path d="M210.537 37.6504H210.194V43.4865H210.537V37.6504Z" fill="#B7807B"/>
<path d="M165.19 45.7097H164.847V51.5458H165.19V45.7097Z" fill="#B7807B"/>
<path d="M174.257 45.7097H173.914V51.5458H174.257V45.7097Z" fill="#B7807B"/>
<path d="M183.323 45.7097H182.98V51.5458H183.323V45.7097Z" fill="#B7807B"/>
<path d="M192.397 45.7097H192.054V51.5458H192.397V45.7097Z" fill="#B7807B"/>
<path d="M201.464 45.7097H201.121V51.5458H201.464V45.7097Z" fill="#B7807B"/>
<path d="M210.537 45.7097H210.194V51.5458H210.537V45.7097Z" fill="#B7807B"/>
<path d="M165.19 53.7765H164.847V59.6126H165.19V53.7765Z" fill="#B7807B"/>
<path d="M174.257 53.7765H173.914V59.6126H174.257V53.7765Z" fill="#B7807B"/>
<path d="M183.323 53.7765H182.98V59.6126H183.323V53.7765Z" fill="#B7807B"/>
<path d="M192.397 53.7765H192.054V59.6126H192.397V53.7765Z" fill="#B7807B"/>
<path d="M201.464 53.7765H201.121V59.6126H201.464V53.7765Z" fill="#B7807B"/>
<path d="M210.537 53.7765H210.194V59.6126H210.537V53.7765Z" fill="#B7807B"/>
<path d="M165.19 61.8431H164.847V67.6792H165.19V61.8431Z" fill="#B7807B"/>
<path d="M174.257 61.8431H173.914V67.6792H174.257V61.8431Z" fill="#B7807B"/>
<path d="M183.323 61.8431H182.98V67.6792H183.323V61.8431Z" fill="#B7807B"/>
<path d="M192.397 61.8431H192.054V67.6792H192.397V61.8431Z" fill="#B7807B"/>
<path d="M201.464 61.8431H201.121V67.6792H201.464V61.8431Z" fill="#B7807B"/>
<path d="M210.537 61.8431H210.194V67.6792H210.537V61.8431Z" fill="#B7807B"/>
<path d="M165.19 69.9098H164.847V75.7459H165.19V69.9098Z" fill="#B7807B"/>
<path d="M174.257 69.9098H173.914V75.7459H174.257V69.9098Z" fill="#B7807B"/>
<path d="M183.323 69.9098H182.98V75.7459H183.323V69.9098Z" fill="#B7807B"/>
<path d="M192.397 69.9098H192.054V75.7459H192.397V69.9098Z" fill="#B7807B"/>
<path d="M201.464 69.9098H201.121V75.7459H201.464V69.9098Z" fill="#B7807B"/>
<path d="M210.537 69.9098H210.194V75.7459H210.537V69.9098Z" fill="#B7807B"/>
<path d="M165.19 77.9766H164.847V83.8127H165.19V77.9766Z" fill="#B7807B"/>
<path d="M174.257 77.9766H173.914V83.8127H174.257V77.9766Z" fill="#B7807B"/>
<path d="M183.323 77.9766H182.98V83.8127H183.323V77.9766Z" fill="#B7807B"/>
<path d="M192.397 77.9766H192.054V83.8127H192.397V77.9766Z" fill="#B7807B"/>
<path d="M201.464 77.9766H201.121V83.8127H201.464V77.9766Z" fill="#B7807B"/>
<path d="M210.537 77.9766H210.194V83.8127H210.537V77.9766Z" fill="#B7807B"/>
<path d="M165.19 86.0432H164.847V91.8793H165.19V86.0432Z" fill="#B7807B"/>
<path d="M174.257 86.0432H173.914V91.8793H174.257V86.0432Z" fill="#B7807B"/>
<path d="M183.323 86.0432H182.98V91.8793H183.323V86.0432Z" fill="#B7807B"/>
<path d="M192.397 86.0432H192.054V91.8793H192.397V86.0432Z" fill="#B7807B"/>
<path d="M201.464 86.0432H201.121V91.8793H201.464V86.0432Z" fill="#B7807B"/>
<path d="M210.537 86.0432H210.194V91.8793H210.537V86.0432Z" fill="#B7807B"/>
<path d="M165.19 94.1099H164.847V99.946H165.19V94.1099Z" fill="#B7807B"/>
<path d="M174.257 94.1099H173.914V99.946H174.257V94.1099Z" fill="#B7807B"/>
<path d="M183.323 94.1099H182.98V99.946H183.323V94.1099Z" fill="#B7807B"/>
<path d="M192.397 94.1099H192.054V99.946H192.397V94.1099Z" fill="#B7807B"/>
<path d="M201.464 94.1099H201.121V99.946H201.464V94.1099Z" fill="#B7807B"/>
<path d="M210.537 94.1099H210.194V99.946H210.537V94.1099Z" fill="#B7807B"/>
<path d="M165.19 102.177H164.847V108.013H165.19V102.177Z" fill="#B7807B"/>
<path d="M174.257 102.177H173.914V108.013H174.257V102.177Z" fill="#B7807B"/>
<path d="M183.323 102.177H182.98V108.013H183.323V102.177Z" fill="#B7807B"/>
<path d="M192.397 102.177H192.054V108.013H192.397V102.177Z" fill="#B7807B"/>
<path d="M201.464 102.177H201.121V108.013H201.464V102.177Z" fill="#B7807B"/>
<path d="M210.537 102.177H210.194V108.013H210.537V102.177Z" fill="#B7807B"/>
<path d="M165.19 110.236H164.847V116.072H165.19V110.236Z" fill="#B7807B"/>
<path d="M174.257 110.236H173.914V116.072H174.257V110.236Z" fill="#B7807B"/>
<path d="M183.323 110.236H182.98V116.072H183.323V110.236Z" fill="#B7807B"/>
<path d="M192.397 110.236H192.054V116.072H192.397V110.236Z" fill="#B7807B"/>
<path d="M201.464 110.236H201.121V116.072H201.464V110.236Z" fill="#B7807B"/>
<path d="M210.537 110.236H210.194V116.072H210.537V110.236Z" fill="#B7807B"/>
<path d="M165.19 118.303H164.847V124.139H165.19V118.303Z" fill="#B7807B"/>
<path d="M174.257 118.303H173.914V124.139H174.257V118.303Z" fill="#B7807B"/>
<path d="M183.323 118.303H182.98V124.139H183.323V118.303Z" fill="#B7807B"/>
<path d="M192.397 118.303H192.054V124.139H192.397V118.303Z" fill="#B7807B"/>
<path d="M201.464 118.303H201.121V124.139H201.464V118.303Z" fill="#B7807B"/>
<path d="M210.537 118.303H210.194V124.139H210.537V118.303Z" fill="#B7807B"/>
<path d="M165.19 126.369H164.847V132.205H165.19V126.369Z" fill="#B7807B"/>
<path d="M174.257 126.369H173.914V132.205H174.257V126.369Z" fill="#B7807B"/>
<path d="M183.323 126.369H182.98V132.205H183.323V126.369Z" fill="#B7807B"/>
<path d="M192.397 126.369H192.054V132.205H192.397V126.369Z" fill="#B7807B"/>
<path d="M201.464 126.369H201.121V132.205H201.464V126.369Z" fill="#B7807B"/>
<path d="M210.537 126.369H210.194V132.205H210.537V126.369Z" fill="#B7807B"/>
<path d="M165.19 134.436H164.847V140.272H165.19V134.436Z" fill="#B7807B"/>
<path d="M174.257 134.436H173.914V140.272H174.257V134.436Z" fill="#B7807B"/>
<path d="M183.323 134.436H182.98V140.272H183.323V134.436Z" fill="#B7807B"/>
<path d="M192.397 134.436H192.054V140.272H192.397V134.436Z" fill="#B7807B"/>
<path d="M201.464 134.436H201.121V140.272H201.464V134.436Z" fill="#B7807B"/>
<path d="M210.537 134.436H210.194V140.272H210.537V134.436Z" fill="#B7807B"/>
<path d="M165.19 142.503H164.847V148.339H165.19V142.503Z" fill="#B7807B"/>
<path d="M174.257 142.503H173.914V148.339H174.257V142.503Z" fill="#B7807B"/>
<path d="M183.323 142.503H182.98V148.339H183.323V142.503Z" fill="#B7807B"/>
<path d="M192.397 142.503H192.054V148.339H192.397V142.503Z" fill="#B7807B"/>
<path d="M201.464 142.503H201.121V148.339H201.464V142.503Z" fill="#B7807B"/>
<path d="M210.537 142.503H210.194V148.339H210.537V142.503Z" fill="#B7807B"/>
<path d="M165.19 150.569H164.847V156.406H165.19V150.569Z" fill="#B7807B"/>
<path d="M174.257 150.569H173.914V156.406H174.257V150.569Z" fill="#B7807B"/>
<path d="M183.323 150.569H182.98V156.406H183.323V150.569Z" fill="#B7807B"/>
<path d="M192.397 150.569H192.054V156.406H192.397V150.569Z" fill="#B7807B"/>
<path d="M201.464 150.569H201.121V156.406H201.464V150.569Z" fill="#B7807B"/>
<path d="M210.537 150.569H210.194V156.406H210.537V150.569Z" fill="#B7807B"/>
<path d="M165.19 158.636H164.847V164.472H165.19V158.636Z" fill="#B7807B"/>
<path d="M174.257 158.636H173.914V164.472H174.257V158.636Z" fill="#B7807B"/>
<path d="M183.323 158.636H182.98V164.472H183.323V158.636Z" fill="#B7807B"/>
<path d="M192.397 158.636H192.054V164.472H192.397V158.636Z" fill="#B7807B"/>
<path d="M201.464 158.636H201.121V164.472H201.464V158.636Z" fill="#B7807B"/>
<path d="M210.537 158.636H210.194V164.472H210.537V158.636Z" fill="#B7807B"/>
<path d="M165.19 166.703H164.847V172.539H165.19V166.703Z" fill="#B7807B"/>
<path d="M174.257 166.703H173.914V172.539H174.257V166.703Z" fill="#B7807B"/>
<path d="M183.323 166.703H182.98V172.539H183.323V166.703Z" fill="#B7807B"/>
<path d="M192.397 166.703H192.054V172.539H192.397V166.703Z" fill="#B7807B"/>
<path d="M201.464 166.703H201.121V172.539H201.464V166.703Z" fill="#B7807B"/>
<path d="M210.537 166.703H210.194V172.539H210.537V166.703Z" fill="#B7807B"/>
<path d="M165.19 174.762H164.847V180.598H165.19V174.762Z" fill="#B7807B"/>
<path d="M174.257 174.762H173.914V180.598H174.257V174.762Z" fill="#B7807B"/>
<path d="M183.323 174.762H182.98V180.598H183.323V174.762Z" fill="#B7807B"/>
<path d="M192.397 174.762H192.054V180.598H192.397V174.762Z" fill="#B7807B"/>
<path d="M201.464 174.762H201.121V180.598H201.464V174.762Z" fill="#B7807B"/>
<path d="M210.537 174.762H210.194V180.598H210.537V174.762Z" fill="#B7807B"/>
<path d="M165.19 182.829H164.847V188.665H165.19V182.829Z" fill="#B7807B"/>
<path d="M174.257 182.829H173.914V188.665H174.257V182.829Z" fill="#B7807B"/>
<path d="M183.323 182.829H182.98V188.665H183.323V182.829Z" fill="#B7807B"/>
<path d="M192.397 182.829H192.054V188.665H192.397V182.829Z" fill="#B7807B"/>
<path d="M201.464 182.829H201.121V188.665H201.464V182.829Z" fill="#B7807B"/>
<path d="M210.537 182.829H210.194V188.665H210.537V182.829Z" fill="#B7807B"/>
<path d="M172.695 200.703H193.513V191.642H172.695V200.703Z" fill="url(#paint1_linear_1195_1169)"/>
<path d="M170.944 191.254H196.116V188.936H170.944V191.254Z" fill="#A55B41"/>
<path d="M170.193 191.254H170.951V188.936H170.193V191.254Z" fill="#8C4029"/>
<path d="M170.726 192.015H195.686V191.254H170.726V192.015Z" fill="#B7A69A"/>
<path d="M170.726 201.222H195.686V200.462H170.726V201.222Z" fill="#B7A69A"/>
<path d="M193.089 201.222H193.936V191.254H193.089V201.222Z" fill="#B7A69A"/>
<path d="M194.359 201.222H195.687V191.254H194.359V201.222Z" fill="#C4B7AE"/>
<path d="M193.929 201.222H194.359V191.254H193.929V201.222Z" fill="#91837A"/>
<path d="M187.232 201.222H188.078V191.254H187.232V201.222Z" fill="#B7A69A"/>
<path d="M189.837 201.222H190.683V191.254H189.837V201.222Z" fill="#B7A69A"/>
<path d="M183.987 201.222H184.833V191.254H183.987V201.222Z" fill="#B7A69A"/>
<path d="M178.129 201.222H178.976V191.254H178.129V201.222Z" fill="#B7A69A"/>
<path d="M172.271 201.222H173.117V191.254H172.271V201.222Z" fill="#B7A69A"/>
<path d="M188.502 201.222H189.829V191.254H188.502V201.222Z" fill="#C4B7AE"/>
<path d="M188.079 201.222H188.509V191.254H188.079V201.222Z" fill="#91837A"/>
<path d="M181.375 201.222H182.221V191.254H181.375V201.222Z" fill="#B7A69A"/>
<path d="M182.652 201.222H183.979V191.254H182.652V201.222Z" fill="#C4B7AE"/>
<path d="M182.222 201.222H182.652V191.254H182.222V201.222Z" fill="#91837A"/>
<path d="M175.525 201.222H176.372V191.254H175.525V201.222Z" fill="#B7A69A"/>
<path d="M176.802 201.222H178.13V191.254H176.802V201.222Z" fill="#C4B7AE"/>
<path d="M176.365 201.222H176.796V191.254H176.365V201.222Z" fill="#91837A"/>
<path d="M170.945 201.222H172.273V191.254H170.945V201.222Z" fill="#C4B7AE"/>
<path d="M170.515 201.222H170.946V191.254H170.515V201.222Z" fill="#91837A"/>
<path d="M165.342 8.30164L181.834 8.30164V0.841954L165.342 0.841954V8.30164Z" fill="#EAAE96"/>
<path d="M159.944 8.30164H165.495V0.841954L159.944 0.841954V8.30164Z" fill="#AF6751"/>
<path d="M175.167 8.30164L188.223 8.30164V5.69075L175.167 5.69075V8.30164Z" fill="#D6A870"/>
<path d="M170.892 8.30164H175.283V5.69075H170.892V8.30164Z" fill="#B78B5A"/>
<path d="M148.076 127.225H77.009H69V129.412H77.009H148.076H154.911V127.225H148.076Z" fill="#433D54"/>
<path d="M148.077 130.472H77.0096H70.6782V131.145H77.0096H148.077H153.234V130.472H148.077Z" fill="#433D54"/>
<path d="M148.076 129.412H69C69 129.412 69.9555 129.514 70.116 130.194H153.787C153.948 129.522 154.903 129.412 154.903 129.412H148.069H148.076Z" fill="#433D54"/>
<path d="M148.077 131.145H70.6782C70.6782 131.145 71.6629 131.123 71.7942 131.65H152.103C152.249 131.145 153.219 131.145 153.219 131.145H148.069H148.077Z" fill="#433D54"/>
<path d="M148.091 130.187H77.0019H70.1235V130.472H77.0019H148.091H153.788V130.187H148.091Z" fill="#433D54"/>
<path d="M148.09 131.642H77.0013H71.8005V131.92H77.0013H148.09H152.109V131.642H148.09Z" fill="#433D54"/>
<path d="M84.4788 131.92H71.8162V201.215H84.4788V131.92Z" fill="#433D54"/>
<path d="M164.78 131.547H84.4788V201.222H164.78V131.547Z" fill="#6D637D"/>
<path d="M164.78 139.117H84.4788V139.994H164.78V139.117Z" fill="#837A93"/>
<path d="M92.2475 136.513H91.3211L91.1606 135.584H92.4079L92.2475 136.513Z" fill="#837A93"/>
<path d="M94.4643 146.759H89.4824V139.212C89.4824 137.83 90.5984 136.711 91.977 136.711C93.3556 136.711 94.4716 137.83 94.4716 139.212V146.759H94.4643Z" fill="url(#paint2_linear_1195_1169)"/>
<path d="M94.7639 147.242H89.1838V139.051C89.1838 137.508 90.4311 136.257 91.9702 136.257C93.5093 136.257 94.7566 137.508 94.7566 139.051V147.242H94.7639Z" fill="url(#paint3_linear_1195_1169)"/>
<path d="M94.457 141.771H89.4824V141.984H94.457V141.771Z" fill="#6D637D"/>
<path d="M91.6343 136.25C90.0953 136.25 88.6875 137.5 88.6875 139.044V147.235H94.5666V139.044C94.5666 137.5 93.1734 136.25 91.6343 136.25ZM94.129 146.767H89.147V139.219C89.147 137.837 90.263 136.718 91.6416 136.718C93.0202 136.718 94.1362 137.837 94.1362 139.219V146.767H94.129Z" fill="#893B3B"/>
<path d="M91.9692 136.718C91.9035 136.718 91.8452 136.718 91.7795 136.733C93.0414 136.857 94.0334 137.917 94.0334 139.219V146.767H94.4638V139.219C94.4638 137.837 93.3478 136.718 91.9692 136.718Z" fill="#514960"/>
<path d="M95.5443 147.242H89.3516V147.988H95.5443V147.242Z" fill="#D09266"/>
<path d="M89.344 147.242H88.6875V147.988H89.344V147.242Z" fill="#9B6948"/>
<path d="M91.9627 136.25C90.4236 136.25 89.0159 137.5 89.0159 139.044V147.235H94.895V139.044C94.895 137.5 93.5018 136.25 91.9627 136.25ZM94.4573 146.767H89.4754V139.219C89.4754 137.837 90.5914 136.718 91.97 136.718C93.3486 136.718 94.4646 137.837 94.4646 139.219V146.767H94.4573Z" fill="#B25B5B"/>
<path d="M103.159 136.513H102.233L102.073 135.584H103.313L103.159 136.513Z" fill="#837A93"/>
<path d="M105.376 146.759H100.394V139.212C100.394 137.83 101.51 136.711 102.889 136.711C104.267 136.711 105.383 137.83 105.383 139.212V146.759H105.376Z" fill="url(#paint4_linear_1195_1169)"/>
<path d="M105.668 147.242H100.088V139.051C100.088 137.508 101.335 136.257 102.875 136.257C104.414 136.257 105.661 137.508 105.661 139.051V147.242H105.668Z" fill="url(#paint5_linear_1195_1169)"/>
<path d="M105.361 141.771H100.387V141.984H105.361V141.771Z" fill="#6D637D"/>
<path d="M102.546 136.25C101.007 136.25 99.5989 137.5 99.5989 139.044V147.235H105.478V139.044C105.478 137.5 104.085 136.25 102.546 136.25ZM105.04 146.767H100.058V139.219C100.058 137.837 101.174 136.718 102.553 136.718C103.932 136.718 105.048 137.837 105.048 139.219V146.767H105.04Z" fill="#893B3B"/>
<path d="M102.881 136.718C102.815 136.718 102.757 136.718 102.691 136.733C103.953 136.857 104.945 137.917 104.945 139.219V146.767H105.375V139.219C105.375 137.837 104.259 136.718 102.881 136.718Z" fill="#514960"/>
<path d="M106.449 147.242H100.256V147.988H106.449V147.242Z" fill="#D09266"/>
<path d="M100.255 147.242H99.5989V147.988H100.255V147.242Z" fill="#9B6948"/>
<path d="M102.874 136.25C101.335 136.25 99.9275 137.5 99.9275 139.044V147.235H105.807V139.044C105.807 137.5 104.413 136.25 102.874 136.25ZM105.369 146.767H100.387V139.219C100.387 137.837 101.503 136.718 102.882 136.718C104.26 136.718 105.376 137.837 105.376 139.219V146.767H105.369Z" fill="#B25B5B"/>
<path d="M114.064 136.513H113.145L112.984 135.584H114.224L114.064 136.513Z" fill="#837A93"/>
<path d="M116.28 146.759H111.298V139.212C111.298 137.83 112.414 136.711 113.793 136.711C115.172 136.711 116.288 137.83 116.288 139.212V146.759H116.28Z" fill="url(#paint6_linear_1195_1169)"/>
<path d="M116.58 147.242H111V139.051C111 137.508 112.247 136.257 113.786 136.257C115.325 136.257 116.573 137.508 116.573 139.051V147.242H116.58Z" fill="url(#paint7_linear_1195_1169)"/>
<path d="M116.273 141.771H111.298V141.984H116.273V141.771Z" fill="#6D637D"/>
<path d="M113.457 136.25C111.918 136.25 110.51 137.5 110.51 139.044V147.235H116.39V139.044C116.39 137.5 114.996 136.25 113.457 136.25ZM115.945 146.767H110.963V139.219C110.963 137.837 112.079 136.718 113.457 136.718C114.836 136.718 115.952 137.837 115.952 139.219V146.767H115.945Z" fill="#893B3B"/>
<path d="M113.792 136.718C113.727 136.718 113.668 136.718 113.603 136.733C114.865 136.857 115.857 137.917 115.857 139.219V146.767H116.287V139.219C116.287 137.837 115.171 136.718 113.792 136.718Z" fill="#514960"/>
<path d="M117.36 147.242H111.167V147.988H117.36V147.242Z" fill="#D09266"/>
<path d="M111.167 147.242H110.51V147.988H111.167V147.242Z" fill="#9B6948"/>
<path d="M113.786 136.25C112.247 136.25 110.839 137.5 110.839 139.044V147.235H116.718V139.044C116.718 137.5 115.325 136.25 113.786 136.25ZM116.281 146.767H111.299V139.219C111.299 137.837 112.415 136.718 113.793 136.718C115.172 136.718 116.288 137.837 116.288 139.219V146.767H116.281Z" fill="#B25B5B"/>
<path d="M124.976 136.513H124.05L123.889 135.584H125.137L124.976 136.513Z" fill="#837A93"/>
<path d="M127.193 146.759H122.211V139.212C122.211 137.83 123.327 136.711 124.706 136.711C126.084 136.711 127.2 137.83 127.2 139.212V146.759H127.193Z" fill="url(#paint8_linear_1195_1169)"/>
<path d="M127.492 147.242H121.912V139.051C121.912 137.508 123.16 136.257 124.699 136.257C126.238 136.257 127.485 137.508 127.485 139.051V147.242H127.492Z" fill="url(#paint9_linear_1195_1169)"/>
<path d="M127.186 141.771H122.211V141.984H127.186V141.771Z" fill="#6D637D"/>
<path d="M124.363 136.25C122.824 136.25 121.416 137.5 121.416 139.044V147.235H127.295V139.044C127.295 137.5 125.902 136.25 124.363 136.25ZM126.857 146.767H121.876V139.219C121.876 137.837 122.992 136.718 124.37 136.718C125.749 136.718 126.865 137.837 126.865 139.219V146.767H126.857Z" fill="#893B3B"/>
<path d="M124.698 136.718C124.632 136.718 124.574 136.718 124.508 136.733C125.77 136.857 126.762 137.917 126.762 139.219V146.767H127.193V139.219C127.193 137.837 126.077 136.718 124.698 136.718Z" fill="#514960"/>
<path d="M128.273 147.242H122.08V147.988H128.273V147.242Z" fill="#D09266"/>
<path d="M122.072 147.242H121.416V147.988H122.072V147.242Z" fill="#9B6948"/>
<path d="M124.699 136.25C123.159 136.25 121.752 137.5 121.752 139.044V147.235H127.631V139.044C127.631 137.5 126.238 136.25 124.699 136.25ZM127.186 146.767H122.204V139.219C122.204 137.837 123.32 136.718 124.699 136.718C126.077 136.718 127.193 137.837 127.193 139.219V146.767H127.186Z" fill="#B25B5B"/>
<path d="M135.888 136.513H134.962L134.801 135.584H136.049L135.888 136.513Z" fill="#837A93"/>
<path d="M138.105 146.759H133.123V139.212C133.123 137.83 134.239 136.711 135.618 136.711C136.996 136.711 138.112 137.83 138.112 139.212V146.759H138.105Z" fill="url(#paint10_linear_1195_1169)"/>
<path d="M138.397 147.242H132.817V139.051C132.817 137.508 134.064 136.257 135.604 136.257C137.143 136.257 138.39 137.508 138.39 139.051V147.242H138.397Z" fill="url(#paint11_linear_1195_1169)"/>
<path d="M138.091 141.771H133.116V141.984H138.091V141.771Z" fill="#6D637D"/>
<path d="M135.275 136.25C133.736 136.25 132.328 137.5 132.328 139.044V147.235H138.207V139.044C138.207 137.5 136.814 136.25 135.275 136.25ZM137.77 146.767H132.788V139.219C132.788 137.837 133.904 136.718 135.282 136.718C136.661 136.718 137.777 137.837 137.777 139.219V146.767H137.77Z" fill="#893B3B"/>
<path d="M135.61 136.718C135.544 136.718 135.486 136.718 135.42 136.733C136.682 136.857 137.674 137.917 137.674 139.219V146.767H138.104V139.219C138.104 137.837 136.988 136.718 135.61 136.718Z" fill="#514960"/>
<path d="M139.178 147.242H132.985V147.988H139.178V147.242Z" fill="#D09266"/>
<path d="M132.985 147.242H132.328V147.988H132.985V147.242Z" fill="#9B6948"/>
<path d="M135.603 136.25C134.064 136.25 132.656 137.5 132.656 139.044V147.235H138.536V139.044C138.536 137.5 137.142 136.25 135.603 136.25ZM138.098 146.767H133.116V139.219C133.116 137.837 134.232 136.718 135.611 136.718C136.989 136.718 138.105 137.837 138.105 139.219V146.767H138.098Z" fill="#B25B5B"/>
<path d="M146.792 136.513H145.873L145.713 135.584H146.953L146.792 136.513Z" fill="#837A93"/>
<path d="M149.009 146.759H144.027V139.212C144.027 137.83 145.143 136.711 146.522 136.711C147.9 136.711 149.016 137.83 149.016 139.212V146.759H149.009Z" fill="url(#paint12_linear_1195_1169)"/>
<path d="M149.309 147.242H143.729V139.051C143.729 137.508 144.976 136.257 146.515 136.257C148.054 136.257 149.301 137.508 149.301 139.051V147.242H149.309Z" fill="url(#paint13_linear_1195_1169)"/>
<path d="M149.002 141.771H144.027V141.984H149.002V141.771Z" fill="#6D637D"/>
<path d="M146.186 136.25C144.647 136.25 143.239 137.5 143.239 139.044V147.235H149.118V139.044C149.118 137.5 147.725 136.25 146.186 136.25ZM148.673 146.767H143.691V139.219C143.691 137.837 144.808 136.718 146.186 136.718C147.565 136.718 148.681 137.837 148.681 139.219V146.767H148.673Z" fill="#893B3B"/>
<path d="M146.521 136.718C146.456 136.718 146.397 136.718 146.332 136.733C147.593 136.857 148.585 137.917 148.585 139.219V146.767H149.016V139.219C149.016 137.837 147.9 136.718 146.521 136.718Z" fill="#514960"/>
<path d="M150.089 147.242H143.896V147.988H150.089V147.242Z" fill="#D09266"/>
<path d="M143.896 147.242H143.239V147.988H143.896V147.242Z" fill="#9B6948"/>
<path d="M146.515 136.25C144.976 136.25 143.568 137.5 143.568 139.044V147.235H149.447V139.044C149.447 137.5 148.054 136.25 146.515 136.25ZM149.009 146.767H144.027V139.219C144.027 137.837 145.143 136.718 146.522 136.718C147.901 136.718 149.017 137.837 149.017 139.219V146.767H149.009Z" fill="#B25B5B"/>
<path d="M157.705 136.513H156.779L156.618 135.584H157.865L157.705 136.513Z" fill="#837A93"/>
<path d="M159.922 146.759H154.94V139.212C154.94 137.83 156.056 136.711 157.435 136.711C158.813 136.711 159.929 137.83 159.929 139.212V146.759H159.922Z" fill="url(#paint14_linear_1195_1169)"/>
<path d="M160.222 147.242H154.642V139.051C154.642 137.508 155.889 136.257 157.428 136.257C158.967 136.257 160.214 137.508 160.214 139.051V147.242H160.222Z" fill="url(#paint15_linear_1195_1169)"/>
<path d="M159.915 141.771H154.94V141.984H159.915V141.771Z" fill="#6D637D"/>
<path d="M157.092 136.25C155.553 136.25 154.145 137.5 154.145 139.044V147.235H160.024V139.044C160.024 137.5 158.631 136.25 157.092 136.25ZM159.586 146.767H154.605V139.219C154.605 137.837 155.721 136.718 157.099 136.718C158.478 136.718 159.594 137.837 159.594 139.219V146.767H159.586Z" fill="#893B3B"/>
<path d="M157.435 136.718C157.37 136.718 157.311 136.718 157.246 136.733C158.508 136.857 159.5 137.917 159.5 139.219V146.767H159.93V139.219C159.93 137.837 158.814 136.718 157.435 136.718Z" fill="#514960"/>
<path d="M161.002 147.242H154.809V147.988H161.002V147.242Z" fill="#D09266"/>
<path d="M154.802 147.242H154.145V147.988H154.802V147.242Z" fill="#9B6948"/>
<path d="M157.428 136.25C155.889 136.25 154.481 137.5 154.481 139.044V147.235H160.36V139.044C160.36 137.5 158.967 136.25 157.428 136.25ZM159.915 146.767H154.933V139.219C154.933 137.837 156.049 136.718 157.428 136.718C158.806 136.718 159.922 137.837 159.922 139.219V146.767H159.915Z" fill="#B25B5B"/>
<path d="M92.2475 153.685H91.3211L91.1606 152.764H92.4079L92.2475 153.685Z" fill="#837A93"/>
<path d="M94.4643 163.931H89.4824V156.384C89.4824 155.001 90.5984 153.882 91.977 153.882C93.3556 153.882 94.4716 155.001 94.4716 156.384V163.931H94.4643Z" fill="url(#paint16_linear_1195_1169)"/>
<path d="M94.7639 164.414H89.1838V156.223C89.1838 154.68 90.4311 153.429 91.9702 153.429C93.5093 153.429 94.7566 154.68 94.7566 156.223V164.414H94.7639Z" fill="url(#paint17_linear_1195_1169)"/>
<path d="M94.457 158.943H89.4824V159.155H94.457V158.943Z" fill="#6D637D"/>
<path d="M91.6343 153.422C90.0953 153.422 88.6875 154.672 88.6875 156.215V164.406H94.5666V156.215C94.5666 154.672 93.1734 153.422 91.6343 153.422ZM94.129 163.938H89.147V156.391C89.147 155.009 90.263 153.89 91.6416 153.89C93.0202 153.89 94.1362 155.009 94.1362 156.391V163.938H94.129Z" fill="#893B3B"/>
<path d="M91.9692 153.89C91.9035 153.89 91.8452 153.89 91.7795 153.904C93.0414 154.029 94.0334 155.089 94.0334 156.391V163.938H94.4638V156.391C94.4638 155.009 93.3478 153.89 91.9692 153.89Z" fill="#514960"/>
<path d="M95.5443 164.414H89.3516V165.16H95.5443V164.414Z" fill="#D09266"/>
<path d="M89.344 164.414H88.6875V165.16H89.344V164.414Z" fill="#9B6948"/>
<path d="M91.9627 153.422C90.4236 153.422 89.0159 154.672 89.0159 156.215V164.406H94.895V156.215C94.895 154.672 93.5018 153.422 91.9627 153.422ZM94.4573 163.938H89.4754V156.391C89.4754 155.009 90.5914 153.89 91.97 153.89C93.3486 153.89 94.4646 155.009 94.4646 156.391V163.938H94.4573Z" fill="#B25B5B"/>
<path d="M103.159 153.685H102.233L102.073 152.764H103.313L103.159 153.685Z" fill="#837A93"/>
<path d="M105.376 163.931H100.394V156.384C100.394 155.001 101.51 153.882 102.889 153.882C104.267 153.882 105.383 155.001 105.383 156.384V163.931H105.376Z" fill="url(#paint18_linear_1195_1169)"/>
<path d="M105.668 164.414H100.088V156.223C100.088 154.68 101.335 153.429 102.875 153.429C104.414 153.429 105.661 154.68 105.661 156.223V164.414H105.668Z" fill="url(#paint19_linear_1195_1169)"/>
<path d="M105.361 158.943H100.387V159.155H105.361V158.943Z" fill="#6D637D"/>
<path d="M102.546 153.422C101.007 153.422 99.5989 154.672 99.5989 156.215V164.406H105.478V156.215C105.478 154.672 104.085 153.422 102.546 153.422ZM105.04 163.938H100.058V156.391C100.058 155.009 101.174 153.89 102.553 153.89C103.932 153.89 105.048 155.009 105.048 156.391V163.938H105.04Z" fill="#893B3B"/>
<path d="M102.881 153.89C102.815 153.89 102.757 153.89 102.691 153.904C103.953 154.029 104.945 155.089 104.945 156.391V163.938H105.375V156.391C105.375 155.009 104.259 153.89 102.881 153.89Z" fill="#514960"/>
<path d="M106.449 164.414H100.256V165.16H106.449V164.414Z" fill="#D09266"/>
<path d="M100.255 164.414H99.5989V165.16H100.255V164.414Z" fill="#9B6948"/>
<path d="M102.874 153.422C101.335 153.422 99.9275 154.672 99.9275 156.215V164.406H105.807V156.215C105.807 154.672 104.413 153.422 102.874 153.422ZM105.369 163.938H100.387V156.391C100.387 155.009 101.503 153.89 102.882 153.89C104.26 153.89 105.376 155.009 105.376 156.391V163.938H105.369Z" fill="#B25B5B"/>
<path d="M114.064 153.685H113.145L112.984 152.764H114.224L114.064 153.685Z" fill="#837A93"/>
<path d="M116.28 163.931H111.298V156.384C111.298 155.001 112.414 153.882 113.793 153.882C115.172 153.882 116.288 155.001 116.288 156.384V163.931H116.28Z" fill="url(#paint20_linear_1195_1169)"/>
<path d="M116.58 164.414H111V156.223C111 154.68 112.247 153.429 113.786 153.429C115.325 153.429 116.573 154.68 116.573 156.223V164.414H116.58Z" fill="url(#paint21_linear_1195_1169)"/>
<path d="M116.273 158.943H111.298V159.155H116.273V158.943Z" fill="#6D637D"/>
<path d="M113.457 153.422C111.918 153.422 110.51 154.672 110.51 156.215V164.406H116.39V156.215C116.39 154.672 114.996 153.422 113.457 153.422ZM115.945 163.938H110.963V156.391C110.963 155.009 112.079 153.89 113.457 153.89C114.836 153.89 115.952 155.009 115.952 156.391V163.938H115.945Z" fill="#893B3B"/>
<path d="M113.792 153.89C113.727 153.89 113.668 153.89 113.603 153.904C114.865 154.029 115.857 155.089 115.857 156.391V163.938H116.287V156.391C116.287 155.009 115.171 153.89 113.792 153.89Z" fill="#514960"/>
<path d="M117.36 164.414H111.167V165.16H117.36V164.414Z" fill="#D09266"/>
<path d="M111.167 164.414H110.51V165.16H111.167V164.414Z" fill="#9B6948"/>
<path d="M113.786 153.422C112.247 153.422 110.839 154.672 110.839 156.215V164.406H116.718V156.215C116.718 154.672 115.325 153.422 113.786 153.422ZM116.281 163.938H111.299V156.391C111.299 155.009 112.415 153.89 113.793 153.89C115.172 153.89 116.288 155.009 116.288 156.391V163.938H116.281Z" fill="#B25B5B"/>
<path d="M124.976 153.685H124.05L123.889 152.764H125.137L124.976 153.685Z" fill="#837A93"/>
<path d="M127.193 163.931H122.211V156.384C122.211 155.001 123.327 153.882 124.706 153.882C126.084 153.882 127.2 155.001 127.2 156.384V163.931H127.193Z" fill="url(#paint22_linear_1195_1169)"/>
<path d="M127.492 164.414H121.912V156.223C121.912 154.68 123.16 153.429 124.699 153.429C126.238 153.429 127.485 154.68 127.485 156.223V164.414H127.492Z" fill="url(#paint23_linear_1195_1169)"/>
<path d="M127.186 158.943H122.211V159.155H127.186V158.943Z" fill="#6D637D"/>
<path d="M124.363 153.422C122.824 153.422 121.416 154.672 121.416 156.215V164.406H127.295V156.215C127.295 154.672 125.902 153.422 124.363 153.422ZM126.857 163.938H121.876V156.391C121.876 155.009 122.992 153.89 124.37 153.89C125.749 153.89 126.865 155.009 126.865 156.391V163.938H126.857Z" fill="#893B3B"/>
<path d="M124.698 153.89C124.632 153.89 124.574 153.89 124.508 153.904C125.77 154.029 126.762 155.089 126.762 156.391V163.938H127.193V156.391C127.193 155.009 126.077 153.89 124.698 153.89Z" fill="#514960"/>
<path d="M128.273 164.414H122.08V165.16H128.273V164.414Z" fill="#D09266"/>
<path d="M122.072 164.414H121.416V165.16H122.072V164.414Z" fill="#9B6948"/>
<path d="M124.699 153.422C123.159 153.422 121.752 154.672 121.752 156.215V164.406H127.631V156.215C127.631 154.672 126.238 153.422 124.699 153.422ZM127.186 163.938H122.204V156.391C122.204 155.009 123.32 153.89 124.699 153.89C126.077 153.89 127.193 155.009 127.193 156.391V163.938H127.186Z" fill="#B25B5B"/>
<path d="M135.888 153.685H134.962L134.801 152.764H136.049L135.888 153.685Z" fill="#837A93"/>
<path d="M138.105 163.931H133.123V156.384C133.123 155.001 134.239 153.882 135.618 153.882C136.996 153.882 138.112 155.001 138.112 156.384V163.931H138.105Z" fill="url(#paint24_linear_1195_1169)"/>
<path d="M138.397 164.414H132.817V156.223C132.817 154.68 134.064 153.429 135.604 153.429C137.143 153.429 138.39 154.68 138.39 156.223V164.414H138.397Z" fill="url(#paint25_linear_1195_1169)"/>
<path d="M138.091 158.943H133.116V159.155H138.091V158.943Z" fill="#6D637D"/>
<path d="M135.275 153.422C133.736 153.422 132.328 154.672 132.328 156.215V164.406H138.207V156.215C138.207 154.672 136.814 153.422 135.275 153.422ZM137.77 163.938H132.788V156.391C132.788 155.009 133.904 153.89 135.282 153.89C136.661 153.89 137.777 155.009 137.777 156.391V163.938H137.77Z" fill="#893B3B"/>
<path d="M135.61 153.89C135.544 153.89 135.486 153.89 135.42 153.904C136.682 154.029 137.674 155.089 137.674 156.391V163.938H138.104V156.391C138.104 155.009 136.988 153.89 135.61 153.89Z" fill="#514960"/>
<path d="M139.178 164.414H132.985V165.16H139.178V164.414Z" fill="#D09266"/>
<path d="M132.985 164.414H132.328V165.16H132.985V164.414Z" fill="#9B6948"/>
<path d="M135.603 153.422C134.064 153.422 132.656 154.672 132.656 156.215V164.406H138.536V156.215C138.536 154.672 137.142 153.422 135.603 153.422ZM138.098 163.938H133.116V156.391C133.116 155.009 134.232 153.89 135.611 153.89C136.989 153.89 138.105 155.009 138.105 156.391V163.938H138.098Z" fill="#B25B5B"/>
<path d="M146.792 153.685H145.873L145.713 152.764H146.953L146.792 153.685Z" fill="#837A93"/>
<path d="M149.009 163.931H144.027V156.384C144.027 155.001 145.143 153.882 146.522 153.882C147.9 153.882 149.016 155.001 149.016 156.384V163.931H149.009Z" fill="url(#paint26_linear_1195_1169)"/>
<path d="M149.309 164.414H143.729V156.223C143.729 154.68 144.976 153.429 146.515 153.429C148.054 153.429 149.301 154.68 149.301 156.223V164.414H149.309Z" fill="url(#paint27_linear_1195_1169)"/>
<path d="M149.002 158.943H144.027V159.155H149.002V158.943Z" fill="#6D637D"/>
<path d="M146.186 153.422C144.647 153.422 143.239 154.672 143.239 156.215V164.406H149.118V156.215C149.118 154.672 147.725 153.422 146.186 153.422ZM148.673 163.938H143.691V156.391C143.691 155.009 144.808 153.89 146.186 153.89C147.565 153.89 148.681 155.009 148.681 156.391V163.938H148.673Z" fill="#893B3B"/>
<path d="M146.521 153.89C146.456 153.89 146.397 153.89 146.332 153.904C147.593 154.029 148.585 155.089 148.585 156.391V163.938H149.016V156.391C149.016 155.009 147.9 153.89 146.521 153.89Z" fill="#514960"/>
<path d="M150.089 164.414H143.896V165.16H150.089V164.414Z" fill="#D09266"/>
<path d="M143.896 164.414H143.239V165.16H143.896V164.414Z" fill="#9B6948"/>
<path d="M146.515 153.422C144.976 153.422 143.568 154.672 143.568 156.215V164.406H149.447V156.215C149.447 154.672 148.054 153.422 146.515 153.422ZM149.009 163.938H144.027V156.391C144.027 155.009 145.143 153.89 146.522 153.89C147.901 153.89 149.017 155.009 149.017 156.391V163.938H149.009Z" fill="#B25B5B"/>
<path d="M157.705 153.685H156.779L156.618 152.764H157.865L157.705 153.685Z" fill="#837A93"/>
<path d="M159.922 163.931H154.94V156.384C154.94 155.001 156.056 153.882 157.435 153.882C158.813 153.882 159.929 155.001 159.929 156.384V163.931H159.922Z" fill="url(#paint28_linear_1195_1169)"/>
<path d="M160.222 164.414H154.642V156.223C154.642 154.68 155.889 153.429 157.428 153.429C158.967 153.429 160.214 154.68 160.214 156.223V164.414H160.222Z" fill="url(#paint29_linear_1195_1169)"/>
<path d="M159.915 158.943H154.94V159.155H159.915V158.943Z" fill="#6D637D"/>
<path d="M157.092 153.422C155.553 153.422 154.145 154.672 154.145 156.215V164.406H160.024V156.215C160.024 154.672 158.631 153.422 157.092 153.422ZM159.586 163.938H154.605V156.391C154.605 155.009 155.721 153.89 157.099 153.89C158.478 153.89 159.594 155.009 159.594 156.391V163.938H159.586Z" fill="#893B3B"/>
<path d="M157.435 153.89C157.37 153.89 157.311 153.89 157.246 153.904C158.508 154.029 159.5 155.089 159.5 156.391V163.938H159.93V156.391C159.93 155.009 158.814 153.89 157.435 153.89Z" fill="#514960"/>
<path d="M161.002 164.414H154.809V165.16H161.002V164.414Z" fill="#D09266"/>
<path d="M154.802 164.414H154.145V165.16H154.802V164.414Z" fill="#9B6948"/>
<path d="M157.428 153.422C155.889 153.422 154.481 154.672 154.481 156.215V164.406H160.36V156.215C160.36 154.672 158.967 153.422 157.428 153.422ZM159.915 163.938H154.933V156.391C154.933 155.009 156.049 153.89 157.428 153.89C158.806 153.89 159.922 155.009 159.922 156.391V163.938H159.915Z" fill="#B25B5B"/>
<path d="M92.2475 170.857H91.3211L91.1606 169.935H92.4079L92.2475 170.857Z" fill="#837A93"/>
<path d="M94.4643 181.103H89.4824V173.556C89.4824 172.173 90.5984 171.054 91.977 171.054C93.3556 171.054 94.4716 172.173 94.4716 173.556V181.103H94.4643Z" fill="url(#paint30_linear_1195_1169)"/>
<path d="M94.7639 181.586H89.1838V173.395C89.1838 171.852 90.4311 170.601 91.9702 170.601C93.5093 170.601 94.7566 171.852 94.7566 173.395V181.586H94.7639Z" fill="url(#paint31_linear_1195_1169)"/>
<path d="M94.457 176.115H89.4824V176.327H94.457V176.115Z" fill="#6D637D"/>
<path d="M91.6343 170.594C90.0953 170.594 88.6875 171.844 88.6875 173.387V181.578H94.5666V173.387C94.5666 171.844 93.1734 170.594 91.6343 170.594ZM94.129 181.11H89.147V173.563C89.147 172.181 90.263 171.062 91.6416 171.062C93.0202 171.062 94.1362 172.181 94.1362 173.563V181.11H94.129Z" fill="#893B3B"/>
<path d="M91.9692 171.062C91.9035 171.062 91.8452 171.062 91.7795 171.076C93.0414 171.201 94.0334 172.261 94.0334 173.563V181.11H94.4638V173.563C94.4638 172.181 93.3478 171.062 91.9692 171.062Z" fill="#514960"/>
<path d="M95.5443 181.586H89.3516V182.332H95.5443V181.586Z" fill="#D09266"/>
<path d="M89.344 181.586H88.6875V182.332H89.344V181.586Z" fill="#9B6948"/>
<path d="M91.9627 170.594C90.4236 170.594 89.0159 171.844 89.0159 173.387V181.578H94.895V173.387C94.895 171.844 93.5018 170.594 91.9627 170.594ZM94.4573 181.11H89.4754V173.563C89.4754 172.181 90.5914 171.062 91.97 171.062C93.3486 171.062 94.4646 172.181 94.4646 173.563V181.11H94.4573Z" fill="#B25B5B"/>
<path d="M103.159 170.857H102.233L102.073 169.935H103.313L103.159 170.857Z" fill="#837A93"/>
<path d="M105.376 181.103H100.394V173.556C100.394 172.173 101.51 171.054 102.889 171.054C104.267 171.054 105.383 172.173 105.383 173.556V181.103H105.376Z" fill="url(#paint32_linear_1195_1169)"/>
<path d="M105.668 181.586H100.088V173.395C100.088 171.852 101.335 170.601 102.875 170.601C104.414 170.601 105.661 171.852 105.661 173.395V181.586H105.668Z" fill="url(#paint33_linear_1195_1169)"/>
<path d="M105.361 176.115H100.387V176.327H105.361V176.115Z" fill="#6D637D"/>
<path d="M102.546 170.594C101.007 170.594 99.5989 171.844 99.5989 173.387V181.578H105.478V173.387C105.478 171.844 104.085 170.594 102.546 170.594ZM105.04 181.11H100.058V173.563C100.058 172.181 101.174 171.062 102.553 171.062C103.932 171.062 105.048 172.181 105.048 173.563V181.11H105.04Z" fill="#893B3B"/>
<path d="M102.881 171.062C102.815 171.062 102.757 171.062 102.691 171.076C103.953 171.201 104.945 172.261 104.945 173.563V181.11H105.375V173.563C105.375 172.181 104.259 171.062 102.881 171.062Z" fill="#514960"/>
<path d="M106.449 181.586H100.256V182.332H106.449V181.586Z" fill="#D09266"/>
<path d="M100.255 181.586H99.5989V182.332H100.255V181.586Z" fill="#9B6948"/>
<path d="M102.874 170.594C101.335 170.594 99.9275 171.844 99.9275 173.387V181.578H105.807V173.387C105.807 171.844 104.413 170.594 102.874 170.594ZM105.369 181.11H100.387V173.563C100.387 172.181 101.503 171.062 102.882 171.062C104.26 171.062 105.376 172.181 105.376 173.563V181.11H105.369Z" fill="#B25B5B"/>
<path d="M114.064 170.857H113.145L112.984 169.935H114.224L114.064 170.857Z" fill="#837A93"/>
<path d="M116.28 181.103H111.298V173.556C111.298 172.173 112.414 171.054 113.793 171.054C115.172 171.054 116.288 172.173 116.288 173.556V181.103H116.28Z" fill="url(#paint34_linear_1195_1169)"/>
<path d="M116.58 181.586H111V173.395C111 171.852 112.247 170.601 113.786 170.601C115.325 170.601 116.573 171.852 116.573 173.395V181.586H116.58Z" fill="url(#paint35_linear_1195_1169)"/>
<path d="M116.273 176.115H111.298V176.327H116.273V176.115Z" fill="#6D637D"/>
<path d="M113.457 170.594C111.918 170.594 110.51 171.844 110.51 173.387V181.578H116.39V173.387C116.39 171.844 114.996 170.594 113.457 170.594ZM115.945 181.11H110.963V173.563C110.963 172.181 112.079 171.062 113.457 171.062C114.836 171.062 115.952 172.181 115.952 173.563V181.11H115.945Z" fill="#893B3B"/>
<path d="M113.792 171.062C113.727 171.062 113.668 171.062 113.603 171.076C114.865 171.201 115.857 172.261 115.857 173.563V181.11H116.287V173.563C116.287 172.181 115.171 171.062 113.792 171.062Z" fill="#514960"/>
<path d="M117.36 181.586H111.167V182.332H117.36V181.586Z" fill="#D09266"/>
<path d="M111.167 181.586H110.51V182.332H111.167V181.586Z" fill="#9B6948"/>
<path d="M113.786 170.594C112.247 170.594 110.839 171.844 110.839 173.387V181.578H116.718V173.387C116.718 171.844 115.325 170.594 113.786 170.594ZM116.281 181.11H111.299V173.563C111.299 172.181 112.415 171.062 113.793 171.062C115.172 171.062 116.288 172.181 116.288 173.563V181.11H116.281Z" fill="#B25B5B"/>
<path d="M124.976 170.857H124.05L123.889 169.935H125.137L124.976 170.857Z" fill="#837A93"/>
<path d="M127.193 181.103H122.211V173.556C122.211 172.173 123.327 171.054 124.706 171.054C126.084 171.054 127.2 172.173 127.2 173.556V181.103H127.193Z" fill="url(#paint36_linear_1195_1169)"/>
<path d="M127.492 181.586H121.912V173.395C121.912 171.852 123.16 170.601 124.699 170.601C126.238 170.601 127.485 171.852 127.485 173.395V181.586H127.492Z" fill="url(#paint37_linear_1195_1169)"/>
<path d="M127.186 176.115H122.211V176.327H127.186V176.115Z" fill="#6D637D"/>
<path d="M124.363 170.594C122.824 170.594 121.416 171.844 121.416 173.387V181.578H127.295V173.387C127.295 171.844 125.902 170.594 124.363 170.594ZM126.857 181.11H121.876V173.563C121.876 172.181 122.992 171.062 124.37 171.062C125.749 171.062 126.865 172.181 126.865 173.563V181.11H126.857Z" fill="#893B3B"/>
<path d="M124.698 171.062C124.632 171.062 124.574 171.062 124.508 171.076C125.77 171.201 126.762 172.261 126.762 173.563V181.11H127.193V173.563C127.193 172.181 126.077 171.062 124.698 171.062Z" fill="#514960"/>
<path d="M128.273 181.586H122.08V182.332H128.273V181.586Z" fill="#D09266"/>
<path d="M122.072 181.586H121.416V182.332H122.072V181.586Z" fill="#9B6948"/>
<path d="M124.699 170.594C123.159 170.594 121.752 171.844 121.752 173.387V181.578H127.631V173.387C127.631 171.844 126.238 170.594 124.699 170.594ZM127.186 181.11H122.204V173.563C122.204 172.181 123.32 171.062 124.699 171.062C126.077 171.062 127.193 172.181 127.193 173.563V181.11H127.186Z" fill="#B25B5B"/>
<path d="M135.888 170.857H134.962L134.801 169.935H136.049L135.888 170.857Z" fill="#837A93"/>
<path d="M138.105 181.103H133.123V173.556C133.123 172.173 134.239 171.054 135.618 171.054C136.996 171.054 138.112 172.173 138.112 173.556V181.103H138.105Z" fill="url(#paint38_linear_1195_1169)"/>
<path d="M138.397 181.586H132.817V173.395C132.817 171.852 134.064 170.601 135.604 170.601C137.143 170.601 138.39 171.852 138.39 173.395V181.586H138.397Z" fill="url(#paint39_linear_1195_1169)"/>
<path d="M138.091 176.115H133.116V176.327H138.091V176.115Z" fill="#6D637D"/>
<path d="M135.275 170.594C133.736 170.594 132.328 171.844 132.328 173.387V181.578H138.207V173.387C138.207 171.844 136.814 170.594 135.275 170.594ZM137.77 181.11H132.788V173.563C132.788 172.181 133.904 171.062 135.282 171.062C136.661 171.062 137.777 172.181 137.777 173.563V181.11H137.77Z" fill="#893B3B"/>
<path d="M135.61 171.062C135.544 171.062 135.486 171.062 135.42 171.076C136.682 171.201 137.674 172.261 137.674 173.563V181.11H138.104V173.563C138.104 172.181 136.988 171.062 135.61 171.062Z" fill="#514960"/>
<path d="M139.178 181.586H132.985V182.332H139.178V181.586Z" fill="#D09266"/>
<path d="M132.985 181.586H132.328V182.332H132.985V181.586Z" fill="#9B6948"/>
<path d="M135.603 170.594C134.064 170.594 132.656 171.844 132.656 173.387V181.578H138.536V173.387C138.536 171.844 137.142 170.594 135.603 170.594ZM138.098 181.11H133.116V173.563C133.116 172.181 134.232 171.062 135.611 171.062C136.989 171.062 138.105 172.181 138.105 173.563V181.11H138.098Z" fill="#B25B5B"/>
<path d="M146.792 170.857H145.873L145.713 169.935H146.953L146.792 170.857Z" fill="#837A93"/>
<path d="M149.009 181.103H144.027V173.556C144.027 172.173 145.143 171.054 146.522 171.054C147.9 171.054 149.016 172.173 149.016 173.556V181.103H149.009Z" fill="url(#paint40_linear_1195_1169)"/>
<path d="M149.309 181.586H143.729V173.395C143.729 171.852 144.976 170.601 146.515 170.601C148.054 170.601 149.301 171.852 149.301 173.395V181.586H149.309Z" fill="url(#paint41_linear_1195_1169)"/>
<path d="M149.002 176.115H144.027V176.327H149.002V176.115Z" fill="#6D637D"/>
<path d="M146.186 170.594C144.647 170.594 143.239 171.844 143.239 173.387V181.578H149.118V173.387C149.118 171.844 147.725 170.594 146.186 170.594ZM148.673 181.11H143.691V173.563C143.691 172.181 144.808 171.062 146.186 171.062C147.565 171.062 148.681 172.181 148.681 173.563V181.11H148.673Z" fill="#893B3B"/>
<path d="M146.521 171.062C146.456 171.062 146.397 171.062 146.332 171.076C147.593 171.201 148.585 172.261 148.585 173.563V181.11H149.016V173.563C149.016 172.181 147.9 171.062 146.521 171.062Z" fill="#514960"/>
<path d="M150.089 181.586H143.896V182.332H150.089V181.586Z" fill="#D09266"/>
<path d="M143.896 181.586H143.239V182.332H143.896V181.586Z" fill="#9B6948"/>
<path d="M146.515 170.594C144.976 170.594 143.568 171.844 143.568 173.387V181.578H149.447V173.387C149.447 171.844 148.054 170.594 146.515 170.594ZM149.009 181.11H144.027V173.563C144.027 172.181 145.143 171.062 146.522 171.062C147.901 171.062 149.017 172.181 149.017 173.563V181.11H149.009Z" fill="#B25B5B"/>
<path d="M157.705 170.857H156.779L156.618 169.935H157.865L157.705 170.857Z" fill="#837A93"/>
<path d="M159.922 181.103H154.94V173.556C154.94 172.173 156.056 171.054 157.435 171.054C158.813 171.054 159.929 172.173 159.929 173.556V181.103H159.922Z" fill="url(#paint42_linear_1195_1169)"/>
<path d="M160.222 181.586H154.642V173.395C154.642 171.852 155.889 170.601 157.428 170.601C158.967 170.601 160.214 171.852 160.214 173.395V181.586H160.222Z" fill="url(#paint43_linear_1195_1169)"/>
<path d="M159.915 176.115H154.94V176.327H159.915V176.115Z" fill="#6D637D"/>
<path d="M157.092 170.594C155.553 170.594 154.145 171.844 154.145 173.387V181.578H160.024V173.387C160.024 171.844 158.631 170.594 157.092 170.594ZM159.586 181.11H154.605V173.563C154.605 172.181 155.721 171.062 157.099 171.062C158.478 171.062 159.594 172.181 159.594 173.563V181.11H159.586Z" fill="#893B3B"/>
<path d="M157.435 171.062C157.37 171.062 157.311 171.062 157.246 171.076C158.508 171.201 159.5 172.261 159.5 173.563V181.11H159.93V173.563C159.93 172.181 158.814 171.062 157.435 171.062Z" fill="#514960"/>
<path d="M161.002 181.586H154.809V182.332H161.002V181.586Z" fill="#D09266"/>
<path d="M154.802 181.586H154.145V182.332H154.802V181.586Z" fill="#9B6948"/>
<path d="M157.428 170.594C155.889 170.594 154.481 171.844 154.481 173.387V181.578H160.36V173.387C160.36 171.844 158.967 170.594 157.428 170.594ZM159.915 181.11H154.933V173.563C154.933 172.181 156.049 171.062 157.428 171.062C158.806 171.062 159.922 172.181 159.922 173.563V181.11H159.915Z" fill="#B25B5B"/>
<path d="M160.746 127.225H89.6789H81.6699V129.412H89.6789H160.746H167.581V127.225H160.746Z" fill="#837A93"/>
<path d="M160.747 130.472H89.6795H83.3481V131.145H89.6795H160.747H165.904V130.472H160.747Z" fill="#837A93"/>
<path d="M160.746 129.412H81.6699C81.6699 129.412 82.6255 129.514 82.7859 130.194H166.457C166.618 129.522 167.573 129.412 167.573 129.412H160.739H160.746Z" fill="#59516B"/>
<path d="M160.747 131.145H83.3481C83.3481 131.145 84.3329 131.123 84.4642 131.65H164.773C164.919 131.145 165.889 131.145 165.889 131.145H160.739H160.747Z" fill="#59516B"/>
<path d="M160.761 130.187H89.6719H82.7935V130.472H89.6719H160.761H166.458V130.187H160.761Z" fill="#433D54"/>
<path d="M160.76 131.642H89.6712H84.4705V131.92H89.6712H160.76H164.779V131.642H160.76Z" fill="#433D54"/>
<path d="M104.034 120.087H92.4067V127.232H104.034V120.087Z" fill="#A55B41"/>
<path d="M92.4435 120.087H87.9722V127.232H92.4435V120.087Z" fill="#773825"/>
<path d="M102.072 115.97H100.052V127.225H102.072V115.97Z" fill="#D09266"/>
<path d="M100.095 115.97H99.3804V127.225H100.095V115.97Z" fill="#9B6948"/>
<path d="M131.008 120.087H119.381V127.232H131.008V120.087Z" fill="#A55B41"/>
<path d="M119.417 120.087H114.946V127.232H119.417V120.087Z" fill="#773825"/>
<path d="M150.585 124.665H148.339V127.115H150.585V124.665Z" fill="#D09266"/>
<path d="M148.39 124.665H147.595V127.115H148.39V124.665Z" fill="#9B6948"/>
<path d="M158.704 124.665H156.457V127.115H158.704V124.665Z" fill="#D09266"/>
<path d="M156.508 124.665H155.713V127.115H156.508V124.665Z" fill="#9B6948"/>
<path d="M94.8942 188.965H89.3652V194.86H94.8942V188.965Z" fill="#B25B5B"/>
<path d="M89.373 188.965H89.001V194.86H89.373V188.965Z" fill="#893B3B"/>
<path d="M94.4571 189.338H89.8472V194.318H94.4571V189.338Z" fill="url(#paint44_linear_1195_1169)"/>
<path d="M94.4567 189.338H94.1284V194.318H94.4567V189.338Z" fill="#514960"/>
<path d="M105.486 188.965H99.9565V194.86H105.486V188.965Z" fill="#B25B5B"/>
<path d="M99.956 188.965H99.584V194.86H99.956V188.965Z" fill="#893B3B"/>
<path d="M105.047 189.338H100.437V194.318H105.047V189.338Z" fill="url(#paint45_linear_1195_1169)"/>
<path d="M105.047 189.338H104.719V194.318H105.047V189.338Z" fill="#514960"/>
<path d="M116.077 188.965H110.548V194.86H116.077V188.965Z" fill="#B25B5B"/>
<path d="M110.548 188.965H110.176V194.86H110.548V188.965Z" fill="#893B3B"/>
<path d="M115.639 189.338H111.029V194.318H115.639V189.338Z" fill="url(#paint46_linear_1195_1169)"/>
<path d="M115.631 189.338H115.303V194.318H115.631V189.338Z" fill="#514960"/>
<path d="M120.869 189.089H151.016V186.859H120.869V189.089Z" fill="#E59876"/>
<path d="M122.035 201.222H149.841V189.089H122.035V201.222Z" fill="url(#paint47_linear_1195_1169)"/>
<path d="M149.17 201.222H149.848V189.089H149.17V201.222Z" fill="#B25B5B"/>
<path d="M149.848 189.769V189.089H122.043V189.769H149.848Z" fill="#B25B5B"/>
<path d="M140.125 201.222H140.803V189.089H140.125V201.222Z" fill="#B25B5B"/>
<path d="M131.081 201.222H131.759V189.089H131.081V201.222Z" fill="#B25B5B"/>
<path d="M122.036 201.222H122.715V189.089H122.036V201.222Z" fill="#B25B5B"/>
<path d="M120.307 189.089H120.861V186.859H120.307V189.089Z" fill="#7E484F"/>
<path d="M119.593 187.232H120.147V186.859H119.593V187.232Z" fill="#9B6948"/>
<path d="M120.154 187.232H151.599V186.859H120.154V187.232Z" fill="#D09266"/>
<path d="M131.081 189.769H130.768V201.222H131.081V189.769Z" fill="#514960"/>
<path d="M140.11 189.769H139.797V201.222H140.11V189.769Z" fill="#514960"/>
<path d="M149.163 189.769H148.849V201.222H149.163V189.769Z" fill="#514960"/>
<path d="M122.043 189.089H121.729V201.222H122.043V189.089Z" fill="#514960"/>
<path d="M309.92 55.1294H253.565V201.222H309.92V55.1294Z" fill="#9B4C4C"/>
<path d="M308.162 59.0275H255.323V192.314H308.162V59.0275Z" fill="url(#paint48_linear_1195_1169)"/>
<path d="M311.408 56.4823H250.954V59.0274H311.408V56.4823Z" fill="#9B4C4C"/>
<path d="M311.408 64.3516H250.954V66.8966H311.408V64.3516Z" fill="#9B4C4C"/>
<path d="M311.408 72.2135H250.954V74.7586H311.408V72.2135Z" fill="#9B4C4C"/>
<path d="M311.408 80.0828H250.954V82.6278H311.408V80.0828Z" fill="#9B4C4C"/>
<path d="M311.408 87.9447H250.954V90.4898H311.408V87.9447Z" fill="#9B4C4C"/>
<path d="M311.408 95.8138H250.954V98.3589H311.408V95.8138Z" fill="#9B4C4C"/>
<path d="M311.408 103.676H250.954V106.221H311.408V103.676Z" fill="#9B4C4C"/>
<path d="M311.408 111.545H250.954V114.09H311.408V111.545Z" fill="#9B4C4C"/>
<path d="M311.408 119.407H250.954V121.952H311.408V119.407Z" fill="#9B4C4C"/>
<path d="M311.408 127.276H250.954V129.821H311.408V127.276Z" fill="#9B4C4C"/>
<path d="M311.408 135.145H250.954V137.69H311.408V135.145Z" fill="#9B4C4C"/>
<path d="M311.408 143.007H250.954V145.552H311.408V143.007Z" fill="#9B4C4C"/>
<path d="M311.408 150.877H250.954V153.422H311.408V150.877Z" fill="#9B4C4C"/>
<path d="M311.408 158.739H250.954V161.284H311.408V158.739Z" fill="#9B4C4C"/>
<path d="M311.408 166.608H250.954V169.153H311.408V166.608Z" fill="#9B4C4C"/>
<path d="M311.408 174.47H250.954V177.015H311.408V174.47Z" fill="#9B4C4C"/>
<path d="M311.408 182.339H250.954V184.884H311.408V182.339Z" fill="#9B4C4C"/>
<path d="M311.408 190.201H250.954V192.746H311.408V190.201Z" fill="#9B4C4C"/>
<path d="M267.453 55.1294H261.88V201.222H267.453V55.1294Z" fill="#B25B5B"/>
<path d="M267.934 55.1294H267.131V201.222H267.934V55.1294Z" fill="#7F3C3C"/>
<path d="M256.526 55.1294H250.954V201.222H256.526V55.1294Z" fill="#B25B5B"/>
<path d="M257.007 55.1294H256.205V201.222H257.007V55.1294Z" fill="#7F3C3C"/>
<path d="M278.38 55.1294H272.807V190.208H278.38V55.1294Z" fill="#B25B5B"/>
<path d="M278.869 55.1294H278.067V190.208H278.869V55.1294Z" fill="#7F3C3C"/>
<path d="M289.307 55.1294H283.734V190.208H289.307V55.1294Z" fill="#B25B5B"/>
<path d="M289.796 55.1294H288.994V190.208H289.796V55.1294Z" fill="#7F3C3C"/>
<path d="M311.168 55.1294H305.595V201.222H311.168V55.1294Z" fill="#B25B5B"/>
<path d="M327.915 55.1294H311.16V201.222H327.915V55.1294Z" fill="#7F3C3C"/>
<path d="M300.241 55.1294H294.668V201.222H300.241V55.1294Z" fill="#B25B5B"/>
<path d="M300.722 55.1294H299.92V201.222H300.722V55.1294Z" fill="#7F3C3C"/>
<path d="M257.79 55.1294H257.009V192.314H257.79V55.1294Z" fill="#9B4C4C"/>
<path d="M261.882 55.1294H261.101V192.314H261.882V55.1294Z" fill="#9B4C4C"/>
<path d="M268.715 55.1294H267.935V192.314H268.715V55.1294Z" fill="#9B4C4C"/>
<path d="M272.807 55.1294H272.027V192.314H272.807V55.1294Z" fill="#9B4C4C"/>
<path d="M279.642 55.1294H278.861V192.314H279.642V55.1294Z" fill="#9B4C4C"/>
<path d="M283.741 55.1294H282.96V192.314H283.741V55.1294Z" fill="#9B4C4C"/>
<path d="M290.569 55.1294H289.789V192.314H290.569V55.1294Z" fill="#9B4C4C"/>
<path d="M294.668 55.1294H293.888V192.314H294.668V55.1294Z" fill="#9B4C4C"/>
<path d="M301.502 55.1294H300.722V192.314H301.502V55.1294Z" fill="#9B4C4C"/>
<path d="M305.594 55.1294H304.814V192.314H305.594V55.1294Z" fill="#9B4C4C"/>
<path d="M312.779 53.0962H250.159V56.4823H312.779V53.0962Z" fill="#E0AA8C"/>
<path d="M329.731 53.0962H312.772V56.4823H329.731V53.0962Z" fill="#C17F5F"/>
<path d="M307.717 47.3479H287.695V53.0962H307.717V47.3479Z" fill="#D6A870"/>
<path d="M313.692 47.3479H307.725V53.0962H313.692V47.3479Z" fill="#B78B5A"/>
<g style="mix-blend-mode:multiply" opacity="0.3">
<path d="M313.684 48.145H287.695V48.7667H313.684V48.145Z" fill="#B78B5A"/>
</g>
<g style="mix-blend-mode:multiply" opacity="0.3">
<path d="M313.684 49.9149H287.695V50.5366H313.684V49.9149Z" fill="#B78B5A"/>
</g>
<g style="mix-blend-mode:multiply" opacity="0.3">
<path d="M313.684 51.6848H287.695V52.3065H313.684V51.6848Z" fill="#B78B5A"/>
</g>
<path d="M276.352 50.7778H273.901V53.0962H276.352V50.7778Z" fill="#B26A4D"/>
<path d="M277.585 50.7778H276.359V53.0962H277.585V50.7778Z" fill="#9B563E"/>
<path d="M304.362 50.7778H301.911V53.0962H304.362V50.7778Z" fill="#B26A4D"/>
<path d="M305.594 50.7778H304.369V53.0962H305.594V50.7778Z" fill="#9B563E"/>
<path d="M291.707 187.349H270.889V200.703H291.707V187.349Z" fill="url(#paint49_linear_1195_1169)"/>
<path d="M293.457 184.65H268.285V186.968H293.457V184.65Z" fill="#D09266"/>
<path d="M294.215 184.65H293.457V186.968H294.215V184.65Z" fill="#A3714F"/>
<path d="M293.676 186.968H268.716V187.729H293.676V186.968Z" fill="#B7A69A"/>
<path d="M293.676 200.454H268.716V201.215H293.676V200.454Z" fill="#B7A69A"/>
<path d="M271.311 186.968H270.465V201.222H271.311V186.968Z" fill="#B7A69A"/>
<path d="M270.044 186.968H268.716V201.222H270.044V186.968Z" fill="#C4B7AE"/>
<path d="M270.474 186.968H270.043V201.222H270.474V186.968Z" fill="#91837A"/>
<path d="M277.17 186.968H276.324V201.222H277.17V186.968Z" fill="#B7A69A"/>
<path d="M274.566 186.968H273.719V201.222H274.566V186.968Z" fill="#B7A69A"/>
<path d="M280.423 186.968H279.576V201.222H280.423V186.968Z" fill="#B7A69A"/>
<path d="M286.273 186.968H285.427V201.222H286.273V186.968Z" fill="#B7A69A"/>
<path d="M292.13 186.968H291.283V201.222H292.13V186.968Z" fill="#B7A69A"/>
<path d="M275.893 186.968H274.566V201.222H275.893V186.968Z" fill="#C4B7AE"/>
<path d="M276.323 186.968H275.893V201.222H276.323V186.968Z" fill="#91837A"/>
<path d="M283.027 186.968H282.181V201.222H283.027V186.968Z" fill="#B7A69A"/>
<path d="M281.751 186.968H280.423V201.222H281.751V186.968Z" fill="#C4B7AE"/>
<path d="M282.181 186.968H281.75V201.222H282.181V186.968Z" fill="#91837A"/>
<path d="M288.877 186.968H288.031V201.222H288.877V186.968Z" fill="#B7A69A"/>
<path d="M287.607 186.968H286.28V201.222H287.607V186.968Z" fill="#C4B7AE"/>
<path d="M288.037 186.968H287.607V201.222H288.037V186.968Z" fill="#91837A"/>
<path d="M293.458 186.968H292.13V201.222H293.458V186.968Z" fill="#C4B7AE"/>
<path d="M293.888 186.968H293.457V201.222H293.888V186.968Z" fill="#91837A"/>
<path d="M240.376 95.4994H191.177V201.222H240.376V95.4994Z" fill="#A16972"/>
<path d="M192.774 95.4994H176.931V201.222H192.774V95.4994Z" fill="#48272B"/>
<path d="M235.642 98.9733H195.903V184.891H235.642V98.9733Z" fill="url(#paint50_linear_1195_1169)"/>
<path d="M237.844 104.773H194.167V106.857H237.844V104.773Z" fill="#A16972"/>
<path d="M237.844 112.657H194.167V114.741H237.844V112.657Z" fill="#A16972"/>
<path d="M237.844 120.533H194.167V122.618H237.844V120.533Z" fill="#A16972"/>
<path d="M237.844 128.41H194.167V130.494H237.844V128.41Z" fill="#A16972"/>
<path d="M237.844 136.294H194.167V138.378H237.844V136.294Z" fill="#A16972"/>
<path d="M237.844 144.17H194.167V146.254H237.844V144.17Z" fill="#A16972"/>
<path d="M237.844 152.054H194.167V154.138H237.844V152.054Z" fill="#A16972"/>
<path d="M237.844 159.931H194.167V162.015H237.844V159.931Z" fill="#A16972"/>
<path d="M237.844 167.814H194.167V169.899H237.844V167.814Z" fill="#A16972"/>
<path d="M237.844 175.691H194.167V177.775H237.844V175.691Z" fill="#A16972"/>
<path d="M237.844 183.575H194.167V185.659H237.844V183.575Z" fill="#A16972"/>
<path d="M203.118 97.9493H201.856V189.572H203.118V97.9493Z" fill="#A16972"/>
<path d="M209.872 97.9493H208.61V189.572H209.872V97.9493Z" fill="#A16972"/>
<path d="M216.634 97.9493H215.372V189.572H216.634V97.9493Z" fill="#A16972"/>
<path d="M223.388 97.9493H222.126V189.572H223.388V97.9493Z" fill="#A16972"/>
<path d="M230.15 97.9493H228.888V189.572H230.15V97.9493Z" fill="#A16972"/>
<path d="M201.855 98.9733H201.374V104.773H201.855V98.9733Z" fill="#634247"/>
<path d="M208.61 98.9733H208.128V104.773H208.61V98.9733Z" fill="#634247"/>
<path d="M215.371 98.9733H214.89V104.773H215.371V98.9733Z" fill="#634247"/>
<path d="M222.126 98.9733H221.644V104.773H222.126V98.9733Z" fill="#634247"/>
<path d="M228.88 98.9733H228.399V104.773H228.88V98.9733Z" fill="#634247"/>
<path d="M235.642 98.9733H235.16V104.773H235.642V98.9733Z" fill="#634247"/>
<path d="M201.855 106.857H201.374V112.657H201.855V106.857Z" fill="#634247"/>
<path d="M208.61 106.857H208.128V112.657H208.61V106.857Z" fill="#634247"/>
<path d="M215.371 106.857H214.89V112.657H215.371V106.857Z" fill="#634247"/>
<path d="M222.126 106.857H221.644V112.657H222.126V106.857Z" fill="#634247"/>
<path d="M228.88 106.857H228.399V112.657H228.88V106.857Z" fill="#634247"/>
<path d="M235.642 106.857H235.16V112.657H235.642V106.857Z" fill="#634247"/>
<path d="M201.855 114.734H201.374V120.533H201.855V114.734Z" fill="#634247"/>
<path d="M208.61 114.734H208.128V120.533H208.61V114.734Z" fill="#634247"/>
<path d="M215.371 114.734H214.89V120.533H215.371V114.734Z" fill="#634247"/>
<path d="M222.126 114.734H221.644V120.533H222.126V114.734Z" fill="#634247"/>
<path d="M228.88 114.734H228.399V120.533H228.88V114.734Z" fill="#634247"/>
<path d="M235.642 114.734H235.16V120.533H235.642V114.734Z" fill="#634247"/>
<path d="M201.855 122.618H201.374V128.417H201.855V122.618Z" fill="#634247"/>
<path d="M208.61 122.618H208.128V128.417H208.61V122.618Z" fill="#634247"/>
<path d="M215.371 122.618H214.89V128.417H215.371V122.618Z" fill="#634247"/>
<path d="M222.126 122.618H221.644V128.417H222.126V122.618Z" fill="#634247"/>
<path d="M228.88 122.618H228.399V128.417H228.88V122.618Z" fill="#634247"/>
<path d="M235.642 122.618H235.16V128.417H235.642V122.618Z" fill="#634247"/>
<path d="M201.855 130.494H201.374V136.294H201.855V130.494Z" fill="#634247"/>
<path d="M208.61 130.494H208.128V136.294H208.61V130.494Z" fill="#634247"/>
<path d="M215.371 130.494H214.89V136.294H215.371V130.494Z" fill="#634247"/>
<path d="M222.126 130.494H221.644V136.294H222.126V130.494Z" fill="#634247"/>
<path d="M228.88 130.494H228.399V136.294H228.88V130.494Z" fill="#634247"/>
<path d="M235.642 130.494H235.16V136.294H235.642V130.494Z" fill="#634247"/>
<path d="M201.855 138.378H201.374V144.177H201.855V138.378Z" fill="#634247"/>
<path d="M208.61 138.378H208.128V144.177H208.61V138.378Z" fill="#634247"/>
<path d="M215.371 138.378H214.89V144.177H215.371V138.378Z" fill="#634247"/>
<path d="M222.126 138.378H221.644V144.177H222.126V138.378Z" fill="#634247"/>
<path d="M228.88 138.378H228.399V144.177H228.88V138.378Z" fill="#634247"/>
<path d="M235.642 138.378H235.16V144.177H235.642V138.378Z" fill="#634247"/>
<path d="M201.855 146.255H201.374V152.054H201.855V146.255Z" fill="#634247"/>
<path d="M208.61 146.255H208.128V152.054H208.61V146.255Z" fill="#634247"/>
<path d="M215.371 146.255H214.89V152.054H215.371V146.255Z" fill="#634247"/>
<path d="M222.126 146.255H221.644V152.054H222.126V146.255Z" fill="#634247"/>
<path d="M228.88 146.255H228.399V152.054H228.88V146.255Z" fill="#634247"/>
<path d="M235.642 146.255H235.16V152.054H235.642V146.255Z" fill="#634247"/>
<path d="M201.855 154.138H201.374V159.938H201.855V154.138Z" fill="#634247"/>
<path d="M208.61 154.138H208.128V159.938H208.61V154.138Z" fill="#634247"/>
<path d="M215.371 154.138H214.89V159.938H215.371V154.138Z" fill="#634247"/>
<path d="M222.126 154.138H221.644V159.938H222.126V154.138Z" fill="#634247"/>
<path d="M228.88 154.138H228.399V159.938H228.88V154.138Z" fill="#634247"/>
<path d="M235.642 154.138H235.16V159.938H235.642V154.138Z" fill="#634247"/>
<path d="M201.855 162.015H201.374V167.814H201.855V162.015Z" fill="#634247"/>
<path d="M208.61 162.015H208.128V167.814H208.61V162.015Z" fill="#634247"/>
<path d="M215.371 162.015H214.89V167.814H215.371V162.015Z" fill="#634247"/>
<path d="M222.126 162.015H221.644V167.814H222.126V162.015Z" fill="#634247"/>
<path d="M228.88 162.015H228.399V167.814H228.88V162.015Z" fill="#634247"/>
<path d="M235.642 162.015H235.16V167.814H235.642V162.015Z" fill="#634247"/>
<path d="M201.855 169.891H201.374V175.691H201.855V169.891Z" fill="#634247"/>
<path d="M208.61 169.891H208.128V175.691H208.61V169.891Z" fill="#634247"/>
<path d="M215.371 169.891H214.89V175.691H215.371V169.891Z" fill="#634247"/>
<path d="M222.126 169.891H221.644V175.691H222.126V169.891Z" fill="#634247"/>
<path d="M228.88 169.891H228.399V175.691H228.88V169.891Z" fill="#634247"/>
<path d="M235.642 169.891H235.16V175.691H235.642V169.891Z" fill="#634247"/>
<path d="M201.855 177.775H201.374V183.575H201.855V177.775Z" fill="#634247"/>
<path d="M208.61 177.775H208.128V183.575H208.61V177.775Z" fill="#634247"/>
<path d="M215.371 177.775H214.89V183.575H215.371V177.775Z" fill="#634247"/>
<path d="M222.126 177.775H221.644V183.575H222.126V177.775Z" fill="#634247"/>
<path d="M228.88 177.775H228.399V183.575H228.88V177.775Z" fill="#634247"/>
<path d="M235.642 177.775H235.16V183.575H235.642V177.775Z" fill="#634247"/>
<path d="M193.117 96.9182H177.281C176.501 96.9182 175.859 96.2819 175.859 95.4921H194.532C194.532 96.2746 193.897 96.9182 193.11 96.9182H193.117Z" fill="#48272B"/>
<path d="M240.376 96.9182H192.912C192.132 96.9182 191.49 96.2819 191.49 95.4921H241.791C241.791 96.2746 241.156 96.9182 240.368 96.9182H240.376Z" fill="#AA7781"/>
<path d="M229.304 189.85H203.956V201.222H229.304V189.85Z" fill="url(#paint51_linear_1195_1169)"/>
<path d="M204.584 189.85H203.956V201.222H204.584V189.85Z" fill="#BA979F"/>
<path d="M212.826 189.85H212.199V201.222H212.826V189.85Z" fill="#BA979F"/>
<path d="M221.061 189.85H220.434V201.222H221.061V189.85Z" fill="#BA979F"/>
<path d="M229.303 189.85H228.676V201.222H229.303V189.85Z" fill="#BA979F"/>
<path d="M229.588 189.023H203.672V190.128H229.588V189.023Z" fill="#634247"/>
<path d="M234.023 189.023H208.107V190.128H234.023V189.023Z" fill="#BA979F"/>
<path d="M229.304 185.652H203.956V188.387H229.304V185.652Z" fill="#E59876"/>
<path d="M203.956 190.128H203.672V201.222H203.956V190.128Z" fill="#634247"/>
<path d="M212.191 190.128H211.907V201.222H212.191V190.128Z" fill="#634247"/>
<path d="M220.434 190.128H220.149V201.222H220.434V190.128Z" fill="#634247"/>
<path d="M228.676 190.128H228.392V201.222H228.676V190.128Z" fill="#634247"/>
<path d="M370.519 101.57H324.763V202.268H370.519V101.57Z" fill="#E59876"/>
<path d="M368.594 105.672H326.681V192.709H368.594V105.672Z" fill="url(#paint52_linear_1195_1169)"/>
<path d="M368.594 113.381H326.681V114.127H368.594V113.381Z" fill="#7E7790"/>
<path d="M368.594 122.076H326.681V122.822H368.594V122.076Z" fill="#7E7790"/>
<path d="M368.594 130.779H326.681V131.525H368.594V130.779Z" fill="#7E7790"/>
<path d="M368.594 139.482H326.681V140.228H368.594V139.482Z" fill="#7E7790"/>
<path d="M368.594 148.185H326.681V148.931H368.594V148.185Z" fill="#7E7790"/>
<path d="M368.594 156.888H326.681V157.634H368.594V156.888Z" fill="#7E7790"/>
<path d="M368.594 165.591H326.681V166.337H368.594V165.591Z" fill="#7E7790"/>
<path d="M368.594 174.294H326.681V175.04H368.594V174.294Z" fill="#7E7790"/>
<path d="M368.594 182.997H326.681V183.743H368.594V182.997Z" fill="#7E7790"/>
<path d="M332.203 104.429H330.715V196.629H332.203V104.429Z" fill="#E59876"/>
<path d="M332.633 105.672H332.203V192.709H332.633V105.672Z" fill="#7E484F"/>
<path d="M338.585 104.429H337.097V186.939H338.585V104.429Z" fill="#E59876"/>
<path d="M339.016 105.672H338.585V186.939H339.016V105.672Z" fill="#7E484F"/>
<path d="M344.976 104.429H343.488V187.349H344.976V104.429Z" fill="#E59876"/>
<path d="M345.406 105.672H344.975V187.349H345.406V105.672Z" fill="#7E484F"/>
<path d="M351.357 104.429H349.869V187.349H351.357V104.429Z" fill="#E59876"/>
<path d="M351.788 105.672H351.357V187.349H351.788V105.672Z" fill="#7E484F"/>
<path d="M357.741 104.429H356.253V186.939H357.741V104.429Z" fill="#E59876"/>
<path d="M358.171 105.672H357.741V186.939H358.171V105.672Z" fill="#7E484F"/>
<path d="M364.13 104.429H362.642V202.268H364.13V104.429Z" fill="#E59876"/>
<path d="M364.567 105.672H364.129V192.709H364.567V105.672Z" fill="#7E484F"/>
<path d="M386.529 101.57H370.511V202.268H386.529V101.57Z" fill="#A55B41"/>
<path d="M358.243 185.762H337.039V188.109H358.243V185.762Z" fill="#E59876"/>
<path d="M357.799 188.116H337.572V201.61H357.799V188.116Z" fill="url(#paint53_linear_1195_1169)"/>
<path d="M338.287 188.116H337.572V201.61H338.287V188.116Z" fill="#574A60"/>
<path d="M347.623 188.116H346.908V201.61H347.623V188.116Z" fill="#574A60"/>
<path d="M357.798 188.833V188.116H337.572V188.833H357.798Z" fill="#574A60"/>
<path d="M357.798 188.116H357.083V201.61H357.798V188.116Z" fill="#574A60"/>
<path d="M358.834 185.762H358.251V188.109H358.834V185.762Z" fill="#7E484F"/>
<path d="M359.585 185.762H359.002V186.157H359.585V185.762Z" fill="#392840"/>
<path d="M347.141 193.858H346.675V195.328H347.141V193.858Z" fill="#7E7790"/>
<path d="M359.001 185.762H336.426V186.157H359.001V185.762Z" fill="#7E7790"/>
<path d="M373.488 94.1099H356.996V101.57H373.488V94.1099Z" fill="#EAAE96"/>
<path d="M378.885 94.1099H373.334V101.57H378.885V94.1099Z" fill="#AF6751"/>
<path d="M363.67 98.9586H350.613V101.57H363.67V98.9586Z" fill="#7E7790"/>
<path d="M367.937 98.9586H363.546V101.57H367.937V98.9586Z" fill="#585666"/>
<path d="M338.585 188.833H338.286V201.61H338.585V188.833Z" fill="#392840"/>
<path d="M347.907 188.833H347.608V201.61H347.907V188.833Z" fill="#392840"/>
<path d="M348.767 188.833H348.468V201.61H348.767V188.833Z" fill="#392840"/>
<path d="M358.097 188.116H357.798V201.61H358.097V188.116Z" fill="#392840"/>
<path d="M348.469 188.116H347.754V201.61H348.469V188.116Z" fill="#574A60"/>
<path d="M348.709 193.858H348.242V195.328H348.709V193.858Z" fill="#7E7790"/>
<path d="M80.8895 202.122H81.5752V195.54H80.8895V202.122Z" fill="#A87756"/>
<path d="M80.6781 202.122H80.8896V195.54H80.6781V202.122Z" fill="#845B40"/>
<path d="M76.0752 191.342C76.0752 194.143 78.3364 196.41 81.1301 196.41C83.9237 196.41 86.1849 194.143 86.1849 191.342C86.1849 188.541 83.9237 178.689 81.1301 178.689C78.3364 178.689 76.0752 188.541 76.0752 191.342Z" fill="#637F39"/>
<g style="mix-blend-mode:multiply" opacity="0.25">
<path d="M81.1301 178.697C81.2322 178.697 81.3343 178.711 81.4364 178.741C79.3211 181.139 77.7747 188.27 77.7747 190.588C77.7747 193.389 80.0359 195.657 82.8296 195.657C83.2308 195.657 83.6247 195.605 84.004 195.518C83.187 196.081 82.2023 196.417 81.1301 196.417C78.3364 196.417 76.0752 194.15 76.0752 191.349C76.0752 188.548 78.3364 178.697 81.1301 178.697Z" fill="#637F39"/>
</g>
<path d="M255.564 195.532H254.878V202.114H255.564V195.532Z" fill="#A87756"/>
<path d="M255.775 195.532H255.563V202.114H255.775V195.532Z" fill="#845B40"/>
<path d="M260.379 191.342C260.379 194.143 258.118 196.41 255.324 196.41C252.53 196.41 250.269 194.143 250.269 191.342C250.269 188.541 252.53 178.689 255.324 178.689C258.118 178.689 260.379 188.541 260.379 191.342Z" fill="#637F39"/>
<g style="mix-blend-mode:multiply" opacity="0.25">
<path d="M255.323 178.697C255.221 178.697 255.119 178.711 255.017 178.741C257.132 181.139 258.679 188.27 258.679 190.588C258.679 193.389 256.417 195.657 253.624 195.657C253.223 195.657 252.829 195.605 252.449 195.518C253.266 196.081 254.251 196.417 255.323 196.417C258.117 196.417 260.378 194.15 260.378 191.349C260.378 188.548 258.117 178.697 255.323 178.697Z" fill="#637F39"/>
</g>
<path d="M323.268 195.532H322.582V202.114H323.268V195.532Z" fill="#A87756"/>
<path d="M323.479 195.532H323.268V202.114H323.479V195.532Z" fill="#845B40"/>
<path d="M328.082 191.342C328.082 194.143 325.821 196.41 323.027 196.41C320.234 196.41 317.972 194.143 317.972 191.342C317.972 188.541 320.234 178.689 323.027 178.689C325.821 178.689 328.082 188.541 328.082 191.342Z" fill="#637F39"/>
<g style="mix-blend-mode:multiply" opacity="0.25">
<path d="M323.027 178.697C322.925 178.697 322.822 178.711 322.72 178.741C324.836 181.139 326.382 188.27 326.382 190.588C326.382 193.389 324.121 195.657 321.327 195.657C320.926 195.657 320.532 195.605 320.153 195.518C320.97 196.081 321.954 196.417 323.027 196.417C325.82 196.417 328.082 194.15 328.082 191.349C328.082 188.548 325.82 178.697 323.027 178.697Z" fill="#637F39"/>
</g>
<defs>
<linearGradient id="paint0_linear_1195_1169" x1="122.401" y1="142.671" x2="244.637" y2="72.2804" gradientUnits="userSpaceOnUse">
<stop stop-color="#FEC89A"/>
<stop offset="0.5" stop-color="#FFE8CD"/>
<stop offset="0.97" stop-color="#FFD3AA"/>
</linearGradient>
<linearGradient id="paint1_linear_1195_1169" x1="173.345" y1="201.822" x2="192.897" y2="190.56" gradientUnits="userSpaceOnUse">
<stop stop-color="#D19679"/>
<stop offset="0.5" stop-color="#DBBDAC"/>
<stop offset="1" stop-color="#D19679"/>
</linearGradient>
<linearGradient id="paint2_linear_1195_1169" x1="88.1622" y1="144.47" x2="95.4586" y2="140.267" gradientUnits="userSpaceOnUse">
<stop stop-color="#F7B08E"/>
<stop offset="1" stop-color="#F1DDCD"/>
</linearGradient>
<linearGradient id="paint3_linear_1195_1169" x1="87.7615" y1="144.777" x2="95.8175" y2="140.137" gradientUnits="userSpaceOnUse">
<stop stop-color="#F7B08E"/>
<stop offset="1" stop-color="#F1DDCD"/>
</linearGradient>
<linearGradient id="paint4_linear_1195_1169" x1="99.0738" y1="144.47" x2="106.37" y2="140.267" gradientUnits="userSpaceOnUse">
<stop stop-color="#F7B08E"/>
<stop offset="1" stop-color="#F1DDCD"/>
</linearGradient>
<linearGradient id="paint5_linear_1195_1169" x1="98.6731" y1="144.777" x2="106.729" y2="140.137" gradientUnits="userSpaceOnUse">
<stop stop-color="#F7B08E"/>
<stop offset="1" stop-color="#F1DDCD"/>
</linearGradient>
<linearGradient id="paint6_linear_1195_1169" x1="109.978" y1="144.47" x2="117.275" y2="140.267" gradientUnits="userSpaceOnUse">
<stop stop-color="#F7B08E"/>
<stop offset="1" stop-color="#F1DDCD"/>
</linearGradient>
<linearGradient id="paint7_linear_1195_1169" x1="109.585" y1="144.777" x2="117.641" y2="140.137" gradientUnits="userSpaceOnUse">
<stop stop-color="#F7B08E"/>
<stop offset="1" stop-color="#F1DDCD"/>
</linearGradient>
<linearGradient id="paint8_linear_1195_1169" x1="120.891" y1="144.47" x2="128.187" y2="140.267" gradientUnits="userSpaceOnUse">
<stop stop-color="#F7B08E"/>
<stop offset="1" stop-color="#F1DDCD"/>
</linearGradient>
<linearGradient id="paint9_linear_1195_1169" x1="120.49" y1="144.777" x2="128.546" y2="140.137" gradientUnits="userSpaceOnUse">
<stop stop-color="#F7B08E"/>
<stop offset="1" stop-color="#F1DDCD"/>
</linearGradient>
<linearGradient id="paint10_linear_1195_1169" x1="131.803" y1="144.47" x2="139.099" y2="140.267" gradientUnits="userSpaceOnUse">
<stop stop-color="#F7B08E"/>
<stop offset="1" stop-color="#F1DDCD"/>
</linearGradient>
<linearGradient id="paint11_linear_1195_1169" x1="131.402" y1="144.777" x2="139.458" y2="140.137" gradientUnits="userSpaceOnUse">
<stop stop-color="#F7B08E"/>
<stop offset="1" stop-color="#F1DDCD"/>
</linearGradient>
<linearGradient id="paint12_linear_1195_1169" x1="142.714" y1="144.47" x2="150.003" y2="140.267" gradientUnits="userSpaceOnUse">
<stop stop-color="#F7B08E"/>
<stop offset="1" stop-color="#F1DDCD"/>
</linearGradient>
<linearGradient id="paint13_linear_1195_1169" x1="142.313" y1="144.777" x2="150.37" y2="140.137" gradientUnits="userSpaceOnUse">
<stop stop-color="#F7B08E"/>
<stop offset="1" stop-color="#F1DDCD"/>
</linearGradient>
<linearGradient id="paint14_linear_1195_1169" x1="153.62" y1="0.841913" x2="160.945" y2="140.248" gradientUnits="userSpaceOnUse">
<stop stop-color="#F7B08E"/>
<stop offset="1" stop-color="#F1DDCD"/>
</linearGradient>
<linearGradient id="paint15_linear_1195_1169" x1="153.219" y1="144.777" x2="161.275" y2="140.137" gradientUnits="userSpaceOnUse">
<stop stop-color="#F7B08E"/>
<stop offset="1" stop-color="#F1DDCD"/>
</linearGradient>
<linearGradient id="paint16_linear_1195_1169" x1="88.1622" y1="161.642" x2="95.4586" y2="157.439" gradientUnits="userSpaceOnUse">
<stop stop-color="#F7B08E"/>
<stop offset="1" stop-color="#F1DDCD"/>
</linearGradient>
<linearGradient id="paint17_linear_1195_1169" x1="87.7615" y1="161.949" x2="95.8175" y2="157.309" gradientUnits="userSpaceOnUse">
<stop stop-color="#F7B08E"/>
<stop offset="1" stop-color="#F1DDCD"/>
</linearGradient>
<linearGradient id="paint18_linear_1195_1169" x1="99.0738" y1="161.642" x2="106.37" y2="157.439" gradientUnits="userSpaceOnUse">
<stop stop-color="#F7B08E"/>
<stop offset="1" stop-color="#F1DDCD"/>
</linearGradient>
<linearGradient id="paint19_linear_1195_1169" x1="98.6731" y1="161.949" x2="106.729" y2="157.309" gradientUnits="userSpaceOnUse">
<stop stop-color="#F7B08E"/>
<stop offset="1" stop-color="#F1DDCD"/>
</linearGradient>
<linearGradient id="paint20_linear_1195_1169" x1="109.978" y1="161.642" x2="117.275" y2="157.439" gradientUnits="userSpaceOnUse">
<stop stop-color="#F7B08E"/>
<stop offset="1" stop-color="#F1DDCD"/>
</linearGradient>
<linearGradient id="paint21_linear_1195_1169" x1="109.585" y1="161.949" x2="117.641" y2="157.309" gradientUnits="userSpaceOnUse">
<stop stop-color="#F7B08E"/>
<stop offset="1" stop-color="#F1DDCD"/>
</linearGradient>
<linearGradient id="paint22_linear_1195_1169" x1="120.891" y1="161.642" x2="128.187" y2="157.439" gradientUnits="userSpaceOnUse">
<stop stop-color="#F7B08E"/>
<stop offset="1" stop-color="#F1DDCD"/>
</linearGradient>
<linearGradient id="paint23_linear_1195_1169" x1="120.49" y1="161.949" x2="128.546" y2="157.309" gradientUnits="userSpaceOnUse">
<stop stop-color="#F7B08E"/>
<stop offset="1" stop-color="#F1DDCD"/>
</linearGradient>
<linearGradient id="paint24_linear_1195_1169" x1="131.803" y1="161.642" x2="139.099" y2="157.439" gradientUnits="userSpaceOnUse">
<stop stop-color="#F7B08E"/>
<stop offset="1" stop-color="#F1DDCD"/>
</linearGradient>
<linearGradient id="paint25_linear_1195_1169" x1="131.402" y1="161.949" x2="139.458" y2="157.309" gradientUnits="userSpaceOnUse">
<stop stop-color="#F7B08E"/>
<stop offset="1" stop-color="#F1DDCD"/>
</linearGradient>
<linearGradient id="paint26_linear_1195_1169" x1="142.714" y1="161.642" x2="150.003" y2="157.439" gradientUnits="userSpaceOnUse">
<stop stop-color="#F7B08E"/>
<stop offset="1" stop-color="#F1DDCD"/>
</linearGradient>
<linearGradient id="paint27_linear_1195_1169" x1="142.313" y1="161.949" x2="150.37" y2="157.309" gradientUnits="userSpaceOnUse">
<stop stop-color="#F7B08E"/>
<stop offset="1" stop-color="#F1DDCD"/>
</linearGradient>
<linearGradient id="paint28_linear_1195_1169" x1="153.62" y1="161.642" x2="160.916" y2="157.439" gradientUnits="userSpaceOnUse">
<stop stop-color="#F7B08E"/>
<stop offset="1" stop-color="#F1DDCD"/>
</linearGradient>
<linearGradient id="paint29_linear_1195_1169" x1="153.219" y1="161.949" x2="161.275" y2="157.309" gradientUnits="userSpaceOnUse">
<stop stop-color="#F7B08E"/>
<stop offset="1" stop-color="#F1DDCD"/>
</linearGradient>
<linearGradient id="paint30_linear_1195_1169" x1="88.1622" y1="178.814" x2="95.4586" y2="174.611" gradientUnits="userSpaceOnUse">
<stop stop-color="#F7B08E"/>
<stop offset="1" stop-color="#F1DDCD"/>
</linearGradient>
<linearGradient id="paint31_linear_1195_1169" x1="87.7615" y1="179.121" x2="95.8175" y2="174.481" gradientUnits="userSpaceOnUse">
<stop stop-color="#F7B08E"/>
<stop offset="1" stop-color="#F1DDCD"/>
</linearGradient>
<linearGradient id="paint32_linear_1195_1169" x1="99.0738" y1="178.814" x2="106.37" y2="174.611" gradientUnits="userSpaceOnUse">
<stop stop-color="#F7B08E"/>
<stop offset="1" stop-color="#F1DDCD"/>
</linearGradient>
<linearGradient id="paint33_linear_1195_1169" x1="98.6731" y1="179.121" x2="106.729" y2="174.481" gradientUnits="userSpaceOnUse">
<stop stop-color="#F7B08E"/>
<stop offset="1" stop-color="#F1DDCD"/>
</linearGradient>
<linearGradient id="paint34_linear_1195_1169" x1="109.978" y1="178.814" x2="117.275" y2="174.611" gradientUnits="userSpaceOnUse">
<stop stop-color="#F7B08E"/>
<stop offset="1" stop-color="#F1DDCD"/>
</linearGradient>
<linearGradient id="paint35_linear_1195_1169" x1="109.585" y1="179.121" x2="117.641" y2="174.481" gradientUnits="userSpaceOnUse">
<stop stop-color="#F7B08E"/>
<stop offset="1" stop-color="#F1DDCD"/>
</linearGradient>
<linearGradient id="paint36_linear_1195_1169" x1="120.891" y1="178.814" x2="128.187" y2="174.611" gradientUnits="userSpaceOnUse">
<stop stop-color="#F7B08E"/>
<stop offset="1" stop-color="#F1DDCD"/>
</linearGradient>
<linearGradient id="paint37_linear_1195_1169" x1="120.49" y1="179.121" x2="128.546" y2="174.481" gradientUnits="userSpaceOnUse">
<stop stop-color="#F7B08E"/>
<stop offset="1" stop-color="#F1DDCD"/>
</linearGradient>
<linearGradient id="paint38_linear_1195_1169" x1="131.803" y1="178.814" x2="139.099" y2="174.611" gradientUnits="userSpaceOnUse">
<stop stop-color="#F7B08E"/>
<stop offset="1" stop-color="#F1DDCD"/>
</linearGradient>
<linearGradient id="paint39_linear_1195_1169" x1="131.402" y1="179.121" x2="139.458" y2="174.481" gradientUnits="userSpaceOnUse">
<stop stop-color="#F7B08E"/>
<stop offset="1" stop-color="#F1DDCD"/>
</linearGradient>
<linearGradient id="paint40_linear_1195_1169" x1="142.714" y1="178.814" x2="150.003" y2="174.611" gradientUnits="userSpaceOnUse">
<stop stop-color="#F7B08E"/>
<stop offset="1" stop-color="#F1DDCD"/>
</linearGradient>
<linearGradient id="paint41_linear_1195_1169" x1="142.313" y1="179.121" x2="150.37" y2="174.481" gradientUnits="userSpaceOnUse">
<stop stop-color="#F7B08E"/>
<stop offset="1" stop-color="#F1DDCD"/>
</linearGradient>
<linearGradient id="paint42_linear_1195_1169" x1="153.62" y1="178.814" x2="160.916" y2="174.611" gradientUnits="userSpaceOnUse">
<stop stop-color="#F7B08E"/>
<stop offset="1" stop-color="#F1DDCD"/>
</linearGradient>
<linearGradient id="paint43_linear_1195_1169" x1="153.219" y1="179.121" x2="161.275" y2="174.481" gradientUnits="userSpaceOnUse">
<stop stop-color="#F7B08E"/>
<stop offset="1" stop-color="#F1DDCD"/>
</linearGradient>
<linearGradient id="paint44_linear_1195_1169" x1="89.3512" y1="193.448" x2="94.9678" y2="190.214" gradientUnits="userSpaceOnUse">
<stop stop-color="#F7B08E"/>
<stop offset="1" stop-color="#F1DDCD"/>
</linearGradient>
<linearGradient id="paint45_linear_1195_1169" x1="99.9413" y1="193.448" x2="105.551" y2="190.214" gradientUnits="userSpaceOnUse">
<stop stop-color="#F7B08E"/>
<stop offset="1" stop-color="#F1DDCD"/>
</linearGradient>
<linearGradient id="paint46_linear_1195_1169" x1="110.526" y1="193.448" x2="116.142" y2="190.214" gradientUnits="userSpaceOnUse">
<stop stop-color="#F7B08E"/>
<stop offset="1" stop-color="#F1DDCD"/>
</linearGradient>
<linearGradient id="paint47_linear_1195_1169" x1="148.987" y1="202.707" x2="122.862" y2="187.664" gradientUnits="userSpaceOnUse">
<stop stop-color="#BB816A"/>
<stop offset="0.53" stop-color="#DEBF9B"/>
<stop offset="1" stop-color="#BB816A"/>
</linearGradient>
<linearGradient id="paint48_linear_1195_1169" x1="233.149" y1="153.802" x2="330.464" y2="97.7619" gradientUnits="userSpaceOnUse">
<stop stop-color="#DB9079"/>
<stop offset="0.5" stop-color="#F1E0CD"/>
<stop offset="1" stop-color="#F2AB9A"/>
</linearGradient>
<linearGradient id="paint49_linear_1195_1169" x1="270.612" y1="200.213" x2="292.012" y2="187.887" gradientUnits="userSpaceOnUse">
<stop stop-color="#7C4B58"/>
<stop offset="0.55" stop-color="#A87163"/>
<stop offset="1" stop-color="#7C4B58"/>
</linearGradient>
<linearGradient id="paint50_linear_1195_1169" x1="182.322" y1="161.298" x2="249.319" y2="122.719" gradientUnits="userSpaceOnUse">
<stop stop-color="#F7B09A"/>
<stop offset="0.5" stop-color="#F1DDCD"/>
<stop offset="1" stop-color="#F7B08E"/>
</linearGradient>
<linearGradient id="paint51_linear_1195_1169" x1="204.671" y1="202.458" x2="228.627" y2="188.668" gradientUnits="userSpaceOnUse">
<stop stop-color="#745257"/>
<stop offset="0.23" stop-color="#835B76"/>
<stop offset="0.5" stop-color="#997B89"/>
<stop offset="0.73" stop-color="#835B76"/>
<stop offset="1" stop-color="#745257"/>
</linearGradient>
<linearGradient id="paint52_linear_1195_1169" x1="313.129" y1="169.167" x2="382.237" y2="129.372" gradientUnits="userSpaceOnUse">
<stop stop-color="#F7C39A"/>
<stop offset="0.5" stop-color="#F1E5CD"/>
<stop offset="1" stop-color="#F7C38E"/>
</linearGradient>
<linearGradient id="paint53_linear_1195_1169" x1="337.185" y1="200.937" x2="358.213" y2="188.83" gradientUnits="userSpaceOnUse">
<stop stop-color="#BB816A"/>
<stop offset="0.53" stop-color="#DEBF9B"/>
<stop offset="1" stop-color="#BB816A"/>
</linearGradient>
</defs>
</svg>
