<svg width="40" height="40" viewBox="0 0 40 40" fill="none" xmlns="http://www.w3.org/2000/svg">
<circle cx="20" cy="20" r="20" fill="#7EBC51"/>
<path d="M19.5312 8.75C19.9042 8.75 20.2619 8.89816 20.5256 9.16188C20.7893 9.4256 20.9375 9.78329 20.9375 10.1562V18.125H28.9062C29.2792 18.125 29.6369 18.2732 29.9006 18.5369C30.1643 18.8006 30.3125 19.1583 30.3125 19.5312C30.3125 19.9042 30.1643 20.2619 29.9006 20.5256C29.6369 20.7893 29.2792 20.9375 28.9062 20.9375H20.9375V28.9062C20.9375 29.2792 20.7893 29.6369 20.5256 29.9006C20.2619 30.1643 19.9042 30.3125 19.5312 30.3125C19.1583 30.3125 18.8006 30.1643 18.5369 29.9006C18.2732 29.6369 18.125 29.2792 18.125 28.9062V20.9375H10.1562C9.78329 20.9375 9.4256 20.7893 9.16188 20.5256C8.89816 20.2619 8.75 19.9042 8.75 19.5312C8.75 19.1583 8.89816 18.8006 9.16188 18.5369C9.4256 18.2732 9.78329 18.125 10.1562 18.125H18.125V10.1562C18.125 9.78329 18.2732 9.4256 18.5369 9.16188C18.8006 8.89816 19.1583 8.75 19.5312 8.75Z" fill="white"/>
</svg>
