<svg width="35" height="35" viewBox="0 0 35 35" fill="none" xmlns="http://www.w3.org/2000/svg">
<mask id="mask0_1474_4641" style="mask-type:alpha" maskUnits="userSpaceOnUse" x="0" y="0" width="35" height="35">
<rect x="0.863281" y="0.863281" width="33.2727" height="33.2727" fill="#D9D9D9"/>
</mask>
<g mask="url(#mask0_1474_4641)">
<path d="M6.4082 31.364V23.0458C6.4082 22.2833 6.6797 21.6306 7.22269 21.0876C7.76568 20.5446 8.41843 20.2731 9.18093 20.2731H25.8173C26.5798 20.2731 27.2325 20.5446 27.7755 21.0876C28.3185 21.6306 28.59 22.2833 28.59 23.0458V31.364H6.4082ZM9.18093 25.8185H25.8173V23.0458H9.18093V25.8185ZM17.4991 20.2731L10.5673 10.5685C10.5673 8.65073 11.2431 7.01598 12.5949 5.66428C13.9466 4.31257 15.5813 3.63672 17.4991 3.63672C19.4169 3.63672 21.0517 4.31257 22.4034 5.66428C23.7551 7.01598 24.4309 8.65073 24.4309 10.5685L17.4991 20.2731ZM17.4991 16.3913L21.6582 10.5685C21.6582 9.41323 21.2538 8.43123 20.4451 7.62251C19.6364 6.8138 18.6544 6.40945 17.4991 6.40945C16.3438 6.40945 15.3618 6.8138 14.5531 7.62251C13.7444 8.43123 13.34 9.41323 13.34 10.5685L17.4991 16.3913Z" fill="#00100D"/>
</g>
</svg>
