<svg width="129" height="116" viewBox="0 0 129 116" fill="none" xmlns="http://www.w3.org/2000/svg">
<path d="M78.5688 48.3819C65.1702 72.5516 57.9876 92.7988 57.9876 92.7988C42.486 65.0602 15.4551 54.6269 15.4551 54.6269C38.1233 53.7898 54.5703 65.8388 54.5703 65.8388C69.894 37.6431 94.4342 9.60941 112.079 0C112.079 0 91.3966 25.2353 78.5662 48.3819H78.5688Z" fill="url(#paint0_linear_1535_94)"/>
<path d="M126.851 36.0305C125.249 29.5383 122.639 23.2932 119.15 17.577L115.544 19.8252C118.879 25.1242 121.405 30.9361 122.99 37.0058C124.556 43.0754 125.186 49.3949 124.856 55.6718C124.203 68.1885 119.583 80.7079 111.715 90.4927C109.748 92.9615 107.613 95.3 105.298 97.4526C102.972 99.5918 100.489 101.564 97.8787 103.347L95.8898 104.641C80.2501 114.832 60.747 115.935 43.2619 110.567C42.4998 110.333 41.7643 110.03 41.0208 109.746C35.8111 107.732 30.9121 105.005 26.414 101.694C23.8517 99.7912 21.4539 97.6731 19.2022 95.4063C12.41 88.574 7.47378 80.1179 4.33522 71.0426C3.35807 67.9919 2.58272 64.872 2.05698 61.7043C1.56575 58.5339 1.2896 55.329 1.2418 52.1135C1.1887 45.6877 2.11539 39.2487 4.01393 33.094C5.90715 26.942 8.76691 21.0796 12.4525 15.7859C16.1354 10.4896 20.6387 5.7566 25.7555 1.81025L25.5935 1.59766C20.3998 5.48819 15.8008 10.1866 12.017 15.4776C8.22789 20.766 5.25661 26.647 3.25452 32.8522C1.24711 39.0653 0.214206 45.5894 0.179688 52.1215C0.179688 55.3902 0.41866 58.6535 0.875371 61.893C1.3666 65.1271 2.11274 68.3214 3.06864 71.4519C5.87529 80.6308 11.1806 89.6503 17.9622 96.6155C20.2325 98.9647 22.6594 101.165 25.2563 103.156C30.4182 107.11 36.3422 110.567 42.5582 112.576C61.7348 118.776 82.4089 116.584 99.4984 105.781C102.26 103.95 104.889 101.92 107.361 99.7088C109.822 97.4845 112.095 95.0555 114.201 92.4911C116.317 89.9319 118.189 87.1735 119.87 84.3061C120.735 82.8843 121.474 81.3935 122.23 79.9133C125.916 72.7036 127.894 64.0615 128.569 55.9057C129.009 49.2541 128.436 42.5254 126.853 36.0278L126.851 36.0305Z" fill="#87FF67"/>
<defs>
<linearGradient id="paint0_linear_1535_94" x1="15.4577" y1="46.3994" x2="112.084" y2="46.3994" gradientUnits="userSpaceOnUse">
<stop stop-color="#4FC646"/>
<stop offset="1" stop-color="#87FF67"/>
</linearGradient>
</defs>
</svg>
