<svg width="387" height="566" viewBox="0 0 387 566" fill="none" xmlns="http://www.w3.org/2000/svg">
<g filter="url(#filter0_b_1535_90)">
<rect width="387" height="566" rx="20" fill="url(#paint0_linear_1535_90)" fill-opacity="0.35"/>
<rect x="0.5" y="0.5" width="386" height="565" rx="19.5" stroke="white"/>
<path d="M63.2156 332.545H66.207L70.7667 340.48H70.9542L75.5139 332.545H78.5053L72.1729 343.148V350H69.5479V343.148L63.2156 332.545ZM84.1452 350.264C82.918 350.264 81.8469 349.983 80.9322 349.42C80.0174 348.858 79.3072 348.071 78.8015 347.06C78.2958 346.048 78.043 344.866 78.043 343.514C78.043 342.156 78.2958 340.969 78.8015 339.952C79.3072 338.935 80.0174 338.145 80.9322 337.582C81.8469 337.02 82.918 336.739 84.1452 336.739C85.3725 336.739 86.4435 337.02 87.3583 337.582C88.2731 338.145 88.9833 338.935 89.489 339.952C89.9947 340.969 90.2475 342.156 90.2475 343.514C90.2475 344.866 89.9947 346.048 89.489 347.06C88.9833 348.071 88.2731 348.858 87.3583 349.42C86.4435 349.983 85.3725 350.264 84.1452 350.264ZM84.1538 348.125C84.9492 348.125 85.6083 347.915 86.131 347.494C86.6538 347.074 87.0401 346.514 87.2901 345.815C87.5458 345.116 87.6737 344.347 87.6737 343.506C87.6737 342.67 87.5458 341.903 87.2901 341.205C87.0401 340.5 86.6538 339.935 86.131 339.509C85.6083 339.082 84.9492 338.869 84.1538 338.869C83.3526 338.869 82.6879 339.082 82.1594 339.509C81.6367 339.935 81.2475 340.5 80.9918 341.205C80.7418 341.903 80.6168 342.67 80.6168 343.506C80.6168 344.347 80.7418 345.116 80.9918 345.815C81.2475 346.514 81.6367 347.074 82.1594 347.494C82.6879 347.915 83.3526 348.125 84.1538 348.125ZM101.385 344.571V336.909H103.941V350H101.436V347.733H101.299C100.998 348.432 100.515 349.014 99.8505 349.48C99.1914 349.94 98.3704 350.17 97.3874 350.17C96.5465 350.17 95.8022 349.986 95.1545 349.616C94.5124 349.241 94.0067 348.688 93.6374 347.955C93.2738 347.222 93.092 346.315 93.092 345.236V336.909H95.6403V344.929C95.6403 345.821 95.8874 346.531 96.3817 347.06C96.8761 347.588 97.5181 347.852 98.3079 347.852C98.7852 347.852 99.2596 347.733 99.7312 347.494C100.208 347.256 100.603 346.895 100.916 346.412C101.234 345.929 101.39 345.315 101.385 344.571ZM107.365 350V336.909H109.828V338.989H109.965C110.203 338.284 110.624 337.73 111.226 337.327C111.834 336.918 112.522 336.713 113.289 336.713C113.448 336.713 113.635 336.719 113.851 336.73C114.073 336.741 114.246 336.756 114.371 336.773V339.21C114.269 339.182 114.087 339.151 113.826 339.116C113.564 339.077 113.303 339.057 113.042 339.057C112.439 339.057 111.902 339.185 111.431 339.44C110.965 339.69 110.596 340.04 110.323 340.489C110.05 340.932 109.914 341.437 109.914 342.006V350H107.365ZM137.63 338.222H134.971C134.868 337.653 134.678 337.153 134.4 336.722C134.121 336.29 133.78 335.923 133.377 335.622C132.973 335.321 132.522 335.094 132.022 334.94C131.527 334.787 131.002 334.71 130.445 334.71C129.439 334.71 128.539 334.963 127.743 335.469C126.953 335.974 126.328 336.716 125.868 337.693C125.414 338.67 125.186 339.864 125.186 341.273C125.186 342.693 125.414 343.892 125.868 344.869C126.328 345.847 126.956 346.585 127.752 347.085C128.547 347.585 129.442 347.835 130.436 347.835C130.988 347.835 131.51 347.761 132.005 347.614C132.505 347.46 132.956 347.236 133.36 346.94C133.763 346.645 134.104 346.284 134.382 345.858C134.667 345.426 134.863 344.932 134.971 344.375L137.63 344.384C137.488 345.241 137.212 346.031 136.803 346.753C136.4 347.469 135.88 348.088 135.243 348.611C134.613 349.128 133.891 349.528 133.078 349.812C132.266 350.097 131.38 350.239 130.419 350.239C128.908 350.239 127.561 349.881 126.38 349.165C125.198 348.443 124.266 347.412 123.584 346.071C122.908 344.73 122.57 343.131 122.57 341.273C122.57 339.409 122.911 337.81 123.593 336.474C124.275 335.134 125.206 334.105 126.388 333.389C127.57 332.668 128.914 332.307 130.419 332.307C131.346 332.307 132.209 332.44 133.01 332.707C133.817 332.969 134.542 333.355 135.184 333.866C135.826 334.372 136.357 334.991 136.777 335.724C137.198 336.452 137.482 337.284 137.63 338.222ZM146.091 350.264C144.863 350.264 143.792 349.983 142.877 349.42C141.963 348.858 141.252 348.071 140.747 347.06C140.241 346.048 139.988 344.866 139.988 343.514C139.988 342.156 140.241 340.969 140.747 339.952C141.252 338.935 141.963 338.145 142.877 337.582C143.792 337.02 144.863 336.739 146.091 336.739C147.318 336.739 148.389 337.02 149.304 337.582C150.218 338.145 150.929 338.935 151.434 339.952C151.94 340.969 152.193 342.156 152.193 343.514C152.193 344.866 151.94 346.048 151.434 347.06C150.929 348.071 150.218 348.858 149.304 349.42C148.389 349.983 147.318 350.264 146.091 350.264ZM146.099 348.125C146.895 348.125 147.554 347.915 148.076 347.494C148.599 347.074 148.985 346.514 149.235 345.815C149.491 345.116 149.619 344.347 149.619 343.506C149.619 342.67 149.491 341.903 149.235 341.205C148.985 340.5 148.599 339.935 148.076 339.509C147.554 339.082 146.895 338.869 146.099 338.869C145.298 338.869 144.633 339.082 144.105 339.509C143.582 339.935 143.193 340.5 142.937 341.205C142.687 341.903 142.562 342.67 142.562 343.506C142.562 344.347 142.687 345.116 142.937 345.815C143.193 346.514 143.582 347.074 144.105 347.494C144.633 347.915 145.298 348.125 146.099 348.125ZM155.037 350V336.909H157.483V339.04H157.645C157.918 338.318 158.364 337.756 158.983 337.352C159.603 336.943 160.344 336.739 161.208 336.739C162.083 336.739 162.816 336.943 163.407 337.352C164.003 337.761 164.444 338.324 164.728 339.04H164.864C165.176 338.341 165.674 337.784 166.355 337.369C167.037 336.949 167.85 336.739 168.793 336.739C169.98 336.739 170.949 337.111 171.699 337.855C172.455 338.599 172.833 339.722 172.833 341.222V350H170.284V341.46C170.284 340.574 170.043 339.932 169.56 339.534C169.077 339.136 168.5 338.938 167.83 338.938C167 338.938 166.355 339.193 165.895 339.705C165.435 340.21 165.205 340.861 165.205 341.656V350H162.665V341.298C162.665 340.588 162.444 340.017 162 339.585C161.557 339.153 160.98 338.938 160.27 338.938C159.787 338.938 159.341 339.065 158.932 339.321C158.529 339.571 158.202 339.92 157.952 340.369C157.708 340.818 157.586 341.338 157.586 341.929V350H155.037ZM176.248 354.909V336.909H178.737V339.031H178.95C179.098 338.759 179.311 338.443 179.589 338.085C179.868 337.727 180.254 337.415 180.748 337.148C181.243 336.875 181.896 336.739 182.708 336.739C183.765 336.739 184.708 337.006 185.538 337.54C186.368 338.074 187.018 338.844 187.49 339.849C187.967 340.855 188.206 342.065 188.206 343.48C188.206 344.895 187.97 346.108 187.498 347.119C187.027 348.125 186.379 348.901 185.555 349.446C184.731 349.986 183.791 350.256 182.734 350.256C181.939 350.256 181.288 350.122 180.782 349.855C180.282 349.588 179.89 349.276 179.606 348.918C179.322 348.56 179.103 348.241 178.95 347.963H178.797V354.909H176.248ZM178.745 343.455C178.745 344.375 178.879 345.182 179.146 345.875C179.413 346.568 179.799 347.111 180.305 347.503C180.811 347.889 181.43 348.082 182.163 348.082C182.924 348.082 183.561 347.881 184.072 347.477C184.583 347.068 184.97 346.514 185.231 345.815C185.498 345.116 185.632 344.33 185.632 343.455C185.632 342.591 185.501 341.815 185.24 341.128C184.984 340.44 184.598 339.898 184.081 339.5C183.569 339.102 182.93 338.903 182.163 338.903C181.424 338.903 180.799 339.094 180.288 339.474C179.782 339.855 179.399 340.386 179.137 341.068C178.876 341.75 178.745 342.545 178.745 343.455ZM194.87 350.29C194.041 350.29 193.291 350.136 192.62 349.83C191.95 349.517 191.419 349.065 191.027 348.474C190.64 347.884 190.447 347.159 190.447 346.301C190.447 345.562 190.589 344.955 190.873 344.477C191.157 344 191.541 343.622 192.024 343.344C192.507 343.065 193.047 342.855 193.643 342.713C194.24 342.571 194.848 342.463 195.467 342.389C196.251 342.298 196.887 342.224 197.376 342.168C197.865 342.105 198.22 342.006 198.441 341.869C198.663 341.733 198.774 341.511 198.774 341.205V341.145C198.774 340.401 198.564 339.824 198.143 339.415C197.728 339.006 197.109 338.801 196.285 338.801C195.427 338.801 194.751 338.991 194.257 339.372C193.768 339.747 193.43 340.165 193.243 340.625L190.848 340.08C191.132 339.284 191.547 338.642 192.092 338.153C192.643 337.659 193.277 337.301 193.993 337.08C194.708 336.852 195.461 336.739 196.251 336.739C196.774 336.739 197.328 336.801 197.913 336.926C198.504 337.045 199.055 337.267 199.566 337.591C200.083 337.915 200.507 338.378 200.836 338.98C201.166 339.577 201.331 340.352 201.331 341.307V350H198.842V348.21H198.74C198.575 348.54 198.328 348.864 197.998 349.182C197.669 349.5 197.245 349.764 196.728 349.974C196.211 350.185 195.592 350.29 194.87 350.29ZM195.424 348.244C196.129 348.244 196.731 348.105 197.231 347.827C197.737 347.548 198.12 347.185 198.382 346.736C198.649 346.281 198.782 345.795 198.782 345.278V343.591C198.691 343.682 198.515 343.767 198.254 343.847C197.998 343.92 197.706 343.986 197.376 344.043C197.047 344.094 196.725 344.142 196.413 344.188C196.1 344.227 195.839 344.261 195.629 344.29C195.135 344.352 194.683 344.457 194.274 344.605C193.87 344.753 193.547 344.966 193.302 345.244C193.064 345.517 192.944 345.881 192.944 346.335C192.944 346.966 193.177 347.443 193.643 347.767C194.109 348.085 194.703 348.244 195.424 348.244ZM207.273 342.227V350H204.725V336.909H207.171V339.04H207.333C207.634 338.347 208.105 337.79 208.748 337.369C209.395 336.949 210.211 336.739 211.194 336.739C212.086 336.739 212.867 336.926 213.537 337.301C214.208 337.67 214.728 338.222 215.097 338.955C215.466 339.687 215.651 340.594 215.651 341.673V350H213.103V341.98C213.103 341.031 212.855 340.29 212.361 339.756C211.867 339.216 211.188 338.946 210.324 338.946C209.733 338.946 209.208 339.074 208.748 339.33C208.293 339.585 207.932 339.96 207.665 340.455C207.404 340.943 207.273 341.534 207.273 342.227ZM220.211 354.909C219.83 354.909 219.483 354.878 219.171 354.815C218.858 354.759 218.625 354.696 218.472 354.628L219.086 352.54C219.551 352.665 219.966 352.719 220.33 352.702C220.694 352.685 221.015 352.548 221.293 352.293C221.577 352.037 221.827 351.619 222.043 351.04L222.358 350.17L217.569 336.909H220.296L223.611 347.068H223.748L227.063 336.909H229.799L224.404 351.747C224.154 352.429 223.836 353.006 223.449 353.477C223.063 353.955 222.603 354.313 222.069 354.551C221.534 354.79 220.915 354.909 220.211 354.909ZM238.75 350V332.545H241.383V347.733H249.292V350H238.75ZM252.092 350V336.909H254.64V350H252.092ZM253.379 334.889C252.936 334.889 252.555 334.741 252.237 334.446C251.924 334.145 251.768 333.787 251.768 333.372C251.768 332.952 251.924 332.594 252.237 332.298C252.555 331.997 252.936 331.847 253.379 331.847C253.822 331.847 254.2 331.997 254.512 332.298C254.831 332.594 254.99 332.952 254.99 333.372C254.99 333.787 254.831 334.145 254.512 334.446C254.2 334.741 253.822 334.889 253.379 334.889ZM263.583 350.264C262.316 350.264 261.225 349.977 260.31 349.403C259.401 348.824 258.702 348.026 258.213 347.009C257.725 345.991 257.48 344.827 257.48 343.514C257.48 342.185 257.73 341.011 258.23 339.994C258.73 338.972 259.435 338.173 260.344 337.599C261.253 337.026 262.324 336.739 263.557 336.739C264.551 336.739 265.438 336.923 266.216 337.293C266.995 337.656 267.623 338.168 268.1 338.827C268.583 339.486 268.87 340.256 268.961 341.136H266.48C266.344 340.523 266.032 339.994 265.543 339.551C265.06 339.108 264.412 338.886 263.6 338.886C262.89 338.886 262.267 339.074 261.733 339.449C261.205 339.818 260.793 340.347 260.498 341.034C260.202 341.716 260.054 342.523 260.054 343.455C260.054 344.409 260.199 345.233 260.489 345.926C260.779 346.619 261.188 347.156 261.716 347.537C262.25 347.918 262.878 348.108 263.6 348.108C264.083 348.108 264.52 348.02 264.912 347.844C265.31 347.662 265.642 347.403 265.909 347.068C266.182 346.733 266.373 346.33 266.48 345.858H268.961C268.87 346.705 268.594 347.46 268.134 348.125C267.674 348.79 267.057 349.312 266.284 349.693C265.517 350.074 264.617 350.264 263.583 350.264ZM277.328 350.264C276.038 350.264 274.927 349.989 273.995 349.438C273.069 348.881 272.353 348.099 271.848 347.094C271.348 346.082 271.098 344.898 271.098 343.54C271.098 342.199 271.348 341.017 271.848 339.994C272.353 338.972 273.058 338.173 273.961 337.599C274.87 337.026 275.933 336.739 277.149 336.739C277.887 336.739 278.603 336.861 279.297 337.105C279.99 337.349 280.612 337.733 281.163 338.256C281.714 338.778 282.149 339.457 282.467 340.293C282.785 341.122 282.944 342.131 282.944 343.318V344.222H272.538V342.312H280.447C280.447 341.642 280.311 341.048 280.038 340.531C279.765 340.009 279.382 339.597 278.887 339.295C278.399 338.994 277.825 338.844 277.166 338.844C276.45 338.844 275.825 339.02 275.291 339.372C274.762 339.719 274.353 340.173 274.064 340.736C273.779 341.293 273.637 341.898 273.637 342.551V344.043C273.637 344.918 273.791 345.662 274.098 346.276C274.41 346.889 274.845 347.358 275.402 347.682C275.958 348 276.609 348.159 277.353 348.159C277.836 348.159 278.277 348.091 278.674 347.955C279.072 347.812 279.416 347.602 279.706 347.324C279.995 347.045 280.217 346.702 280.37 346.293L282.782 346.727C282.589 347.437 282.243 348.06 281.743 348.594C281.248 349.122 280.626 349.534 279.876 349.83C279.132 350.119 278.282 350.264 277.328 350.264ZM288.32 342.227V350H285.772V336.909H288.218V339.04H288.38C288.681 338.347 289.152 337.79 289.794 337.369C290.442 336.949 291.257 336.739 292.24 336.739C293.132 336.739 293.914 336.926 294.584 337.301C295.255 337.67 295.775 338.222 296.144 338.955C296.513 339.687 296.698 340.594 296.698 341.673V350H294.15V341.98C294.15 341.031 293.902 340.29 293.408 339.756C292.914 339.216 292.235 338.946 291.371 338.946C290.78 338.946 290.255 339.074 289.794 339.33C289.34 339.585 288.979 339.96 288.712 340.455C288.451 340.943 288.32 341.534 288.32 342.227ZM309.925 340.105L307.615 340.514C307.519 340.219 307.365 339.937 307.155 339.67C306.951 339.403 306.672 339.185 306.32 339.014C305.968 338.844 305.527 338.759 304.999 338.759C304.277 338.759 303.675 338.92 303.192 339.244C302.709 339.562 302.468 339.974 302.468 340.48C302.468 340.918 302.63 341.27 302.953 341.537C303.277 341.804 303.8 342.023 304.522 342.193L306.601 342.67C307.806 342.949 308.703 343.378 309.294 343.957C309.885 344.537 310.181 345.29 310.181 346.216C310.181 347 309.953 347.699 309.499 348.312C309.05 348.92 308.422 349.398 307.615 349.744C306.814 350.091 305.885 350.264 304.828 350.264C303.363 350.264 302.167 349.952 301.24 349.327C300.314 348.696 299.746 347.801 299.536 346.642L301.999 346.267C302.152 346.909 302.468 347.395 302.945 347.724C303.422 348.048 304.044 348.21 304.811 348.21C305.647 348.21 306.314 348.037 306.814 347.69C307.314 347.338 307.564 346.909 307.564 346.403C307.564 345.994 307.411 345.651 307.104 345.372C306.803 345.094 306.34 344.884 305.715 344.741L303.499 344.256C302.277 343.977 301.374 343.534 300.789 342.926C300.209 342.318 299.919 341.548 299.919 340.616C299.919 339.844 300.135 339.168 300.567 338.588C300.999 338.009 301.596 337.557 302.357 337.233C303.118 336.903 303.99 336.739 304.973 336.739C306.388 336.739 307.502 337.045 308.314 337.659C309.127 338.267 309.664 339.082 309.925 340.105ZM318.625 350.264C317.335 350.264 316.224 349.989 315.292 349.438C314.366 348.881 313.65 348.099 313.145 347.094C312.645 346.082 312.395 344.898 312.395 343.54C312.395 342.199 312.645 341.017 313.145 339.994C313.65 338.972 314.355 338.173 315.258 337.599C316.167 337.026 317.23 336.739 318.446 336.739C319.184 336.739 319.9 336.861 320.593 337.105C321.287 337.349 321.909 337.733 322.46 338.256C323.011 338.778 323.446 339.457 323.764 340.293C324.082 341.122 324.241 342.131 324.241 343.318V344.222H313.835V342.312H321.744C321.744 341.642 321.608 341.048 321.335 340.531C321.062 340.009 320.679 339.597 320.184 339.295C319.696 338.994 319.122 338.844 318.463 338.844C317.747 338.844 317.122 339.02 316.588 339.372C316.059 339.719 315.65 340.173 315.36 340.736C315.076 341.293 314.934 341.898 314.934 342.551V344.043C314.934 344.918 315.088 345.662 315.395 346.276C315.707 346.889 316.142 347.358 316.699 347.682C317.255 348 317.906 348.159 318.65 348.159C319.133 348.159 319.574 348.091 319.971 347.955C320.369 347.812 320.713 347.602 321.002 347.324C321.292 347.045 321.514 346.702 321.667 346.293L324.079 346.727C323.886 347.437 323.539 348.06 323.039 348.594C322.545 349.122 321.923 349.534 321.173 349.83C320.429 350.119 319.579 350.264 318.625 350.264ZM143.752 379V365.909H146.3V379H143.752ZM145.039 363.889C144.596 363.889 144.215 363.741 143.897 363.446C143.585 363.145 143.428 362.787 143.428 362.372C143.428 361.952 143.585 361.594 143.897 361.298C144.215 360.997 144.596 360.847 145.039 360.847C145.482 360.847 145.86 360.997 146.173 361.298C146.491 361.594 146.65 361.952 146.65 362.372C146.65 362.787 146.491 363.145 146.173 363.446C145.86 363.741 145.482 363.889 145.039 363.889ZM159.538 369.105L157.229 369.514C157.132 369.219 156.979 368.937 156.768 368.67C156.564 368.403 156.286 368.185 155.933 368.014C155.581 367.844 155.141 367.759 154.612 367.759C153.891 367.759 153.288 367.92 152.805 368.244C152.322 368.562 152.081 368.974 152.081 369.48C152.081 369.918 152.243 370.27 152.567 370.537C152.891 370.804 153.413 371.023 154.135 371.193L156.214 371.67C157.419 371.949 158.317 372.378 158.908 372.957C159.499 373.537 159.794 374.29 159.794 375.216C159.794 376 159.567 376.699 159.112 377.312C158.663 377.92 158.036 378.398 157.229 378.744C156.428 379.091 155.499 379.264 154.442 379.264C152.976 379.264 151.78 378.952 150.854 378.327C149.928 377.696 149.359 376.801 149.149 375.642L151.612 375.267C151.766 375.909 152.081 376.395 152.558 376.724C153.036 377.048 153.658 377.21 154.425 377.21C155.26 377.21 155.928 377.037 156.428 376.69C156.928 376.338 157.178 375.909 157.178 375.403C157.178 374.994 157.024 374.651 156.717 374.372C156.416 374.094 155.953 373.884 155.328 373.741L153.112 373.256C151.891 372.977 150.987 372.534 150.402 371.926C149.822 371.318 149.533 370.548 149.533 369.616C149.533 368.844 149.749 368.168 150.18 367.588C150.612 367.009 151.209 366.557 151.97 366.233C152.732 365.903 153.604 365.739 154.587 365.739C156.001 365.739 157.115 366.045 157.928 366.659C158.74 367.267 159.277 368.082 159.538 369.105ZM169.152 379V361.545H175.374C176.726 361.545 177.848 361.778 178.74 362.244C179.638 362.71 180.308 363.355 180.751 364.179C181.195 364.997 181.416 365.943 181.416 367.017C181.416 368.085 181.192 369.026 180.743 369.838C180.3 370.645 179.629 371.273 178.732 371.722C177.839 372.17 176.717 372.395 175.365 372.395H170.652V370.128H175.126C175.979 370.128 176.672 370.006 177.206 369.761C177.746 369.517 178.141 369.162 178.391 368.696C178.641 368.23 178.766 367.67 178.766 367.017C178.766 366.358 178.638 365.787 178.382 365.304C178.132 364.821 177.737 364.452 177.197 364.196C176.663 363.935 175.962 363.804 175.092 363.804H171.786V379H169.152ZM177.768 371.125L182.081 379H179.081L174.854 371.125H177.768ZM189.894 379.264C188.604 379.264 187.494 378.989 186.562 378.438C185.636 377.881 184.92 377.099 184.414 376.094C183.914 375.082 183.664 373.898 183.664 372.54C183.664 371.199 183.914 370.017 184.414 368.994C184.92 367.972 185.624 367.173 186.528 366.599C187.437 366.026 188.499 365.739 189.715 365.739C190.454 365.739 191.17 365.861 191.863 366.105C192.556 366.349 193.178 366.733 193.729 367.256C194.281 367.778 194.715 368.457 195.033 369.293C195.352 370.122 195.511 371.131 195.511 372.318V373.222H185.104V371.312H193.013C193.013 370.642 192.877 370.048 192.604 369.531C192.332 369.009 191.948 368.597 191.454 368.295C190.965 367.994 190.391 367.844 189.732 367.844C189.016 367.844 188.391 368.02 187.857 368.372C187.329 368.719 186.92 369.173 186.63 369.736C186.346 370.293 186.204 370.898 186.204 371.551V373.043C186.204 373.918 186.357 374.662 186.664 375.276C186.977 375.889 187.411 376.358 187.968 376.682C188.525 377 189.175 377.159 189.92 377.159C190.403 377.159 190.843 377.091 191.241 376.955C191.638 376.812 191.982 376.602 192.272 376.324C192.562 376.045 192.783 375.702 192.937 375.293L195.349 375.727C195.156 376.437 194.809 377.06 194.309 377.594C193.815 378.122 193.192 378.534 192.442 378.83C191.698 379.119 190.849 379.264 189.894 379.264ZM202.148 379.29C201.318 379.29 200.568 379.136 199.898 378.83C199.227 378.517 198.696 378.065 198.304 377.474C197.918 376.884 197.724 376.159 197.724 375.301C197.724 374.562 197.866 373.955 198.151 373.477C198.435 373 198.818 372.622 199.301 372.344C199.784 372.065 200.324 371.855 200.92 371.713C201.517 371.571 202.125 371.463 202.744 371.389C203.528 371.298 204.165 371.224 204.653 371.168C205.142 371.105 205.497 371.006 205.719 370.869C205.94 370.733 206.051 370.511 206.051 370.205V370.145C206.051 369.401 205.841 368.824 205.42 368.415C205.006 368.006 204.386 367.801 203.562 367.801C202.705 367.801 202.028 367.991 201.534 368.372C201.045 368.747 200.707 369.165 200.52 369.625L198.125 369.08C198.409 368.284 198.824 367.642 199.369 367.153C199.92 366.659 200.554 366.301 201.27 366.08C201.986 365.852 202.739 365.739 203.528 365.739C204.051 365.739 204.605 365.801 205.19 365.926C205.781 366.045 206.332 366.267 206.844 366.591C207.361 366.915 207.784 367.378 208.114 367.98C208.443 368.577 208.608 369.352 208.608 370.307V379H206.119V377.21H206.017C205.852 377.54 205.605 377.864 205.276 378.182C204.946 378.5 204.523 378.764 204.006 378.974C203.489 379.185 202.869 379.29 202.148 379.29ZM202.702 377.244C203.406 377.244 204.009 377.105 204.509 376.827C205.014 376.548 205.398 376.185 205.659 375.736C205.926 375.281 206.06 374.795 206.06 374.278V372.591C205.969 372.682 205.793 372.767 205.531 372.847C205.276 372.92 204.983 372.986 204.653 373.043C204.324 373.094 204.003 373.142 203.69 373.188C203.378 373.227 203.116 373.261 202.906 373.29C202.412 373.352 201.96 373.457 201.551 373.605C201.148 373.753 200.824 373.966 200.58 374.244C200.341 374.517 200.222 374.881 200.222 375.335C200.222 375.966 200.455 376.443 200.92 376.767C201.386 377.085 201.98 377.244 202.702 377.244ZM216.903 379.256C215.846 379.256 214.903 378.986 214.073 378.446C213.249 377.901 212.602 377.125 212.13 376.119C211.664 375.108 211.431 373.895 211.431 372.48C211.431 371.065 211.667 369.855 212.138 368.849C212.616 367.844 213.269 367.074 214.099 366.54C214.928 366.006 215.869 365.739 216.92 365.739C217.732 365.739 218.386 365.875 218.88 366.148C219.38 366.415 219.766 366.727 220.039 367.085C220.317 367.443 220.533 367.759 220.687 368.031H220.84V361.545H223.388V379H220.9V376.963H220.687C220.533 377.241 220.312 377.56 220.022 377.918C219.738 378.276 219.346 378.588 218.846 378.855C218.346 379.122 217.698 379.256 216.903 379.256ZM217.465 377.082C218.198 377.082 218.817 376.889 219.323 376.503C219.835 376.111 220.221 375.568 220.482 374.875C220.749 374.182 220.883 373.375 220.883 372.455C220.883 371.545 220.752 370.75 220.491 370.068C220.229 369.386 219.846 368.855 219.34 368.474C218.835 368.094 218.21 367.903 217.465 367.903C216.698 367.903 216.059 368.102 215.548 368.5C215.036 368.898 214.65 369.44 214.388 370.128C214.133 370.815 214.005 371.591 214.005 372.455C214.005 373.33 214.136 374.116 214.397 374.815C214.658 375.514 215.045 376.068 215.556 376.477C216.073 376.881 216.71 377.082 217.465 377.082ZM228.636 383.909C228.256 383.909 227.909 383.878 227.597 383.815C227.284 383.759 227.051 383.696 226.898 383.628L227.511 381.54C227.977 381.665 228.392 381.719 228.756 381.702C229.119 381.685 229.44 381.548 229.719 381.293C230.003 381.037 230.253 380.619 230.469 380.04L230.784 379.17L225.994 365.909H228.722L232.037 376.068H232.173L235.489 365.909H238.224L232.83 380.747C232.58 381.429 232.261 382.006 231.875 382.477C231.489 382.955 231.028 383.313 230.494 383.551C229.96 383.79 229.341 383.909 228.636 383.909ZM243.832 361.545L243.611 373.98H241.25L241.028 361.545H243.832ZM242.435 379.162C241.963 379.162 241.56 378.997 241.224 378.668C240.889 378.332 240.724 377.929 240.73 377.457C240.724 376.991 240.889 376.594 241.224 376.264C241.56 375.929 241.963 375.761 242.435 375.761C242.895 375.761 243.293 375.929 243.628 376.264C243.963 376.594 244.134 376.991 244.139 377.457C244.134 377.77 244.051 378.057 243.892 378.318C243.739 378.574 243.534 378.778 243.278 378.932C243.023 379.085 242.741 379.162 242.435 379.162Z" fill="white"/>
<path d="M208.569 229.382C195.17 253.552 187.988 273.799 187.988 273.799C172.486 246.06 145.455 235.627 145.455 235.627C168.123 234.79 184.57 246.839 184.57 246.839C199.894 218.643 224.434 190.609 242.079 181C242.079 181 221.397 206.235 208.566 229.382H208.569Z" fill="url(#paint1_linear_1535_90)"/>
<path d="M256.851 217.03C255.249 210.538 252.639 204.293 249.15 198.577L245.544 200.825C248.879 206.124 251.405 211.936 252.99 218.006C254.556 224.075 255.186 230.395 254.856 236.672C254.203 249.189 249.583 261.708 241.715 271.493C239.748 273.961 237.613 276.3 235.298 278.453C232.972 280.592 230.489 282.564 227.879 284.347L225.89 285.641C210.25 295.832 190.747 296.935 173.262 291.567C172.5 291.333 171.764 291.03 171.021 290.746C165.811 288.732 160.912 286.005 156.414 282.694C153.852 280.791 151.454 278.673 149.202 276.406C142.41 269.574 137.474 261.118 134.335 252.043C133.358 248.992 132.583 245.872 132.057 242.704C131.566 239.534 131.29 236.329 131.242 233.113C131.189 226.688 132.115 220.249 134.014 214.094C135.907 207.942 138.767 202.08 142.452 196.786C146.135 191.49 150.639 186.757 155.756 182.81L155.594 182.598C150.4 186.488 145.801 191.187 142.017 196.478C138.228 201.766 135.257 207.647 133.255 213.852C131.247 220.065 130.214 226.589 130.18 233.121C130.18 236.39 130.419 239.654 130.875 242.893C131.367 246.127 132.113 249.321 133.069 252.452C135.875 261.631 141.181 270.65 147.962 277.615C150.232 279.965 152.659 282.165 155.256 284.156C160.418 288.11 166.342 291.567 172.558 293.576C191.735 299.776 212.409 297.584 229.498 286.781C232.26 284.95 234.889 282.92 237.361 280.709C239.822 278.484 242.095 276.056 244.201 273.491C246.317 270.932 248.189 268.173 249.87 265.306C250.735 263.884 251.474 262.393 252.23 260.913C255.916 253.704 257.894 245.061 258.569 236.906C259.009 230.254 258.436 223.525 256.853 217.028L256.851 217.03Z" fill="#87FF67"/>
</g>
<defs>
<filter id="filter0_b_1535_90" x="-25" y="-25" width="437" height="616" filterUnits="userSpaceOnUse" color-interpolation-filters="sRGB">
<feFlood flood-opacity="0" result="BackgroundImageFix"/>
<feGaussianBlur in="BackgroundImageFix" stdDeviation="12.5"/>
<feComposite in2="SourceAlpha" operator="in" result="effect1_backgroundBlur_1535_90"/>
<feBlend mode="normal" in="SourceGraphic" in2="effect1_backgroundBlur_1535_90" result="shape"/>
</filter>
<linearGradient id="paint0_linear_1535_90" x1="0" y1="0" x2="801.902" y2="107.764" gradientUnits="userSpaceOnUse">
<stop stop-color="#00FFD0"/>
<stop offset="1" stop-color="#3FFF21"/>
</linearGradient>
<linearGradient id="paint1_linear_1535_90" x1="145.458" y1="227.399" x2="242.084" y2="227.399" gradientUnits="userSpaceOnUse">
<stop stop-color="#4FC646"/>
<stop offset="1" stop-color="#87FF67"/>
</linearGradient>
</defs>
</svg>
