<svg width="343" height="625" viewBox="0 0 343 625" fill="none" xmlns="http://www.w3.org/2000/svg">
<rect x="37.3936" y="118.685" width="35.7678" height="35.7678" rx="17.8839" transform="rotate(90 37.3936 118.685)" fill="white" stroke="#78B948" stroke-width="3.25162"/>
<path d="M24.1931 131.723C24.4221 131.505 24.7269 131.385 25.0431 131.387C25.3593 131.389 25.6622 131.514 25.8879 131.736C26.1136 131.957 26.2445 132.258 26.2528 132.574C26.2612 132.89 26.1464 133.197 25.9327 133.43L19.4457 141.543C19.3342 141.663 19.1996 141.76 19.0499 141.826C18.9002 141.893 18.7386 141.929 18.5747 141.933C18.4108 141.936 18.248 141.905 18.0959 141.844C17.9439 141.783 17.8058 141.691 17.6899 141.576L13.388 137.274C13.2682 137.162 13.1721 137.027 13.1054 136.878C13.0388 136.728 13.003 136.567 13.0001 136.403C12.9972 136.239 13.0273 136.077 13.0886 135.925C13.15 135.773 13.2412 135.635 13.357 135.519C13.4728 135.404 13.6107 135.312 13.7626 135.251C13.9144 135.19 14.077 135.159 14.2407 135.162C14.4045 135.165 14.5659 135.201 14.7155 135.268C14.8651 135.334 14.9997 135.43 15.1113 135.55L18.5158 138.953L24.1622 131.759L24.1931 131.723Z" fill="white"/>
<rect x="37.3936" y="235.736" width="35.7678" height="35.7678" rx="17.8839" transform="rotate(90 37.3936 235.736)" fill="white" stroke="#E0E0E0" stroke-width="3.25162"/>
<path d="M24.1931 248.724C24.4221 248.506 24.7269 248.386 25.0431 248.388C25.3593 248.39 25.6622 248.516 25.8879 248.737C26.1136 248.959 26.2445 249.259 26.2528 249.575C26.2612 249.891 26.1464 250.198 25.9327 250.431L19.4457 258.544C19.3342 258.664 19.1996 258.761 19.0499 258.828C18.9002 258.895 18.7386 258.931 18.5747 258.934C18.4108 258.937 18.248 258.907 18.0959 258.845C17.9439 258.784 17.8058 258.693 17.6899 258.577L13.388 254.275C13.2682 254.163 13.1721 254.028 13.1054 253.879C13.0388 253.729 13.003 253.568 13.0001 253.404C12.9972 253.24 13.0273 253.078 13.0886 252.926C13.15 252.774 13.2412 252.636 13.357 252.52C13.4728 252.405 13.6107 252.313 13.7626 252.252C13.9144 252.191 14.077 252.161 14.2407 252.163C14.4045 252.166 14.5659 252.202 14.7155 252.269C14.8651 252.335 14.9997 252.432 15.1113 252.551L18.5158 255.954L24.1622 248.76L24.1931 248.724Z" fill="white"/>
<rect x="37.3936" y="352.801" width="35.7678" height="35.7678" rx="17.8839" transform="rotate(90 37.3936 352.801)" fill="white" stroke="#E0E0E0" stroke-width="3.25162"/>
<path d="M24.1931 365.722C24.4221 365.504 24.7269 365.384 25.0431 365.386C25.3593 365.389 25.6622 365.514 25.8879 365.735C26.1136 365.957 26.2445 366.257 26.2528 366.573C26.2612 366.889 26.1464 367.196 25.9327 367.429L19.4457 375.542C19.3342 375.662 19.1996 375.759 19.0499 375.826C18.9002 375.893 18.7386 375.929 18.5747 375.932C18.4108 375.935 18.248 375.905 18.0959 375.843C17.9439 375.782 17.8058 375.691 17.6899 375.575L13.388 371.273C13.2682 371.161 13.1721 371.027 13.1054 370.877C13.0388 370.727 13.003 370.566 13.0001 370.402C12.9972 370.239 13.0273 370.076 13.0886 369.924C13.15 369.772 13.2412 369.634 13.357 369.519C13.4728 369.403 13.6107 369.311 13.7626 369.25C13.9144 369.189 14.077 369.159 14.2407 369.162C14.4045 369.165 14.5659 369.2 14.7155 369.267C14.8651 369.334 14.9997 369.43 15.1113 369.55L18.5158 372.952L24.1622 365.758L24.1931 365.722Z" fill="white"/>
<rect x="37.3936" y="469.865" width="35.7678" height="35.7678" rx="17.8839" transform="rotate(90 37.3936 469.865)" fill="white" stroke="#E0E0E0" stroke-width="3.25162"/>
<path d="M24.1931 482.723C24.4221 482.505 24.7269 482.385 25.0431 482.387C25.3593 482.39 25.6622 482.515 25.8879 482.736C26.1136 482.958 26.2445 483.258 26.2528 483.574C26.2612 483.89 26.1464 484.197 25.9327 484.43L19.4457 492.543C19.3342 492.663 19.1996 492.76 19.0499 492.827C18.9002 492.894 18.7386 492.93 18.5747 492.933C18.4108 492.936 18.248 492.906 18.0959 492.844C17.9439 492.783 17.8058 492.692 17.6899 492.576L13.388 488.274C13.2682 488.162 13.1721 488.028 13.1054 487.878C13.0388 487.728 13.003 487.567 13.0001 487.403C12.9972 487.24 13.0273 487.077 13.0886 486.925C13.15 486.773 13.2412 486.635 13.357 486.52C13.4728 486.404 13.6107 486.313 13.7626 486.251C13.9144 486.19 14.077 486.16 14.2407 486.163C14.4045 486.166 14.5659 486.201 14.7155 486.268C14.8651 486.335 14.9997 486.431 15.1113 486.551L18.5158 489.953L24.1622 482.759L24.1931 482.723Z" fill="white"/>
<rect x="37.3936" y="586.917" width="35.7678" height="35.7678" rx="17.8839" transform="rotate(90 37.3936 586.917)" fill="white" stroke="#E0E0E0" stroke-width="3.25162"/>
<path d="M24.1931 599.726C24.4221 599.507 24.7269 599.387 25.0431 599.389C25.3593 599.392 25.6622 599.517 25.8879 599.738C26.1136 599.96 26.2445 600.26 26.2528 600.576C26.2612 600.893 26.1464 601.2 25.9327 601.433L19.4457 609.545C19.3342 609.666 19.1996 609.762 19.0499 609.829C18.9002 609.896 18.7386 609.932 18.5747 609.935C18.4108 609.938 18.248 609.908 18.0959 609.847C17.9439 609.785 17.8058 609.694 17.6899 609.578L13.388 605.276C13.2682 605.164 13.1721 605.03 13.1054 604.88C13.0388 604.731 13.003 604.569 13.0001 604.405C12.9972 604.242 13.0273 604.079 13.0886 603.927C13.15 603.775 13.2412 603.637 13.357 603.522C13.4728 603.406 13.6107 603.315 13.7626 603.253C13.9144 603.192 14.077 603.162 14.2407 603.165C14.4045 603.168 14.5659 603.203 14.7155 603.27C14.8651 603.337 14.9997 603.433 15.1113 603.553L18.5158 606.955L24.1622 599.761L24.1931 599.726Z" fill="white"/>
<rect x="21.1344" y="45.5207" width="65.0324" height="3.25162" transform="rotate(90 21.1344 45.5207)" fill="#78B948"/>
<rect x="21.1344" y="162.582" width="65.0324" height="3.25161" transform="rotate(90 21.1344 162.582)" fill="#E0E0E0"/>
<rect x="21.1344" y="279.638" width="65.0324" height="3.25161" transform="rotate(90 21.1344 279.638)" fill="#E0E0E0"/>
<rect x="21.1344" y="396.699" width="65.0324" height="3.25161" transform="rotate(90 21.1344 396.699)" fill="#E0E0E0"/>
<rect x="21.1344" y="513.755" width="65.0324" height="3.25161" transform="rotate(90 21.1344 513.755)" fill="#E0E0E0"/>
<path d="M81.7736 13.4405C81.5727 12.81 81.3025 12.2453 80.963 11.7465C80.6304 11.2408 80.2321 10.8112 79.7679 10.4579C79.3037 10.0976 78.7737 9.82395 78.1779 9.63689C77.589 9.44983 76.9412 9.3563 76.2345 9.3563C75.036 9.3563 73.9552 9.6646 72.9921 10.2812C72.0291 10.8978 71.267 11.8019 70.7058 12.9936C70.1516 14.1783 69.8745 15.6298 69.8745 17.3479C69.8745 19.0731 70.1551 20.5314 70.7162 21.7231C71.2774 22.9147 72.0464 23.8189 73.0233 24.4355C74.0002 25.0521 75.1122 25.3604 76.3592 25.3604C77.5162 25.3604 78.5243 25.1248 79.3834 24.6537C80.2494 24.1826 80.918 23.5175 81.3891 22.6584C81.8671 21.7924 82.1061 20.7739 82.1061 19.6031L82.9375 19.7589H76.8477V17.1089H85.2134V19.5303C85.2134 21.3178 84.8324 22.8697 84.0703 24.186C83.3151 25.4955 82.269 26.507 80.9318 27.2206C79.6016 27.9342 78.0774 28.291 76.3592 28.291C74.4332 28.291 72.7427 27.8476 71.2878 26.9608C69.8398 26.074 68.7105 24.8165 67.8999 23.1884C67.0893 21.5533 66.684 19.6135 66.684 17.3687C66.684 15.6713 66.9196 14.1471 67.3907 12.7961C67.8618 11.4451 68.5235 10.2985 69.3756 9.3563C70.2347 8.40714 71.2428 7.68315 72.3998 7.18432C73.5637 6.67856 74.835 6.42569 76.2137 6.42569C77.3638 6.42569 78.4342 6.59543 79.4249 6.93491C80.4226 7.27439 81.3094 7.75589 82.0854 8.37943C82.8682 9.00296 83.516 9.74428 84.0287 10.6034C84.5414 11.4555 84.8878 12.4012 85.0679 13.4405H81.7736ZM95.92 28.3222C94.3474 28.3222 92.9929 27.9861 91.8567 27.3141C90.7274 26.6352 89.8544 25.6825 89.2378 24.4562C88.6282 23.223 88.3233 21.7785 88.3233 20.1227C88.3233 18.4876 88.6282 17.0466 89.2378 15.7995C89.8544 14.5524 90.7135 13.579 91.8151 12.8793C92.9236 12.1795 94.2192 11.8297 95.7018 11.8297C96.6025 11.8297 97.4754 11.9786 98.3207 12.2765C99.1659 12.5744 99.9245 13.0421 100.597 13.6795C101.269 14.3169 101.799 15.1448 102.187 16.1632C102.575 17.1747 102.769 18.4045 102.769 19.8525V20.9541H90.0796V18.6262H99.7236C99.7236 17.8087 99.5573 17.0847 99.2248 16.4542C98.8922 15.8168 98.4246 15.3145 97.8218 14.9473C97.226 14.5801 96.5263 14.3965 95.7226 14.3965C94.8496 14.3965 94.0875 14.6113 93.4363 15.0409C92.792 15.4635 92.2932 16.0177 91.9398 16.7036C91.5934 17.3826 91.4202 18.1204 91.4202 18.9172V20.7358C91.4202 21.8028 91.6073 22.7103 91.9814 23.4586C92.3624 24.2068 92.8924 24.7784 93.5714 25.1733C94.2504 25.5613 95.0436 25.7553 95.9512 25.7553C96.5401 25.7553 97.0771 25.6721 97.562 25.5059C98.047 25.3327 98.4661 25.0763 98.8195 24.7368C99.1728 24.3974 99.443 23.9782 99.6301 23.4794L102.571 24.0094C102.336 24.8754 101.913 25.634 101.303 26.2853C100.7 26.9296 99.9418 27.4319 99.0273 27.7922C98.1197 28.1455 97.084 28.3222 95.92 28.3222ZM109.323 18.5223V28H106.216V12.0375H109.199V14.6356H109.396C109.763 13.7903 110.338 13.1114 111.121 12.5987C111.911 12.086 112.905 11.8297 114.104 11.8297C115.192 11.8297 116.144 12.0583 116.962 12.5155C117.779 12.9659 118.413 13.6379 118.864 14.5316C119.314 15.4254 119.539 16.5304 119.539 17.8468V28H116.432V18.2209C116.432 17.0639 116.13 16.1598 115.528 15.5085C114.925 14.8503 114.097 14.5212 113.044 14.5212C112.323 14.5212 111.682 14.6771 111.121 14.9889C110.567 15.3007 110.127 15.7579 109.801 16.3607C109.483 16.9565 109.323 17.677 109.323 18.5223ZM130.586 28.3222C129.013 28.3222 127.659 27.9861 126.523 27.3141C125.393 26.6352 124.52 25.6825 123.904 24.4562C123.294 23.223 122.989 21.7785 122.989 20.1227C122.989 18.4876 123.294 17.0466 123.904 15.7995C124.52 14.5524 125.379 13.579 126.481 12.8793C127.59 12.1795 128.885 11.8297 130.368 11.8297C131.268 11.8297 132.141 11.9786 132.987 12.2765C133.832 12.5744 134.59 13.0421 135.263 13.6795C135.935 14.3169 136.465 15.1448 136.853 16.1632C137.241 17.1747 137.434 18.4045 137.434 19.8525V20.9541H124.746V18.6262H134.39C134.39 17.8087 134.223 17.0847 133.891 16.4542C133.558 15.8168 133.091 15.3145 132.488 14.9473C131.892 14.5801 131.192 14.3965 130.389 14.3965C129.516 14.3965 128.753 14.6113 128.102 15.0409C127.458 15.4635 126.959 16.0177 126.606 16.7036C126.259 17.3826 126.086 18.1204 126.086 18.9172V20.7358C126.086 21.8028 126.273 22.7103 126.647 23.4586C127.028 24.2068 127.558 24.7784 128.237 25.1733C128.916 25.5613 129.71 25.7553 130.617 25.7553C131.206 25.7553 131.743 25.6721 132.228 25.5059C132.713 25.3327 133.132 25.0763 133.485 24.7368C133.839 24.3974 134.109 23.9782 134.296 23.4794L137.237 24.0094C137.001 24.8754 136.579 25.634 135.969 26.2853C135.366 26.9296 134.608 27.4319 133.693 27.7922C132.786 28.1455 131.75 28.3222 130.586 28.3222ZM140.882 28V12.0375H143.885V14.5732H144.052C144.343 13.7141 144.855 13.0386 145.59 12.5467C146.331 12.0479 147.169 11.7985 148.105 11.7985C148.299 11.7985 148.527 11.8054 148.791 11.8193C149.061 11.8331 149.272 11.8504 149.425 11.8712V14.8434C149.3 14.8088 149.078 14.7707 148.759 14.7291C148.441 14.6806 148.122 14.6563 147.803 14.6563C147.069 14.6563 146.414 14.8122 145.839 15.124C145.271 15.4288 144.821 15.8549 144.488 16.4022C144.156 16.9426 143.989 17.5593 143.989 18.2521V28H140.882ZM156.616 28.3533C155.604 28.3533 154.69 28.1663 153.872 27.7922C153.055 27.4111 152.407 26.8603 151.929 26.1398C151.458 25.4193 151.222 24.5359 151.222 23.4898C151.222 22.5891 151.396 21.8478 151.742 21.2658C152.088 20.6839 152.556 20.2231 153.145 19.8837C153.734 19.5442 154.392 19.2878 155.12 19.1146C155.847 18.9414 156.588 18.8098 157.343 18.7197C158.3 18.6089 159.075 18.5188 159.671 18.4495C160.267 18.3733 160.7 18.2521 160.97 18.0858C161.241 17.9195 161.376 17.6493 161.376 17.2752V17.2025C161.376 16.2949 161.119 15.5917 160.607 15.0928C160.101 14.594 159.346 14.3446 158.341 14.3446C157.295 14.3446 156.471 14.5767 155.868 15.0409C155.272 15.4981 154.86 16.0073 154.631 16.5685L151.711 15.9034C152.057 14.9335 152.563 14.1506 153.228 13.5548C153.9 12.952 154.673 12.5155 155.546 12.2453C156.419 11.9682 157.337 11.8297 158.3 11.8297C158.937 11.8297 159.612 11.9059 160.326 12.0583C161.047 12.2038 161.719 12.474 162.342 12.8689C162.973 13.2638 163.489 13.8284 163.891 14.5628C164.292 15.2903 164.493 16.236 164.493 17.3999V28H161.459V25.8176H161.334C161.133 26.2195 160.832 26.6144 160.43 27.0023C160.028 27.3903 159.512 27.7125 158.882 27.9688C158.251 28.2252 157.496 28.3533 156.616 28.3533ZM157.291 25.8592C158.151 25.8592 158.885 25.6895 159.495 25.35C160.111 25.0105 160.579 24.5671 160.898 24.0198C161.223 23.4655 161.386 22.8732 161.386 22.2427V20.185C161.275 20.2959 161.06 20.3998 160.742 20.4968C160.43 20.5869 160.073 20.6665 159.671 20.7358C159.269 20.7982 158.878 20.8571 158.497 20.9125C158.116 20.961 157.797 21.0026 157.541 21.0372C156.938 21.1134 156.387 21.2416 155.889 21.4217C155.397 21.6018 155.002 21.8616 154.704 22.2011C154.413 22.5337 154.267 22.9771 154.267 23.5313C154.267 24.3004 154.551 24.8823 155.12 25.2772C155.688 25.6652 156.412 25.8592 157.291 25.8592ZM171.739 6.71667V28H168.632V6.71667H171.739ZM187.125 6.71667V28H183.914V6.71667H187.125ZM194.659 18.5223V28H191.552V12.0375H194.535V14.6356H194.732C195.099 13.7903 195.674 13.1114 196.457 12.5987C197.247 12.086 198.241 11.8297 199.44 11.8297C200.528 11.8297 201.48 12.0583 202.298 12.5155C203.115 12.9659 203.749 13.6379 204.2 14.5316C204.65 15.4254 204.875 16.5304 204.875 17.8468V28H201.768V18.2209C201.768 17.0639 201.466 16.1598 200.864 15.5085C200.261 14.8503 199.433 14.5212 198.38 14.5212C197.659 14.5212 197.018 14.6771 196.457 14.9889C195.903 15.3007 195.463 15.7579 195.137 16.3607C194.819 16.9565 194.659 17.677 194.659 18.5223ZM216.639 12.0375V14.5316H207.619V12.0375H216.639ZM210.092 28V10.1877C210.092 9.19002 210.31 8.36211 210.747 7.70393C211.183 7.03883 211.762 6.54346 212.482 6.21784C213.203 5.88529 213.986 5.71901 214.831 5.71901C215.454 5.71901 215.988 5.77097 216.431 5.8749C216.875 5.97189 217.204 6.06196 217.418 6.14509L216.691 8.66002C216.546 8.61845 216.358 8.56995 216.13 8.51453C215.901 8.45217 215.624 8.421 215.298 8.421C214.543 8.421 214.003 8.60806 213.677 8.98218C213.359 9.3563 213.199 9.8967 213.199 10.6034V28H210.092ZM225.94 28.3222C224.444 28.3222 223.138 27.9792 222.022 27.2933C220.907 26.6074 220.041 25.6479 219.424 24.4147C218.808 23.1815 218.499 21.7404 218.499 20.0915C218.499 18.4357 218.808 16.9877 219.424 15.7475C220.041 14.5074 220.907 13.5444 222.022 12.8585C223.138 12.1726 224.444 11.8297 225.94 11.8297C227.437 11.8297 228.743 12.1726 229.858 12.8585C230.973 13.5444 231.839 14.5074 232.456 15.7475C233.073 16.9877 233.381 18.4357 233.381 20.0915C233.381 21.7404 233.073 23.1815 232.456 24.4147C231.839 25.6479 230.973 26.6074 229.858 27.2933C228.743 27.9792 227.437 28.3222 225.94 28.3222ZM225.95 25.7137C226.92 25.7137 227.724 25.4574 228.361 24.9447C228.999 24.432 229.47 23.7496 229.775 22.8974C230.087 22.0452 230.242 21.1065 230.242 20.0811C230.242 19.0627 230.087 18.1274 229.775 17.2752C229.47 16.4161 228.999 15.7268 228.361 15.2071C227.724 14.6875 226.92 14.4277 225.95 14.4277C224.974 14.4277 224.163 14.6875 223.519 15.2071C222.881 15.7268 222.407 16.4161 222.095 17.2752C221.79 18.1274 221.638 19.0627 221.638 20.0811C221.638 21.1065 221.79 22.0452 222.095 22.8974C222.407 23.7496 222.881 24.432 223.519 24.9447C224.163 25.4574 224.974 25.7137 225.95 25.7137ZM236.849 28V12.0375H239.853V14.5732H240.019C240.31 13.7141 240.823 13.0386 241.557 12.5467C242.298 12.0479 243.137 11.7985 244.072 11.7985C244.266 11.7985 244.495 11.8054 244.758 11.8193C245.028 11.8331 245.239 11.8504 245.392 11.8712V14.8434C245.267 14.8088 245.045 14.7707 244.727 14.7291C244.408 14.6806 244.089 14.6563 243.771 14.6563C243.036 14.6563 242.382 14.8122 241.806 15.124C241.238 15.4288 240.788 15.8549 240.455 16.4022C240.123 16.9426 239.957 17.5593 239.957 18.2521V28H236.849ZM248.081 28V12.0375H251.063V14.6356H251.261C251.593 13.7557 252.137 13.0698 252.892 12.5779C253.648 12.0791 254.552 11.8297 255.605 11.8297C256.672 11.8297 257.565 12.0791 258.286 12.5779C259.013 13.0767 259.55 13.7626 259.897 14.6356H260.063C260.444 13.7834 261.05 13.1044 261.882 12.5987C262.713 12.086 263.704 11.8297 264.854 11.8297C266.302 11.8297 267.483 12.2835 268.398 13.191C269.319 14.0986 269.78 15.4669 269.78 17.296V28H266.673V17.587C266.673 16.5062 266.378 15.7233 265.789 15.2383C265.2 14.7533 264.497 14.5109 263.68 14.5109C262.668 14.5109 261.882 14.8226 261.321 15.4462C260.759 16.0628 260.479 16.856 260.479 17.826V28H257.382V17.3895C257.382 16.5235 257.112 15.8272 256.571 15.3007C256.031 14.7741 255.328 14.5109 254.462 14.5109C253.873 14.5109 253.329 14.6667 252.83 14.9785C252.338 15.2833 251.94 15.7094 251.635 16.2568C251.337 16.8041 251.188 17.438 251.188 18.1585V28H248.081ZM278.59 28.3533C277.578 28.3533 276.664 28.1663 275.846 27.7922C275.029 27.4111 274.381 26.8603 273.903 26.1398C273.432 25.4193 273.196 24.5359 273.196 23.4898C273.196 22.5891 273.369 21.8478 273.716 21.2658C274.062 20.6839 274.53 20.2231 275.119 19.8837C275.708 19.5442 276.366 19.2878 277.093 19.1146C277.821 18.9414 278.562 18.8098 279.317 18.7197C280.273 18.6089 281.049 18.5188 281.645 18.4495C282.241 18.3733 282.674 18.2521 282.944 18.0858C283.214 17.9195 283.349 17.6493 283.349 17.2752V17.2025C283.349 16.2949 283.093 15.5917 282.58 15.0928C282.075 14.594 281.32 14.3446 280.315 14.3446C279.269 14.3446 278.444 14.5767 277.842 15.0409C277.246 15.4981 276.834 16.0073 276.605 16.5685L273.685 15.9034C274.031 14.9335 274.537 14.1506 275.202 13.5548C275.874 12.952 276.646 12.5155 277.519 12.2453C278.392 11.9682 279.31 11.8297 280.273 11.8297C280.911 11.8297 281.586 11.9059 282.3 12.0583C283.02 12.2038 283.692 12.474 284.316 12.8689C284.946 13.2638 285.463 13.8284 285.864 14.5628C286.266 15.2903 286.467 16.236 286.467 17.3999V28H283.433V25.8176H283.308C283.107 26.2195 282.806 26.6144 282.404 27.0023C282.002 27.3903 281.486 27.7125 280.855 27.9688C280.225 28.2252 279.47 28.3533 278.59 28.3533ZM279.265 25.8592C280.124 25.8592 280.859 25.6895 281.468 25.35C282.085 25.0105 282.553 24.5671 282.871 24.0198C283.197 23.4655 283.36 22.8732 283.36 22.2427V20.185C283.249 20.2959 283.034 20.3998 282.716 20.4968C282.404 20.5869 282.047 20.6665 281.645 20.7358C281.243 20.7982 280.852 20.8571 280.471 20.9125C280.09 20.961 279.771 21.0026 279.515 21.0372C278.912 21.1134 278.361 21.2416 277.862 21.4217C277.37 21.6018 276.976 21.8616 276.678 22.2011C276.387 22.5337 276.241 22.9771 276.241 23.5313C276.241 24.3004 276.525 24.8823 277.093 25.2772C277.661 25.6652 278.385 25.8592 279.265 25.8592ZM298.057 12.0375V14.5316H289.338V12.0375H298.057ZM291.676 8.21315H294.784V23.3131C294.784 23.9158 294.874 24.3696 295.054 24.6745C295.234 24.9724 295.466 25.1768 295.75 25.2876C296.041 25.3915 296.356 25.4435 296.696 25.4435C296.945 25.4435 297.163 25.4262 297.35 25.3915C297.538 25.3569 297.683 25.3292 297.787 25.3084L298.348 27.8753C298.168 27.9446 297.912 28.0139 297.579 28.0831C297.247 28.1593 296.831 28.2009 296.332 28.2078C295.514 28.2217 294.752 28.0762 294.046 27.7714C293.339 27.4665 292.767 26.9954 292.331 26.358C291.895 25.7206 291.676 24.9204 291.676 23.9574V8.21315ZM301.494 28V12.0375H304.602V28H301.494ZM303.064 9.57454C302.523 9.57454 302.059 9.39441 301.671 9.03414C301.29 8.66695 301.099 8.23047 301.099 7.72472C301.099 7.21203 301.29 6.77556 301.671 6.41529C302.059 6.0481 302.523 5.8645 303.064 5.8645C303.604 5.8645 304.065 6.0481 304.446 6.41529C304.834 6.77556 305.028 7.21203 305.028 7.72472C305.028 8.23047 304.834 8.66695 304.446 9.03414C304.065 9.39441 303.604 9.57454 303.064 9.57454ZM315.506 28.3222C314.009 28.3222 312.703 27.9792 311.588 27.2933C310.472 26.6074 309.606 25.6479 308.99 24.4147C308.373 23.1815 308.065 21.7404 308.065 20.0915C308.065 18.4357 308.373 16.9877 308.99 15.7475C309.606 14.5074 310.472 13.5444 311.588 12.8585C312.703 12.1726 314.009 11.8297 315.506 11.8297C317.002 11.8297 318.308 12.1726 319.424 12.8585C320.539 13.5444 321.405 14.5074 322.022 15.7475C322.638 16.9877 322.947 18.4357 322.947 20.0915C322.947 21.7404 322.638 23.1815 322.022 24.4147C321.405 25.6479 320.539 26.6074 319.424 27.2933C318.308 27.9792 317.002 28.3222 315.506 28.3222ZM315.516 25.7137C316.486 25.7137 317.29 25.4574 317.927 24.9447C318.565 24.432 319.036 23.7496 319.34 22.8974C319.652 22.0452 319.808 21.1065 319.808 20.0811C319.808 19.0627 319.652 18.1274 319.34 17.2752C319.036 16.4161 318.565 15.7268 317.927 15.2071C317.29 14.6875 316.486 14.4277 315.516 14.4277C314.539 14.4277 313.729 14.6875 313.084 15.2071C312.447 15.7268 311.972 16.4161 311.661 17.2752C311.356 18.1274 311.203 19.0627 311.203 20.0811C311.203 21.1065 311.356 22.0452 311.661 22.8974C311.972 23.7496 312.447 24.432 313.084 24.9447C313.729 25.4574 314.539 25.7137 315.516 25.7137ZM329.522 18.5223V28H326.415V12.0375H329.398V14.6356H329.595C329.962 13.7903 330.537 13.1114 331.32 12.5987C332.11 12.086 333.104 11.8297 334.303 11.8297C335.39 11.8297 336.343 12.0583 337.161 12.5155C337.978 12.9659 338.612 13.6379 339.062 14.5316C339.513 15.4254 339.738 16.5304 339.738 17.8468V28H336.631V18.2209C336.631 17.0639 336.329 16.1598 335.726 15.5085C335.124 14.8503 334.296 14.5212 333.243 14.5212C332.522 14.5212 331.881 14.6771 331.32 14.9889C330.766 15.3007 330.326 15.7579 330 16.3607C329.682 16.9565 329.522 17.677 329.522 18.5223Z" fill="black"/>
<path d="M81.7736 130.497C81.5727 129.866 81.3025 129.301 80.963 128.803C80.6304 128.297 80.2321 127.867 79.7679 127.514C79.3037 127.154 78.7737 126.88 78.1779 126.693C77.589 126.506 76.9412 126.412 76.2345 126.412C75.036 126.412 73.9552 126.721 72.9921 127.337C72.0291 127.954 71.267 128.858 70.7058 130.05C70.1516 131.234 69.8745 132.686 69.8745 134.404C69.8745 136.129 70.1551 137.587 70.7162 138.779C71.2774 139.971 72.0464 140.875 73.0233 141.492C74.0002 142.108 75.1122 142.416 76.3592 142.416C77.5162 142.416 78.5243 142.181 79.3834 141.71C80.2494 141.239 80.918 140.574 81.3891 139.714C81.8671 138.848 82.1061 137.83 82.1061 136.659L82.9375 136.815H76.8477V134.165H85.2134V136.586C85.2134 138.374 84.8324 139.926 84.0703 141.242C83.3151 142.552 82.269 143.563 80.9318 144.277C79.6016 144.99 78.0774 145.347 76.3592 145.347C74.4332 145.347 72.7427 144.904 71.2878 144.017C69.8398 143.13 68.7105 141.873 67.8999 140.244C67.0893 138.609 66.684 136.669 66.684 134.425C66.684 132.727 66.9196 131.203 67.3907 129.852C67.8618 128.501 68.5235 127.355 69.3756 126.412C70.2347 125.463 71.2428 124.739 72.3998 124.24C73.5637 123.735 74.835 123.482 76.2137 123.482C77.3638 123.482 78.4342 123.651 79.4249 123.991C80.4226 124.33 81.3094 124.812 82.0854 125.435C82.8682 126.059 83.516 126.8 84.0287 127.659C84.5414 128.512 84.8878 129.457 85.0679 130.497H81.7736ZM95.92 145.378C94.3474 145.378 92.9929 145.042 91.8567 144.37C90.7274 143.691 89.8544 142.739 89.2378 141.512C88.6282 140.279 88.3233 138.835 88.3233 137.179C88.3233 135.544 88.6282 134.103 89.2378 132.856C89.8544 131.608 90.7135 130.635 91.8151 129.935C92.9236 129.236 94.2192 128.886 95.7018 128.886C96.6025 128.886 97.4754 129.035 98.3207 129.333C99.1659 129.63 99.9245 130.098 100.597 130.736C101.269 131.373 101.799 132.201 102.187 133.219C102.575 134.231 102.769 135.461 102.769 136.909V138.01H90.0796V135.682H99.7236C99.7236 134.865 99.5573 134.141 99.2248 133.51C98.8922 132.873 98.4246 132.371 97.8218 132.003C97.226 131.636 96.5263 131.453 95.7226 131.453C94.8496 131.453 94.0875 131.667 93.4363 132.097C92.792 132.52 92.2932 133.074 91.9398 133.76C91.5934 134.439 91.4202 135.176 91.4202 135.973V137.792C91.4202 138.859 91.6073 139.766 91.9814 140.515C92.3624 141.263 92.8924 141.834 93.5714 142.229C94.2504 142.617 95.0436 142.811 95.9512 142.811C96.5401 142.811 97.0771 142.728 97.562 142.562C98.047 142.389 98.4661 142.132 98.8195 141.793C99.1728 141.453 99.443 141.034 99.6301 140.535L102.571 141.065C102.336 141.931 101.913 142.69 101.303 143.341C100.7 143.986 99.9418 144.488 99.0273 144.848C98.1197 145.202 97.084 145.378 95.92 145.378ZM109.323 135.578V145.056H106.216V129.094H109.199V131.692H109.396C109.763 130.846 110.338 130.167 111.121 129.655C111.911 129.142 112.905 128.886 114.104 128.886C115.192 128.886 116.144 129.114 116.962 129.572C117.779 130.022 118.413 130.694 118.864 131.588C119.314 132.481 119.539 133.586 119.539 134.903V145.056H116.432V135.277C116.432 134.12 116.13 133.216 115.528 132.565C114.925 131.906 114.097 131.577 113.044 131.577C112.323 131.577 111.682 131.733 111.121 132.045C110.567 132.357 110.127 132.814 109.801 133.417C109.483 134.013 109.323 134.733 109.323 135.578ZM130.586 145.378C129.013 145.378 127.659 145.042 126.523 144.37C125.393 143.691 124.52 142.739 123.904 141.512C123.294 140.279 122.989 138.835 122.989 137.179C122.989 135.544 123.294 134.103 123.904 132.856C124.52 131.608 125.379 130.635 126.481 129.935C127.59 129.236 128.885 128.886 130.368 128.886C131.268 128.886 132.141 129.035 132.987 129.333C133.832 129.63 134.59 130.098 135.263 130.736C135.935 131.373 136.465 132.201 136.853 133.219C137.241 134.231 137.434 135.461 137.434 136.909V138.01H124.746V135.682H134.39C134.39 134.865 134.223 134.141 133.891 133.51C133.558 132.873 133.091 132.371 132.488 132.003C131.892 131.636 131.192 131.453 130.389 131.453C129.516 131.453 128.753 131.667 128.102 132.097C127.458 132.52 126.959 133.074 126.606 133.76C126.259 134.439 126.086 135.176 126.086 135.973V137.792C126.086 138.859 126.273 139.766 126.647 140.515C127.028 141.263 127.558 141.834 128.237 142.229C128.916 142.617 129.71 142.811 130.617 142.811C131.206 142.811 131.743 142.728 132.228 142.562C132.713 142.389 133.132 142.132 133.485 141.793C133.839 141.453 134.109 141.034 134.296 140.535L137.237 141.065C137.001 141.931 136.579 142.69 135.969 143.341C135.366 143.986 134.608 144.488 133.693 144.848C132.786 145.202 131.75 145.378 130.586 145.378ZM140.882 145.056V129.094H143.885V131.629H144.052C144.343 130.77 144.855 130.095 145.59 129.603C146.331 129.104 147.169 128.855 148.105 128.855C148.299 128.855 148.527 128.861 148.791 128.875C149.061 128.889 149.272 128.906 149.425 128.927V131.899C149.3 131.865 149.078 131.827 148.759 131.785C148.441 131.737 148.122 131.712 147.803 131.712C147.069 131.712 146.414 131.868 145.839 132.18C145.271 132.485 144.821 132.911 144.488 133.458C144.156 133.999 143.989 134.615 143.989 135.308V145.056H140.882ZM156.616 145.409C155.604 145.409 154.69 145.222 153.872 144.848C153.055 144.467 152.407 143.916 151.929 143.196C151.458 142.475 151.222 141.592 151.222 140.546C151.222 139.645 151.396 138.904 151.742 138.322C152.088 137.74 152.556 137.279 153.145 136.94C153.734 136.6 154.392 136.344 155.12 136.171C155.847 135.997 156.588 135.866 157.343 135.776C158.3 135.665 159.075 135.575 159.671 135.506C160.267 135.429 160.7 135.308 160.97 135.142C161.241 134.976 161.376 134.705 161.376 134.331V134.258C161.376 133.351 161.119 132.648 160.607 132.149C160.101 131.65 159.346 131.401 158.341 131.401C157.295 131.401 156.471 131.633 155.868 132.097C155.272 132.554 154.86 133.063 154.631 133.625L151.711 132.959C152.057 131.99 152.563 131.207 153.228 130.611C153.9 130.008 154.673 129.572 155.546 129.301C156.419 129.024 157.337 128.886 158.3 128.886C158.937 128.886 159.612 128.962 160.326 129.114C161.047 129.26 161.719 129.53 162.342 129.925C162.973 130.32 163.489 130.884 163.891 131.619C164.292 132.346 164.493 133.292 164.493 134.456V145.056H161.459V142.874H161.334C161.133 143.276 160.832 143.67 160.43 144.058C160.028 144.446 159.512 144.769 158.882 145.025C158.251 145.281 157.496 145.409 156.616 145.409ZM157.291 142.915C158.151 142.915 158.885 142.746 159.495 142.406C160.111 142.067 160.579 141.623 160.898 141.076C161.223 140.522 161.386 139.929 161.386 139.299V137.241C161.275 137.352 161.06 137.456 160.742 137.553C160.43 137.643 160.073 137.723 159.671 137.792C159.269 137.854 158.878 137.913 158.497 137.969C158.116 138.017 157.797 138.059 157.541 138.093C156.938 138.169 156.387 138.298 155.889 138.478C155.397 138.658 155.002 138.918 154.704 139.257C154.413 139.59 154.267 140.033 154.267 140.587C154.267 141.356 154.551 141.938 155.12 142.333C155.688 142.721 156.412 142.915 157.291 142.915ZM171.739 123.773V145.056H168.632V123.773H171.739ZM190.804 145.056H183.914V123.773H191.022C193.108 123.773 194.898 124.199 196.395 125.051C197.891 125.896 199.038 127.112 199.835 128.699C200.638 130.278 201.04 132.173 201.04 134.383C201.04 136.6 200.635 138.505 199.824 140.099C199.021 141.692 197.857 142.919 196.333 143.778C194.808 144.63 192.965 145.056 190.804 145.056ZM187.125 142.25H190.627C192.248 142.25 193.596 141.945 194.67 141.336C195.744 140.719 196.547 139.829 197.081 138.665C197.614 137.494 197.881 136.067 197.881 134.383C197.881 132.714 197.614 131.297 197.081 130.133C196.554 128.969 195.768 128.085 194.722 127.483C193.676 126.88 192.377 126.579 190.825 126.579H187.125V142.25ZM211.508 145.378C210.011 145.378 208.705 145.035 207.59 144.349C206.475 143.663 205.609 142.704 204.992 141.471C204.375 140.238 204.067 138.796 204.067 137.148C204.067 135.492 204.375 134.044 204.992 132.804C205.609 131.563 206.475 130.6 207.59 129.915C208.705 129.229 210.011 128.886 211.508 128.886C213.004 128.886 214.31 129.229 215.426 129.915C216.541 130.6 217.407 131.563 218.024 132.804C218.64 134.044 218.949 135.492 218.949 137.148C218.949 138.796 218.64 140.238 218.024 141.471C217.407 142.704 216.541 143.663 215.426 144.349C214.31 145.035 213.004 145.378 211.508 145.378ZM211.518 142.77C212.488 142.77 213.292 142.513 213.929 142.001C214.567 141.488 215.038 140.806 215.343 139.953C215.654 139.101 215.81 138.163 215.81 137.137C215.81 136.119 215.654 135.183 215.343 134.331C215.038 133.472 214.567 132.783 213.929 132.263C213.292 131.744 212.488 131.484 211.518 131.484C210.541 131.484 209.731 131.744 209.086 132.263C208.449 132.783 207.975 133.472 207.663 134.331C207.358 135.183 207.205 136.119 207.205 137.137C207.205 138.163 207.358 139.101 207.663 139.953C207.975 140.806 208.449 141.488 209.086 142.001C209.731 142.513 210.541 142.77 211.518 142.77ZM229.141 145.378C227.596 145.378 226.266 145.028 225.15 144.329C224.042 143.622 223.19 142.649 222.594 141.408C221.998 140.168 221.7 138.748 221.7 137.148C221.7 135.526 222.005 134.096 222.615 132.856C223.224 131.608 224.083 130.635 225.192 129.935C226.3 129.236 227.606 128.886 229.11 128.886C230.322 128.886 231.403 129.111 232.352 129.561C233.301 130.005 234.067 130.628 234.649 131.432C235.238 132.235 235.588 133.174 235.698 134.248H232.674C232.508 133.5 232.127 132.856 231.531 132.315C230.942 131.775 230.152 131.505 229.162 131.505C228.296 131.505 227.537 131.733 226.886 132.19C226.241 132.641 225.739 133.285 225.379 134.123C225.019 134.955 224.839 135.939 224.839 137.075C224.839 138.239 225.015 139.243 225.369 140.089C225.722 140.934 226.221 141.588 226.865 142.053C227.516 142.517 228.282 142.749 229.162 142.749C229.751 142.749 230.284 142.642 230.762 142.427C231.247 142.205 231.652 141.89 231.978 141.481C232.311 141.072 232.543 140.58 232.674 140.005H235.698C235.588 141.038 235.252 141.959 234.69 142.77C234.129 143.58 233.377 144.218 232.435 144.682C231.5 145.146 230.402 145.378 229.141 145.378ZM249.133 138.436V129.094H252.251V145.056H249.195V142.292H249.029C248.662 143.144 248.073 143.854 247.262 144.422C246.459 144.983 245.458 145.264 244.259 145.264C243.234 145.264 242.326 145.039 241.536 144.588C240.753 144.131 240.137 143.456 239.686 142.562C239.243 141.668 239.021 140.563 239.021 139.247V129.094H242.129V138.873C242.129 139.96 242.43 140.826 243.033 141.471C243.636 142.115 244.418 142.437 245.381 142.437C245.963 142.437 246.542 142.292 247.117 142.001C247.699 141.71 248.18 141.27 248.561 140.681C248.949 140.092 249.14 139.344 249.133 138.436ZM256.426 145.056V129.094H259.408V131.692H259.606C259.938 130.812 260.482 130.126 261.237 129.634C261.993 129.135 262.897 128.886 263.95 128.886C265.017 128.886 265.91 129.135 266.631 129.634C267.358 130.133 267.895 130.819 268.242 131.692H268.408C268.789 130.839 269.395 130.16 270.227 129.655C271.058 129.142 272.049 128.886 273.199 128.886C274.647 128.886 275.828 129.339 276.743 130.247C277.664 131.155 278.125 132.523 278.125 134.352V145.056H275.018V134.643C275.018 133.562 274.723 132.779 274.134 132.294C273.545 131.809 272.842 131.567 272.025 131.567C271.013 131.567 270.227 131.879 269.666 132.502C269.104 133.119 268.824 133.912 268.824 134.882V145.056H265.727V134.446C265.727 133.58 265.457 132.883 264.916 132.357C264.376 131.83 263.673 131.567 262.807 131.567C262.218 131.567 261.674 131.723 261.175 132.035C260.683 132.339 260.285 132.765 259.98 133.313C259.682 133.86 259.533 134.494 259.533 135.215V145.056H256.426ZM289.169 145.378C287.596 145.378 286.242 145.042 285.106 144.37C283.976 143.691 283.104 142.739 282.487 141.512C281.877 140.279 281.572 138.835 281.572 137.179C281.572 135.544 281.877 134.103 282.487 132.856C283.104 131.608 283.963 130.635 285.064 129.935C286.173 129.236 287.468 128.886 288.951 128.886C289.852 128.886 290.725 129.035 291.57 129.333C292.415 129.63 293.174 130.098 293.846 130.736C294.518 131.373 295.048 132.201 295.436 133.219C295.824 134.231 296.018 135.461 296.018 136.909V138.01H283.329V135.682H292.973C292.973 134.865 292.806 134.141 292.474 133.51C292.141 132.873 291.674 132.371 291.071 132.003C290.475 131.636 289.775 131.453 288.972 131.453C288.099 131.453 287.337 131.667 286.685 132.097C286.041 132.52 285.542 133.074 285.189 133.76C284.843 134.439 284.669 135.176 284.669 135.973V137.792C284.669 138.859 284.856 139.766 285.23 140.515C285.612 141.263 286.142 141.834 286.821 142.229C287.499 142.617 288.293 142.811 289.2 142.811C289.789 142.811 290.326 142.728 290.811 142.562C291.296 142.389 291.715 142.132 292.069 141.793C292.422 141.453 292.692 141.034 292.879 140.535L295.82 141.065C295.585 141.931 295.162 142.69 294.552 143.341C293.95 143.986 293.191 144.488 292.276 144.848C291.369 145.202 290.333 145.378 289.169 145.378ZM302.573 135.578V145.056H299.465V129.094H302.448V131.692H302.645C303.012 130.846 303.588 130.167 304.37 129.655C305.16 129.142 306.154 128.886 307.353 128.886C308.441 128.886 309.393 129.114 310.211 129.572C311.028 130.022 311.662 130.694 312.113 131.588C312.563 132.481 312.788 133.586 312.788 134.903V145.056H309.681V135.277C309.681 134.12 309.379 133.216 308.777 132.565C308.174 131.906 307.346 131.577 306.293 131.577C305.572 131.577 304.932 131.733 304.37 132.045C303.816 132.357 303.376 132.814 303.051 133.417C302.732 134.013 302.573 134.733 302.573 135.578ZM324.407 129.094V131.588H315.688V129.094H324.407ZM318.026 125.269H321.133V140.369C321.133 140.972 321.223 141.426 321.403 141.731C321.583 142.028 321.816 142.233 322.1 142.344C322.391 142.448 322.706 142.5 323.045 142.5C323.295 142.5 323.513 142.482 323.7 142.448C323.887 142.413 324.033 142.385 324.136 142.364L324.698 144.931C324.518 145.001 324.261 145.07 323.929 145.139C323.596 145.215 323.18 145.257 322.682 145.264C321.864 145.278 321.102 145.132 320.395 144.827C319.689 144.523 319.117 144.051 318.681 143.414C318.244 142.777 318.026 141.976 318.026 141.013V125.269ZM339.548 132.991L336.732 133.489C336.614 133.129 336.427 132.786 336.171 132.461C335.921 132.135 335.582 131.868 335.152 131.66C334.723 131.453 334.186 131.349 333.541 131.349C332.662 131.349 331.927 131.546 331.338 131.941C330.749 132.329 330.455 132.831 330.455 133.448C330.455 133.981 330.652 134.411 331.047 134.737C331.442 135.062 332.08 135.329 332.96 135.537L335.495 136.119C336.964 136.458 338.059 136.981 338.779 137.688C339.5 138.395 339.86 139.313 339.86 140.442C339.86 141.398 339.583 142.25 339.029 142.998C338.481 143.74 337.716 144.322 336.732 144.744C335.755 145.167 334.622 145.378 333.334 145.378C331.546 145.378 330.088 144.997 328.958 144.235C327.829 143.466 327.136 142.375 326.88 140.961L329.883 140.504C330.07 141.287 330.455 141.879 331.037 142.281C331.619 142.676 332.378 142.874 333.313 142.874C334.331 142.874 335.145 142.662 335.755 142.24C336.365 141.81 336.67 141.287 336.67 140.671C336.67 140.172 336.482 139.753 336.108 139.413C335.741 139.074 335.177 138.817 334.414 138.644L331.712 138.052C330.223 137.712 329.121 137.172 328.408 136.43C327.701 135.689 327.348 134.75 327.348 133.614C327.348 132.672 327.611 131.847 328.137 131.141C328.664 130.434 329.391 129.883 330.32 129.488C331.248 129.087 332.312 128.886 333.51 128.886C335.235 128.886 336.593 129.26 337.584 130.008C338.575 130.749 339.229 131.744 339.548 132.991Z" fill="black"/>
<path opacity="0.5" d="M78.9781 246.425C78.8672 245.441 78.41 244.679 77.6063 244.138C76.8026 243.591 75.7911 243.317 74.5718 243.317C73.6988 243.317 72.9436 243.456 72.3063 243.733C71.6689 244.003 71.1735 244.377 70.8202 244.855C70.4738 245.327 70.3005 245.863 70.3005 246.466C70.3005 246.972 70.4183 247.408 70.6539 247.776C70.8964 248.143 71.2116 248.451 71.5996 248.701C71.9945 248.943 72.4171 249.147 72.8674 249.314C73.3178 249.473 73.7508 249.605 74.1665 249.709L76.2449 250.249C76.9239 250.415 77.6202 250.64 78.3338 250.924C79.0474 251.209 79.709 251.583 80.3187 252.047C80.9284 252.511 81.4203 253.086 81.7944 253.772C82.1754 254.458 82.366 255.279 82.366 256.235C82.366 257.44 82.0542 258.511 81.4306 259.446C80.814 260.381 79.9168 261.119 78.7391 261.66C77.5682 262.2 76.1514 262.47 74.4886 262.47C72.8951 262.47 71.5164 262.217 70.3525 261.712C69.1886 261.206 68.2775 260.489 67.6193 259.56C66.9612 258.625 66.5974 257.517 66.5282 256.235H69.7498C69.8121 257.004 70.0615 257.645 70.498 258.157C70.9414 258.663 71.506 259.041 72.1919 259.29C72.8848 259.533 73.6434 259.654 74.4678 259.654C75.3754 259.654 76.1826 259.512 76.8892 259.228C77.6028 258.937 78.164 258.535 78.5728 258.022C78.9815 257.503 79.1859 256.897 79.1859 256.204C79.1859 255.573 79.0058 255.057 78.6455 254.655C78.2922 254.253 77.8107 253.921 77.201 253.658C76.5983 253.394 75.9158 253.162 75.1537 252.961L72.6388 252.275C70.9345 251.811 69.5835 251.129 68.5858 250.228C67.5951 249.328 67.0997 248.136 67.0997 246.653C67.0997 245.427 67.4323 244.357 68.0974 243.442C68.7625 242.528 69.6632 241.817 70.7994 241.312C71.9356 240.799 73.2173 240.543 74.6445 240.543C76.0856 240.543 77.3569 240.796 78.4585 241.301C79.567 241.807 80.4399 242.503 81.0773 243.39C81.7147 244.27 82.0473 245.281 82.075 246.425H78.9781ZM89.0612 252.639V262.117H85.9539V240.834H89.0196V248.753H89.217C89.5912 247.893 90.1627 247.211 90.9318 246.705C91.7008 246.199 92.7054 245.947 93.9455 245.947C95.0402 245.947 95.9963 246.172 96.8138 246.622C97.6382 247.072 98.2756 247.744 98.726 248.638C99.1832 249.525 99.4118 250.634 99.4118 251.964V262.117H96.3046V252.338C96.3046 251.167 96.0032 250.259 95.4004 249.615C94.7977 248.964 93.9594 248.638 92.8855 248.638C92.1511 248.638 91.4929 248.794 90.911 249.106C90.3359 249.418 89.8821 249.875 89.5496 250.478C89.224 251.073 89.0612 251.794 89.0612 252.639ZM108.204 262.47C107.192 262.47 106.278 262.283 105.46 261.909C104.643 261.528 103.995 260.977 103.517 260.257C103.046 259.536 102.81 258.653 102.81 257.607C102.81 256.706 102.983 255.965 103.33 255.383C103.676 254.801 104.144 254.34 104.733 254.001C105.322 253.661 105.98 253.405 106.707 253.232C107.435 253.058 108.176 252.927 108.931 252.837C109.887 252.726 110.663 252.636 111.259 252.566C111.855 252.49 112.288 252.369 112.558 252.203C112.828 252.036 112.963 251.766 112.963 251.392V251.319C112.963 250.412 112.707 249.709 112.194 249.21C111.689 248.711 110.933 248.462 109.929 248.462C108.883 248.462 108.058 248.694 107.455 249.158C106.86 249.615 106.447 250.124 106.219 250.685L103.299 250.02C103.645 249.05 104.151 248.268 104.816 247.672C105.488 247.069 106.26 246.632 107.133 246.362C108.006 246.085 108.924 245.947 109.887 245.947C110.525 245.947 111.2 246.023 111.914 246.175C112.634 246.321 113.306 246.591 113.93 246.986C114.56 247.381 115.076 247.945 115.478 248.68C115.88 249.407 116.081 250.353 116.081 251.517V262.117H113.046V259.935H112.922C112.721 260.336 112.419 260.731 112.018 261.119C111.616 261.507 111.1 261.829 110.469 262.086C109.839 262.342 109.084 262.47 108.204 262.47ZM108.879 259.976C109.738 259.976 110.473 259.806 111.082 259.467C111.699 259.127 112.167 258.684 112.485 258.137C112.811 257.582 112.974 256.99 112.974 256.36V254.302C112.863 254.413 112.648 254.517 112.329 254.614C112.018 254.704 111.661 254.783 111.259 254.853C110.857 254.915 110.466 254.974 110.085 255.029C109.704 255.078 109.385 255.119 109.129 255.154C108.526 255.23 107.975 255.359 107.476 255.539C106.984 255.719 106.589 255.979 106.292 256.318C106.001 256.651 105.855 257.094 105.855 257.648C105.855 258.417 106.139 258.999 106.707 259.394C107.275 259.782 107.999 259.976 108.879 259.976ZM120.22 262.117V246.154H123.223V248.69H123.389C123.68 247.831 124.193 247.156 124.927 246.664C125.669 246.165 126.507 245.915 127.442 245.915C127.636 245.915 127.865 245.922 128.128 245.936C128.398 245.95 128.61 245.967 128.762 245.988V248.96C128.637 248.926 128.416 248.888 128.097 248.846C127.778 248.798 127.46 248.773 127.141 248.773C126.407 248.773 125.752 248.929 125.177 249.241C124.609 249.546 124.158 249.972 123.826 250.519C123.493 251.06 123.327 251.676 123.327 252.369V262.117H120.22ZM137.759 262.439C136.187 262.439 134.832 262.103 133.696 261.431C132.567 260.752 131.694 259.799 131.077 258.573C130.467 257.34 130.163 255.895 130.163 254.24C130.163 252.605 130.467 251.164 131.077 249.916C131.694 248.669 132.553 247.696 133.654 246.996C134.763 246.296 136.058 245.947 137.541 245.947C138.442 245.947 139.315 246.096 140.16 246.393C141.005 246.691 141.764 247.159 142.436 247.796C143.108 248.434 143.638 249.262 144.026 250.28C144.414 251.292 144.608 252.521 144.608 253.969V255.071H131.919V252.743H141.563C141.563 251.926 141.397 251.202 141.064 250.571C140.731 249.934 140.264 249.431 139.661 249.064C139.065 248.697 138.365 248.513 137.562 248.513C136.689 248.513 135.927 248.728 135.276 249.158C134.631 249.58 134.132 250.135 133.779 250.821C133.433 251.5 133.259 252.237 133.259 253.034V254.853C133.259 255.92 133.446 256.827 133.821 257.576C134.202 258.324 134.732 258.895 135.411 259.29C136.09 259.678 136.883 259.872 137.79 259.872C138.379 259.872 138.916 259.789 139.401 259.623C139.886 259.45 140.305 259.193 140.659 258.854C141.012 258.514 141.282 258.095 141.469 257.596L144.41 258.126C144.175 258.992 143.752 259.751 143.142 260.402C142.54 261.047 141.781 261.549 140.867 261.909C139.959 262.262 138.923 262.439 137.759 262.439ZM151.163 252.639V262.117H148.055V240.834H151.121V248.753H151.319C151.693 247.893 152.264 247.211 153.033 246.705C153.802 246.199 154.807 245.947 156.047 245.947C157.142 245.947 158.098 246.172 158.915 246.622C159.74 247.072 160.377 247.744 160.827 248.638C161.285 249.525 161.513 250.634 161.513 251.964V262.117H158.406V252.338C158.406 251.167 158.105 250.259 157.502 249.615C156.899 248.964 156.061 248.638 154.987 248.638C154.253 248.638 153.594 248.794 153.012 249.106C152.437 249.418 151.984 249.875 151.651 250.478C151.325 251.073 151.163 251.794 151.163 252.639ZM172.384 262.439C170.887 262.439 169.581 262.096 168.466 261.41C167.35 260.724 166.484 259.765 165.868 258.532C165.251 257.298 164.943 255.857 164.943 254.208C164.943 252.553 165.251 251.105 165.868 249.864C166.484 248.624 167.35 247.661 168.466 246.975C169.581 246.29 170.887 245.947 172.384 245.947C173.88 245.947 175.186 246.29 176.302 246.975C177.417 247.661 178.283 248.624 178.9 249.864C179.516 251.105 179.824 252.553 179.824 254.208C179.824 255.857 179.516 257.298 178.9 258.532C178.283 259.765 177.417 260.724 176.302 261.41C175.186 262.096 173.88 262.439 172.384 262.439ZM172.394 259.831C173.364 259.831 174.168 259.574 174.805 259.062C175.442 258.549 175.914 257.867 176.218 257.014C176.53 256.162 176.686 255.223 176.686 254.198C176.686 253.18 176.53 252.244 176.218 251.392C175.914 250.533 175.442 249.844 174.805 249.324C174.168 248.804 173.364 248.545 172.394 248.545C171.417 248.545 170.607 248.804 169.962 249.324C169.325 249.844 168.85 250.533 168.538 251.392C168.234 252.244 168.081 253.18 168.081 254.198C168.081 255.223 168.234 256.162 168.538 257.014C168.85 257.867 169.325 258.549 169.962 259.062C170.607 259.574 171.417 259.831 172.394 259.831ZM186.4 240.834V262.117H183.293V240.834H186.4ZM196.556 262.429C195.267 262.429 194.117 262.1 193.106 261.441C192.101 260.776 191.311 259.831 190.736 258.604C190.168 257.371 189.884 255.892 189.884 254.167C189.884 252.442 190.172 250.966 190.747 249.74C191.329 248.513 192.125 247.575 193.137 246.923C194.148 246.272 195.295 245.947 196.577 245.947C197.568 245.947 198.364 246.113 198.967 246.445C199.577 246.771 200.048 247.152 200.38 247.589C200.72 248.025 200.983 248.41 201.17 248.742H201.357V240.834H204.465V262.117H201.43V259.633H201.17C200.983 259.973 200.713 260.361 200.36 260.797C200.013 261.234 199.535 261.615 198.925 261.94C198.316 262.266 197.526 262.429 196.556 262.429ZM197.242 259.779C198.136 259.779 198.891 259.543 199.507 259.072C200.131 258.594 200.602 257.932 200.921 257.087C201.246 256.242 201.409 255.258 201.409 254.136C201.409 253.027 201.25 252.057 200.931 251.226C200.612 250.394 200.145 249.747 199.528 249.283C198.912 248.818 198.149 248.586 197.242 248.586C196.307 248.586 195.527 248.829 194.904 249.314C194.28 249.799 193.809 250.46 193.49 251.299C193.179 252.137 193.023 253.083 193.023 254.136C193.023 255.203 193.182 256.162 193.501 257.014C193.819 257.867 194.29 258.542 194.914 259.041C195.544 259.533 196.32 259.779 197.242 259.779ZM215.779 262.439C214.206 262.439 212.852 262.103 211.716 261.431C210.586 260.752 209.713 259.799 209.097 258.573C208.487 257.34 208.182 255.895 208.182 254.24C208.182 252.605 208.487 251.164 209.097 249.916C209.713 248.669 210.573 247.696 211.674 246.996C212.783 246.296 214.078 245.947 215.561 245.947C216.461 245.947 217.334 246.096 218.18 246.393C219.025 246.691 219.784 247.159 220.456 247.796C221.128 248.434 221.658 249.262 222.046 250.28C222.434 251.292 222.628 252.521 222.628 253.969V255.071H209.939V252.743H219.583C219.583 251.926 219.416 251.202 219.084 250.571C218.751 249.934 218.284 249.431 217.681 249.064C217.085 248.697 216.385 248.513 215.582 248.513C214.709 248.513 213.947 248.728 213.295 249.158C212.651 249.58 212.152 250.135 211.799 250.821C211.452 251.5 211.279 252.237 211.279 253.034V254.853C211.279 255.92 211.466 256.827 211.84 257.576C212.221 258.324 212.751 258.895 213.43 259.29C214.109 259.678 214.903 259.872 215.81 259.872C216.399 259.872 216.936 259.789 217.421 259.623C217.906 259.45 218.325 259.193 218.679 258.854C219.032 258.514 219.302 258.095 219.489 257.596L222.43 258.126C222.195 258.992 221.772 259.751 221.162 260.402C220.56 261.047 219.801 261.549 218.886 261.909C217.979 262.262 216.943 262.439 215.779 262.439ZM226.075 262.117V246.154H229.079V248.69H229.245C229.536 247.831 230.049 247.156 230.783 246.664C231.524 246.165 232.363 245.915 233.298 245.915C233.492 245.915 233.72 245.922 233.984 245.936C234.254 245.95 234.465 245.967 234.618 245.988V248.96C234.493 248.926 234.271 248.888 233.953 248.846C233.634 248.798 233.315 248.773 232.996 248.773C232.262 248.773 231.607 248.929 231.032 249.241C230.464 249.546 230.014 249.972 229.681 250.519C229.349 251.06 229.182 251.676 229.182 252.369V262.117H226.075ZM252.191 262.117H245.301V240.834H252.409C254.495 240.834 256.285 241.26 257.782 242.112C259.278 242.957 260.425 244.173 261.222 245.76C262.025 247.339 262.427 249.234 262.427 251.444C262.427 253.661 262.022 255.566 261.211 257.16C260.408 258.753 259.244 259.98 257.72 260.839C256.195 261.691 254.353 262.117 252.191 262.117ZM248.512 259.311H252.014C253.635 259.311 254.983 259.006 256.057 258.397C257.131 257.78 257.934 256.89 258.468 255.726C259.001 254.555 259.268 253.128 259.268 251.444C259.268 249.774 259.001 248.358 258.468 247.194C257.941 246.03 257.155 245.146 256.109 244.544C255.063 243.941 253.764 243.64 252.212 243.64H248.512V259.311ZM273.051 262.439C271.478 262.439 270.124 262.103 268.987 261.431C267.858 260.752 266.985 259.799 266.369 258.573C265.759 257.34 265.454 255.895 265.454 254.24C265.454 252.605 265.759 251.164 266.369 249.916C266.985 248.669 267.844 247.696 268.946 246.996C270.054 246.296 271.35 245.947 272.833 245.947C273.733 245.947 274.606 246.096 275.451 246.393C276.297 246.691 277.055 247.159 277.727 247.796C278.399 248.434 278.929 249.262 279.317 250.28C279.705 251.292 279.899 252.521 279.899 253.969V255.071H267.21V252.743H276.854C276.854 251.926 276.688 251.202 276.356 250.571C276.023 249.934 275.555 249.431 274.953 249.064C274.357 248.697 273.657 248.513 272.853 248.513C271.98 248.513 271.218 248.728 270.567 249.158C269.923 249.58 269.424 250.135 269.071 250.821C268.724 251.5 268.551 252.237 268.551 253.034V254.853C268.551 255.92 268.738 256.827 269.112 257.576C269.493 258.324 270.023 258.895 270.702 259.29C271.381 259.678 272.174 259.872 273.082 259.872C273.671 259.872 274.208 259.789 274.693 259.623C275.178 259.45 275.597 259.193 275.95 258.854C276.304 258.514 276.574 258.095 276.761 257.596L279.702 258.126C279.466 258.992 279.044 259.751 278.434 260.402C277.831 261.047 277.073 261.549 276.158 261.909C275.25 262.262 274.215 262.439 273.051 262.439ZM290.798 246.154V248.649H282.079V246.154H290.798ZM284.417 242.33H287.525V257.43C287.525 258.033 287.615 258.487 287.795 258.791C287.975 259.089 288.207 259.294 288.491 259.405C288.782 259.508 289.097 259.56 289.437 259.56C289.686 259.56 289.904 259.543 290.091 259.508C290.279 259.474 290.424 259.446 290.528 259.425L291.089 261.992C290.909 262.062 290.653 262.131 290.32 262.2C289.988 262.276 289.572 262.318 289.073 262.325C288.256 262.339 287.493 262.193 286.787 261.888C286.08 261.583 285.508 261.112 285.072 260.475C284.636 259.838 284.417 259.037 284.417 258.074V242.33ZM298.881 262.47C297.869 262.47 296.955 262.283 296.137 261.909C295.32 261.528 294.672 260.977 294.194 260.257C293.723 259.536 293.487 258.653 293.487 257.607C293.487 256.706 293.66 255.965 294.007 255.383C294.353 254.801 294.821 254.34 295.41 254.001C295.999 253.661 296.657 253.405 297.384 253.232C298.112 253.058 298.853 252.927 299.608 252.837C300.564 252.726 301.34 252.636 301.936 252.566C302.532 252.49 302.965 252.369 303.235 252.203C303.505 252.036 303.64 251.766 303.64 251.392V251.319C303.64 250.412 303.384 249.709 302.871 249.21C302.366 248.711 301.61 248.462 300.606 248.462C299.56 248.462 298.735 248.694 298.132 249.158C297.537 249.615 297.124 250.124 296.896 250.685L293.976 250.02C294.322 249.05 294.828 248.268 295.493 247.672C296.165 247.069 296.937 246.632 297.81 246.362C298.683 246.085 299.601 245.947 300.564 245.947C301.202 245.947 301.877 246.023 302.591 246.175C303.311 246.321 303.983 246.591 304.607 246.986C305.237 247.381 305.753 247.945 306.155 248.68C306.557 249.407 306.758 250.353 306.758 251.517V262.117H303.723V259.935H303.599C303.398 260.336 303.096 260.731 302.695 261.119C302.293 261.507 301.777 261.829 301.146 262.086C300.516 262.342 299.761 262.47 298.881 262.47ZM299.556 259.976C300.415 259.976 301.15 259.806 301.759 259.467C302.376 259.127 302.844 258.684 303.162 258.137C303.488 257.582 303.651 256.99 303.651 256.36V254.302C303.54 254.413 303.325 254.517 303.006 254.614C302.695 254.704 302.338 254.783 301.936 254.853C301.534 254.915 301.143 254.974 300.762 255.029C300.381 255.078 300.062 255.119 299.806 255.154C299.203 255.23 298.652 255.359 298.153 255.539C297.661 255.719 297.266 255.979 296.969 256.318C296.678 256.651 296.532 257.094 296.532 257.648C296.532 258.417 296.816 258.999 297.384 259.394C297.952 259.782 298.676 259.976 299.556 259.976ZM310.897 262.117V246.154H314.004V262.117H310.897ZM312.466 243.691C311.926 243.691 311.461 243.511 311.073 243.151C310.692 242.784 310.502 242.347 310.502 241.842C310.502 241.329 310.692 240.893 311.073 240.532C311.461 240.165 311.926 239.981 312.466 239.981C313.006 239.981 313.467 240.165 313.848 240.532C314.236 240.893 314.43 241.329 314.43 241.842C314.43 242.347 314.236 242.784 313.848 243.151C313.467 243.511 313.006 243.691 312.466 243.691ZM321.292 240.834V262.117H318.184V240.834H321.292ZM337.433 250.052L334.617 250.55C334.499 250.19 334.312 249.847 334.056 249.522C333.806 249.196 333.467 248.929 333.037 248.721C332.608 248.513 332.071 248.41 331.427 248.41C330.547 248.41 329.812 248.607 329.224 249.002C328.635 249.39 328.34 249.892 328.34 250.509C328.34 251.042 328.538 251.472 328.933 251.797C329.327 252.123 329.965 252.39 330.845 252.598L333.38 253.18C334.849 253.519 335.944 254.042 336.664 254.749C337.385 255.456 337.745 256.373 337.745 257.503C337.745 258.459 337.468 259.311 336.914 260.059C336.366 260.801 335.601 261.383 334.617 261.805C333.64 262.228 332.507 262.439 331.219 262.439C329.431 262.439 327.973 262.058 326.844 261.296C325.714 260.527 325.022 259.436 324.765 258.022L327.769 257.565C327.956 258.348 328.34 258.94 328.922 259.342C329.504 259.737 330.263 259.935 331.198 259.935C332.216 259.935 333.031 259.723 333.64 259.301C334.25 258.871 334.555 258.348 334.555 257.731C334.555 257.233 334.368 256.813 333.994 256.474C333.626 256.134 333.062 255.878 332.3 255.705L329.598 255.113C328.108 254.773 327.006 254.233 326.293 253.491C325.586 252.75 325.233 251.811 325.233 250.675C325.233 249.733 325.496 248.908 326.023 248.202C326.549 247.495 327.277 246.944 328.205 246.549C329.133 246.148 330.197 245.947 331.395 245.947C333.121 245.947 334.479 246.321 335.469 247.069C336.46 247.81 337.115 248.804 337.433 250.052Z" fill="black"/>
<path opacity="0.5" d="M69.2301 357.89L75.1537 375.224H75.3928L81.3163 357.89H84.7873L77.1283 379.173H73.4182L65.7591 357.89H69.2301ZM87.6114 379.173V363.21H90.7187V379.173H87.6114ZM89.1807 360.748C88.6403 360.748 88.1761 360.567 87.7881 360.207C87.4071 359.84 87.2165 359.403 87.2165 358.898C87.2165 358.385 87.4071 357.949 87.7881 357.588C88.1761 357.221 88.6403 357.037 89.1807 357.037C89.7211 357.037 90.1818 357.221 90.5628 357.588C90.9508 357.949 91.1448 358.385 91.1448 358.898C91.1448 359.403 90.9508 359.84 90.5628 360.207C90.1818 360.567 89.7211 360.748 89.1807 360.748ZM106.86 367.108L104.044 367.606C103.926 367.246 103.739 366.903 103.483 366.578C103.234 366.252 102.894 365.985 102.465 365.777C102.035 365.57 101.498 365.466 100.854 365.466C99.9739 365.466 99.2395 365.663 98.6506 366.058C98.0617 366.446 97.7673 366.948 97.7673 367.565C97.7673 368.098 97.9647 368.528 98.3596 368.853C98.7545 369.179 99.3919 369.446 100.272 369.654L102.808 370.236C104.276 370.575 105.371 371.098 106.091 371.805C106.812 372.512 107.172 373.43 107.172 374.559C107.172 375.515 106.895 376.367 106.341 377.115C105.794 377.857 105.028 378.439 104.044 378.861C103.067 379.284 101.935 379.495 100.646 379.495C98.8585 379.495 97.4001 379.114 96.2708 378.352C95.1415 377.583 94.4487 376.492 94.1923 375.078L97.1957 374.621C97.3828 375.404 97.7673 375.996 98.3492 376.398C98.9312 376.793 99.6898 376.991 100.625 376.991C101.644 376.991 102.458 376.779 103.067 376.357C103.677 375.927 103.982 375.404 103.982 374.787C103.982 374.289 103.795 373.869 103.421 373.53C103.053 373.191 102.489 372.934 101.727 372.761L99.0247 372.169C97.5352 371.829 96.4336 371.289 95.72 370.547C95.0133 369.806 94.66 368.867 94.66 367.731C94.66 366.789 94.9233 365.964 95.4498 365.258C95.9763 364.551 96.7038 364 97.6322 363.605C98.5605 363.204 99.624 363.003 100.823 363.003C102.548 363.003 103.906 363.377 104.896 364.125C105.887 364.866 106.542 365.86 106.86 367.108ZM115.234 379.526C114.223 379.526 113.308 379.339 112.49 378.965C111.673 378.584 111.025 378.033 110.547 377.313C110.076 376.592 109.84 375.709 109.84 374.663C109.84 373.762 110.014 373.021 110.36 372.439C110.706 371.857 111.174 371.396 111.763 371.057C112.352 370.717 113.01 370.461 113.738 370.288C114.465 370.114 115.206 369.983 115.962 369.893C116.918 369.782 117.694 369.692 118.289 369.622C118.885 369.546 119.318 369.425 119.588 369.259C119.859 369.092 119.994 368.822 119.994 368.448V368.375C119.994 367.468 119.737 366.765 119.225 366.266C118.719 365.767 117.964 365.518 116.959 365.518C115.913 365.518 115.089 365.75 114.486 366.214C113.89 366.671 113.478 367.18 113.249 367.741L110.329 367.076C110.675 366.106 111.181 365.324 111.846 364.728C112.518 364.125 113.291 363.689 114.164 363.418C115.037 363.141 115.955 363.003 116.918 363.003C117.555 363.003 118.23 363.079 118.944 363.231C119.665 363.377 120.337 363.647 120.96 364.042C121.591 364.437 122.107 365.001 122.509 365.736C122.91 366.463 123.111 367.409 123.111 368.573V379.173H120.077V376.991H119.952C119.751 377.392 119.45 377.787 119.048 378.175C118.646 378.563 118.13 378.885 117.5 379.142C116.869 379.398 116.114 379.526 115.234 379.526ZM115.91 377.032C116.769 377.032 117.503 376.862 118.113 376.523C118.729 376.183 119.197 375.74 119.516 375.193C119.841 374.638 120.004 374.046 120.004 373.416V371.358C119.893 371.469 119.678 371.573 119.36 371.67C119.048 371.76 118.691 371.84 118.289 371.909C117.888 371.971 117.496 372.03 117.115 372.085C116.734 372.134 116.415 372.176 116.159 372.21C115.556 372.286 115.005 372.415 114.507 372.595C114.015 372.775 113.62 373.035 113.322 373.374C113.031 373.707 112.885 374.15 112.885 374.704C112.885 375.473 113.169 376.055 113.738 376.45C114.306 376.838 115.03 377.032 115.91 377.032ZM142.134 379.173H135.244V357.89H142.353C144.438 357.89 146.229 358.316 147.725 359.168C149.222 360.013 150.369 361.229 151.165 362.816C151.969 364.395 152.371 366.29 152.371 368.5C152.371 370.717 151.965 372.622 151.155 374.216C150.351 375.809 149.187 377.036 147.663 377.895C146.139 378.747 144.296 379.173 142.134 379.173ZM138.456 376.367H141.958C143.579 376.367 144.926 376.062 146 375.453C147.074 374.836 147.878 373.946 148.411 372.782C148.945 371.611 149.212 370.184 149.212 368.5C149.212 366.83 148.945 365.414 148.411 364.25C147.885 363.086 147.098 362.202 146.052 361.6C145.006 360.997 143.707 360.696 142.155 360.696H138.456V376.367ZM162.994 379.495C161.422 379.495 160.067 379.159 158.931 378.487C157.802 377.808 156.929 376.856 156.312 375.629C155.702 374.396 155.397 372.951 155.397 371.296C155.397 369.661 155.702 368.22 156.312 366.972C156.929 365.725 157.788 364.752 158.889 364.052C159.998 363.353 161.293 363.003 162.776 363.003C163.677 363.003 164.55 363.152 165.395 363.449C166.24 363.747 166.999 364.215 167.671 364.852C168.343 365.49 168.873 366.318 169.261 367.336C169.649 368.348 169.843 369.577 169.843 371.025V372.127H157.154V369.799H166.798C166.798 368.982 166.632 368.258 166.299 367.627C165.966 366.99 165.499 366.487 164.896 366.12C164.3 365.753 163.6 365.57 162.797 365.57C161.924 365.57 161.162 365.784 160.51 366.214C159.866 366.636 159.367 367.191 159.014 367.877C158.668 368.556 158.494 369.293 158.494 370.09V371.909C158.494 372.976 158.681 373.883 159.056 374.632C159.437 375.38 159.967 375.951 160.646 376.346C161.325 376.734 162.118 376.928 163.025 376.928C163.614 376.928 164.151 376.845 164.636 376.679C165.121 376.506 165.54 376.249 165.894 375.91C166.247 375.57 166.517 375.151 166.704 374.652L169.645 375.182C169.41 376.048 168.987 376.807 168.377 377.458C167.775 378.103 167.016 378.605 166.102 378.965C165.194 379.318 164.158 379.495 162.994 379.495ZM180.742 363.21V365.705H172.023V363.21H180.742ZM174.361 359.386H177.468V374.486C177.468 375.089 177.558 375.543 177.738 375.847C177.918 376.145 178.15 376.35 178.435 376.461C178.726 376.565 179.041 376.616 179.38 376.616C179.63 376.616 179.848 376.599 180.035 376.565C180.222 376.53 180.367 376.502 180.471 376.481L181.033 379.048C180.852 379.118 180.596 379.187 180.264 379.256C179.931 379.332 179.515 379.374 179.016 379.381C178.199 379.395 177.437 379.249 176.73 378.944C176.024 378.64 175.452 378.168 175.015 377.531C174.579 376.894 174.361 376.093 174.361 375.13V359.386ZM188.824 379.526C187.813 379.526 186.898 379.339 186.081 378.965C185.263 378.584 184.615 378.033 184.137 377.313C183.666 376.592 183.431 375.709 183.431 374.663C183.431 373.762 183.604 373.021 183.95 372.439C184.297 371.857 184.764 371.396 185.353 371.057C185.942 370.717 186.6 370.461 187.328 370.288C188.055 370.114 188.796 369.983 189.552 369.893C190.508 369.782 191.284 369.692 191.879 369.622C192.475 369.546 192.908 369.425 193.179 369.259C193.449 369.092 193.584 368.822 193.584 368.448V368.375C193.584 367.468 193.327 366.765 192.815 366.266C192.309 365.767 191.554 365.518 190.549 365.518C189.503 365.518 188.679 365.75 188.076 366.214C187.48 366.671 187.068 367.18 186.839 367.741L183.919 367.076C184.265 366.106 184.771 365.324 185.436 364.728C186.108 364.125 186.881 363.689 187.754 363.418C188.627 363.141 189.545 363.003 190.508 363.003C191.145 363.003 191.821 363.079 192.534 363.231C193.255 363.377 193.927 363.647 194.55 364.042C195.181 364.437 195.697 365.001 196.099 365.736C196.501 366.463 196.702 367.409 196.702 368.573V379.173H193.667V376.991H193.542C193.341 377.392 193.04 377.787 192.638 378.175C192.236 378.563 191.72 378.885 191.09 379.142C190.459 379.398 189.704 379.526 188.824 379.526ZM189.5 377.032C190.359 377.032 191.093 376.862 191.703 376.523C192.319 376.183 192.787 375.74 193.106 375.193C193.431 374.638 193.594 374.046 193.594 373.416V371.358C193.483 371.469 193.269 371.573 192.95 371.67C192.638 371.76 192.281 371.84 191.879 371.909C191.478 371.971 191.086 372.03 190.705 372.085C190.324 372.134 190.005 372.176 189.749 372.21C189.146 372.286 188.596 372.415 188.097 372.595C187.605 372.775 187.21 373.035 186.912 373.374C186.621 373.707 186.476 374.15 186.476 374.704C186.476 375.473 186.76 376.055 187.328 376.45C187.896 376.838 188.62 377.032 189.5 377.032ZM200.84 379.173V363.21H203.947V379.173H200.84ZM202.409 360.748C201.869 360.748 201.405 360.567 201.017 360.207C200.636 359.84 200.445 359.403 200.445 358.898C200.445 358.385 200.636 357.949 201.017 357.588C201.405 357.221 201.869 357.037 202.409 357.037C202.95 357.037 203.411 357.221 203.792 357.588C204.18 357.949 204.374 358.385 204.374 358.898C204.374 359.403 204.18 359.84 203.792 360.207C203.411 360.567 202.95 360.748 202.409 360.748ZM211.235 357.89V379.173H208.128V357.89H211.235ZM227.377 367.108L224.561 367.606C224.443 367.246 224.256 366.903 223.999 366.578C223.75 366.252 223.41 365.985 222.981 365.777C222.551 365.57 222.014 365.466 221.37 365.466C220.49 365.466 219.756 365.663 219.167 366.058C218.578 366.446 218.284 366.948 218.284 367.565C218.284 368.098 218.481 368.528 218.876 368.853C219.271 369.179 219.908 369.446 220.788 369.654L223.324 370.236C224.793 370.575 225.887 371.098 226.608 371.805C227.328 372.512 227.689 373.43 227.689 374.559C227.689 375.515 227.411 376.367 226.857 377.115C226.31 377.857 225.544 378.439 224.561 378.861C223.584 379.284 222.451 379.495 221.162 379.495C219.375 379.495 217.916 379.114 216.787 378.352C215.658 377.583 214.965 376.492 214.709 375.078L217.712 374.621C217.899 375.404 218.284 375.996 218.866 376.398C219.448 376.793 220.206 376.991 221.141 376.991C222.16 376.991 222.974 376.779 223.584 376.357C224.193 375.927 224.498 375.404 224.498 374.787C224.498 374.289 224.311 373.869 223.937 373.53C223.57 373.191 223.005 372.934 222.243 372.761L219.541 372.169C218.052 371.829 216.95 371.289 216.236 370.547C215.53 369.806 215.176 368.867 215.176 367.731C215.176 366.789 215.44 365.964 215.966 365.258C216.493 364.551 217.22 364 218.149 363.605C219.077 363.204 220.14 363.003 221.339 363.003C223.064 363.003 224.422 363.377 225.413 364.125C226.403 364.866 227.058 365.86 227.377 367.108Z" fill="black"/>
<path opacity="0.5" d="M67.3699 496.234V474.951H74.9563C76.6121 474.951 77.9839 475.252 79.0716 475.855C80.1593 476.457 80.9734 477.282 81.5138 478.328C82.0542 479.367 82.3244 480.538 82.3244 481.841C82.3244 483.15 82.0507 484.328 81.5034 485.374C80.963 486.413 80.1455 487.238 79.0508 487.847C77.9631 488.45 76.5948 488.751 74.9459 488.751H69.729V486.029H74.6549C75.7011 486.029 76.5498 485.849 77.201 485.488C77.8523 485.121 78.3303 484.622 78.6351 483.992C78.94 483.361 79.0924 482.644 79.0924 481.841C79.0924 481.037 78.94 480.323 78.6351 479.7C78.3303 479.076 77.8488 478.588 77.1906 478.235C76.5394 477.881 75.6803 477.705 74.6133 477.705H70.5811V496.234H67.3699ZM90.342 496.587C89.3305 496.587 88.416 496.4 87.5985 496.026C86.7809 495.645 86.1331 495.094 85.6551 494.374C85.184 493.653 84.9484 492.77 84.9484 491.724C84.9484 490.823 85.1216 490.082 85.468 489.5C85.8144 488.918 86.2821 488.457 86.871 488.118C87.4599 487.778 88.1181 487.522 88.8455 487.349C89.573 487.175 90.3143 487.044 91.0695 486.954C92.0256 486.843 92.8015 486.753 93.3973 486.683C93.9932 486.607 94.4262 486.486 94.6964 486.32C94.9666 486.153 95.1017 485.883 95.1017 485.509V485.436C95.1017 484.529 94.8453 483.826 94.3326 483.327C93.8269 482.828 93.0717 482.578 92.0671 482.578C91.021 482.578 90.1965 482.811 89.5938 483.275C88.9979 483.732 88.5857 484.241 88.3571 484.802L85.4369 484.137C85.7833 483.167 86.289 482.384 86.9541 481.789C87.6262 481.186 88.3987 480.749 89.2716 480.479C90.1446 480.202 91.0625 480.064 92.0256 480.064C92.6629 480.064 93.3384 480.14 94.052 480.292C94.7726 480.438 95.4446 480.708 96.0681 481.103C96.6986 481.498 97.2147 482.062 97.6166 482.797C98.0184 483.524 98.2193 484.47 98.2193 485.634V496.234H95.1848V494.052H95.0601C94.8592 494.453 94.5578 494.848 94.156 495.236C93.7541 495.624 93.238 495.946 92.6075 496.203C91.9771 496.459 91.2219 496.587 90.342 496.587ZM91.0175 494.093C91.8766 494.093 92.611 493.923 93.2207 493.584C93.8373 493.244 94.3049 492.801 94.6236 492.254C94.9492 491.699 95.112 491.107 95.112 490.477V488.419C95.0012 488.53 94.7864 488.634 94.4677 488.731C94.156 488.821 93.7992 488.9 93.3973 488.97C92.9955 489.032 92.6041 489.091 92.223 489.146C91.842 489.195 91.5233 489.236 91.2669 489.271C90.6642 489.347 90.1134 489.475 89.6145 489.656C89.1226 489.836 88.7277 490.096 88.4298 490.435C88.1388 490.768 87.9934 491.211 87.9934 491.765C87.9934 492.534 88.2774 493.116 88.8455 493.511C89.4136 493.899 90.1376 494.093 91.0175 494.093ZM103.751 502.22C103.286 502.22 102.864 502.182 102.483 502.106C102.102 502.036 101.818 501.96 101.631 501.877L102.379 499.331C102.947 499.483 103.453 499.549 103.896 499.528C104.34 499.507 104.731 499.341 105.07 499.029C105.417 498.718 105.722 498.208 105.985 497.502L106.369 496.442L100.529 480.271H103.855L107.897 492.659H108.063L112.106 480.271H115.442L108.864 498.364C108.559 499.196 108.171 499.899 107.7 500.474C107.229 501.056 106.667 501.492 106.016 501.783C105.365 502.074 104.61 502.22 103.751 502.22ZM118.362 496.234V480.271H121.345V482.869H121.542C121.875 481.99 122.419 481.304 123.174 480.812C123.929 480.313 124.833 480.064 125.886 480.064C126.953 480.064 127.847 480.313 128.567 480.812C129.295 481.311 129.832 481.997 130.178 482.869H130.344C130.725 482.017 131.332 481.338 132.163 480.833C132.994 480.32 133.985 480.064 135.135 480.064C136.583 480.064 137.764 480.517 138.679 481.425C139.6 482.333 140.061 483.701 140.061 485.53V496.234H136.954V485.821C136.954 484.74 136.659 483.957 136.071 483.472C135.482 482.987 134.778 482.745 133.961 482.745C132.949 482.745 132.163 483.057 131.602 483.68C131.041 484.297 130.76 485.09 130.76 486.06V496.234H127.663V485.623C127.663 484.757 127.393 484.061 126.853 483.535C126.312 483.008 125.609 482.745 124.743 482.745C124.154 482.745 123.61 482.901 123.111 483.212C122.619 483.517 122.221 483.943 121.916 484.491C121.618 485.038 121.469 485.672 121.469 486.392V496.234H118.362ZM151.105 496.556C149.533 496.556 148.178 496.22 147.042 495.548C145.913 494.869 145.04 493.916 144.423 492.69C143.814 491.457 143.509 490.012 143.509 488.357C143.509 486.722 143.814 485.28 144.423 484.033C145.04 482.786 145.899 481.813 147.001 481.113C148.109 480.413 149.405 480.064 150.887 480.064C151.788 480.064 152.661 480.212 153.506 480.51C154.351 480.808 155.11 481.276 155.782 481.913C156.454 482.551 156.984 483.379 157.372 484.397C157.76 485.409 157.954 486.638 157.954 488.086V489.188H145.265V486.86H154.909C154.909 486.043 154.743 485.319 154.41 484.688C154.078 484.051 153.61 483.548 153.007 483.181C152.411 482.814 151.712 482.63 150.908 482.63C150.035 482.63 149.273 482.845 148.622 483.275C147.977 483.697 147.479 484.252 147.125 484.938C146.779 485.616 146.606 486.354 146.606 487.151V488.97C146.606 490.037 146.793 490.944 147.167 491.692C147.548 492.441 148.078 493.012 148.757 493.407C149.436 493.795 150.229 493.989 151.137 493.989C151.726 493.989 152.263 493.906 152.747 493.74C153.232 493.567 153.652 493.31 154.005 492.971C154.358 492.631 154.628 492.212 154.816 491.713L157.757 492.243C157.521 493.109 157.098 493.868 156.489 494.519C155.886 495.163 155.127 495.666 154.213 496.026C153.305 496.379 152.269 496.556 151.105 496.556ZM164.509 486.756V496.234H161.402V480.271H164.384V482.869H164.582C164.949 482.024 165.524 481.345 166.307 480.833C167.097 480.32 168.091 480.064 169.289 480.064C170.377 480.064 171.33 480.292 172.147 480.749C172.965 481.2 173.599 481.872 174.049 482.766C174.499 483.659 174.724 484.764 174.724 486.081V496.234H171.617V486.455C171.617 485.298 171.316 484.394 170.713 483.742C170.11 483.084 169.282 482.755 168.229 482.755C167.509 482.755 166.868 482.911 166.307 483.223C165.753 483.535 165.313 483.992 164.987 484.595C164.668 485.19 164.509 485.911 164.509 486.756ZM186.343 480.271V482.766H177.624V480.271H186.343ZM179.962 476.447H183.069V491.547C183.069 492.15 183.16 492.604 183.34 492.908C183.52 493.206 183.752 493.411 184.036 493.522C184.327 493.625 184.642 493.677 184.982 493.677C185.231 493.677 185.449 493.66 185.636 493.625C185.823 493.591 185.969 493.563 186.073 493.542L186.634 496.109C186.454 496.178 186.198 496.248 185.865 496.317C185.532 496.393 185.117 496.435 184.618 496.442C183.8 496.456 183.038 496.31 182.332 496.005C181.625 495.7 181.053 495.229 180.617 494.592C180.18 493.955 179.962 493.154 179.962 492.191V476.447Z" fill="black"/>
<path opacity="0.5" d="M85.0472 598.928H81.8048C81.6801 598.235 81.448 597.625 81.1085 597.099C80.769 596.572 80.3533 596.125 79.8614 595.758C79.3695 595.391 78.8187 595.114 78.2091 594.927C77.6063 594.74 76.9654 594.646 76.2865 594.646C75.0602 594.646 73.9621 594.955 72.9921 595.571C72.0291 596.188 71.267 597.092 70.7058 598.284C70.1516 599.475 69.8745 600.93 69.8745 602.648C69.8745 604.38 70.1516 605.842 70.7058 607.034C71.267 608.225 72.0326 609.126 73.0025 609.736C73.9725 610.345 75.0637 610.65 76.2761 610.65C76.9481 610.65 77.5855 610.56 78.1883 610.38C78.7979 610.193 79.3487 609.919 79.8406 609.559C80.3325 609.199 80.7482 608.759 81.0877 608.239C81.4341 607.713 81.6731 607.11 81.8048 606.431L85.0472 606.441C84.8739 607.488 84.5379 608.451 84.0391 609.33C83.5472 610.203 82.9133 610.959 82.1373 611.596C81.3683 612.226 80.4884 612.715 79.4977 613.061C78.507 613.408 77.4262 613.581 76.2553 613.581C74.4124 613.581 72.7704 613.144 71.3294 612.271C69.8883 611.392 68.7521 610.134 67.9207 608.499C67.0963 606.864 66.684 604.914 66.684 602.648C66.684 600.376 67.0997 598.426 67.9311 596.797C68.7625 595.162 69.8987 593.908 71.3398 593.035C72.7808 592.156 74.4193 591.716 76.2553 591.716C77.3846 591.716 78.4377 591.878 79.4146 592.204C80.3984 592.523 81.2817 592.994 82.0646 593.617C82.8475 594.234 83.4952 594.989 84.0079 595.883C84.5206 596.77 84.867 597.785 85.0472 598.928ZM95.3641 613.612C93.8676 613.612 92.5616 613.269 91.4462 612.583C90.3307 611.897 89.4647 610.938 88.8481 609.705C88.2315 608.471 87.9232 607.03 87.9232 605.381C87.9232 603.726 88.2315 602.278 88.8481 601.037C89.4647 599.797 90.3307 598.834 91.4462 598.148C92.5616 597.463 93.8676 597.12 95.3641 597.12C96.8605 597.12 98.1665 597.463 99.2819 598.148C100.397 598.834 101.263 599.797 101.88 601.037C102.497 602.278 102.805 603.726 102.805 605.381C102.805 607.03 102.497 608.471 101.88 609.705C101.263 610.938 100.397 611.897 99.2819 612.583C98.1665 613.269 96.8605 613.612 95.3641 613.612ZM95.3745 611.004C96.3444 611.004 97.1481 610.747 97.7855 610.235C98.4228 609.722 98.894 609.039 99.1988 608.187C99.5106 607.335 99.6665 606.396 99.6665 605.371C99.6665 604.353 99.5106 603.417 99.1988 602.565C98.894 601.706 98.4228 601.017 97.7855 600.497C97.1481 599.977 96.3444 599.718 95.3745 599.718C94.3976 599.718 93.587 599.977 92.9427 600.497C92.3053 601.017 91.8307 601.706 91.5189 602.565C91.2141 603.417 91.0617 604.353 91.0617 605.371C91.0617 606.396 91.2141 607.335 91.5189 608.187C91.8307 609.039 92.3053 609.722 92.9427 610.235C93.587 610.747 94.3976 611.004 95.3745 611.004ZM106.273 613.29V597.327H109.256V599.925H109.453C109.786 599.046 110.33 598.36 111.085 597.868C111.84 597.369 112.744 597.12 113.797 597.12C114.864 597.12 115.758 597.369 116.479 597.868C117.206 598.367 117.743 599.053 118.089 599.925H118.256C118.637 599.073 119.243 598.394 120.074 597.889C120.906 597.376 121.896 597.12 123.046 597.12C124.494 597.12 125.676 597.573 126.59 598.481C127.512 599.389 127.972 600.757 127.972 602.586V613.29H124.865V602.877C124.865 601.796 124.571 601.013 123.982 600.528C123.393 600.043 122.69 599.801 121.872 599.801C120.861 599.801 120.074 600.113 119.513 600.736C118.952 601.353 118.671 602.146 118.671 603.116V613.29H115.574V602.679C115.574 601.813 115.304 601.117 114.764 600.591C114.223 600.064 113.52 599.801 112.654 599.801C112.065 599.801 111.521 599.957 111.023 600.268C110.531 600.573 110.132 600.999 109.827 601.547C109.53 602.094 109.381 602.728 109.381 603.448V613.29H106.273ZM132.137 619.276V597.327H135.172V599.915H135.431C135.612 599.583 135.871 599.198 136.211 598.762C136.55 598.325 137.021 597.944 137.624 597.618C138.227 597.286 139.024 597.12 140.014 597.12C141.303 597.12 142.453 597.445 143.465 598.096C144.476 598.748 145.269 599.686 145.844 600.913C146.426 602.139 146.717 603.615 146.717 605.34C146.717 607.065 146.43 608.544 145.855 609.777C145.28 611.004 144.49 611.949 143.485 612.614C142.481 613.273 141.334 613.602 140.046 613.602C139.076 613.602 138.282 613.439 137.666 613.113C137.056 612.788 136.578 612.407 136.232 611.97C135.885 611.534 135.618 611.146 135.431 610.806H135.244V619.276H132.137ZM135.182 605.309C135.182 606.431 135.345 607.415 135.67 608.26C135.996 609.105 136.467 609.767 137.084 610.245C137.7 610.716 138.456 610.952 139.349 610.952C140.278 610.952 141.054 610.706 141.677 610.214C142.301 609.715 142.772 609.039 143.09 608.187C143.416 607.335 143.579 606.376 143.579 605.309C143.579 604.256 143.42 603.31 143.101 602.472C142.789 601.633 142.318 600.972 141.688 600.487C141.064 600.002 140.285 599.759 139.349 599.759C138.449 599.759 137.687 599.991 137.063 600.455C136.446 600.92 135.979 601.567 135.66 602.399C135.341 603.23 135.182 604.2 135.182 605.309ZM154.844 613.643C153.833 613.643 152.918 613.456 152.101 613.082C151.283 612.701 150.635 612.15 150.157 611.43C149.686 610.709 149.451 609.826 149.451 608.78C149.451 607.879 149.624 607.138 149.97 606.556C150.317 605.974 150.784 605.513 151.373 605.174C151.962 604.834 152.62 604.578 153.348 604.405C154.075 604.231 154.816 604.1 155.572 604.01C156.528 603.899 157.304 603.809 157.899 603.739C158.495 603.663 158.928 603.542 159.198 603.376C159.469 603.209 159.604 602.939 159.604 602.565V602.492C159.604 601.585 159.347 600.882 158.835 600.383C158.329 599.884 157.574 599.634 156.569 599.634C155.523 599.634 154.699 599.867 154.096 600.331C153.5 600.788 153.088 601.297 152.859 601.858L149.939 601.193C150.285 600.223 150.791 599.441 151.456 598.845C152.128 598.242 152.901 597.805 153.774 597.535C154.647 597.258 155.565 597.12 156.528 597.12C157.165 597.12 157.841 597.196 158.554 597.348C159.275 597.494 159.947 597.764 160.57 598.159C161.201 598.554 161.717 599.118 162.119 599.853C162.521 600.58 162.721 601.526 162.721 602.69V613.29H159.687V611.108H159.562C159.361 611.509 159.06 611.904 158.658 612.292C158.256 612.68 157.74 613.002 157.11 613.259C156.479 613.515 155.724 613.643 154.844 613.643ZM155.52 611.149C156.379 611.149 157.113 610.979 157.723 610.64C158.339 610.3 158.807 609.857 159.126 609.31C159.451 608.755 159.614 608.163 159.614 607.533V605.475C159.503 605.586 159.289 605.69 158.97 605.787C158.658 605.877 158.301 605.956 157.899 606.026C157.498 606.088 157.106 606.147 156.725 606.202C156.344 606.251 156.025 606.292 155.769 606.327C155.166 606.403 154.615 606.531 154.117 606.712C153.625 606.892 153.23 607.152 152.932 607.491C152.641 607.824 152.495 608.267 152.495 608.821C152.495 609.59 152.78 610.172 153.348 610.567C153.916 610.955 154.64 611.149 155.52 611.149ZM169.967 603.812V613.29H166.86V597.327H169.843V599.925H170.04C170.407 599.08 170.982 598.401 171.765 597.889C172.555 597.376 173.549 597.12 174.748 597.12C175.836 597.12 176.788 597.348 177.606 597.805C178.423 598.256 179.057 598.928 179.508 599.822C179.958 600.715 180.183 601.82 180.183 603.137V613.29H177.076V603.511C177.076 602.354 176.774 601.45 176.172 600.798C175.569 600.14 174.741 599.811 173.688 599.811C172.967 599.811 172.326 599.967 171.765 600.279C171.211 600.591 170.771 601.048 170.445 601.651C170.127 602.246 169.967 602.967 169.967 603.812ZM185.743 619.276C185.279 619.276 184.856 619.238 184.475 619.162C184.094 619.092 183.81 619.016 183.623 618.933L184.371 616.387C184.939 616.539 185.445 616.605 185.888 616.584C186.332 616.563 186.723 616.397 187.063 616.085C187.409 615.774 187.714 615.264 187.977 614.558L188.362 613.498L182.521 597.327H185.847L189.889 609.715H190.056L194.098 597.327H197.434L190.856 615.42C190.551 616.252 190.163 616.955 189.692 617.53C189.221 618.112 188.66 618.548 188.008 618.839C187.357 619.13 186.602 619.276 185.743 619.276ZM208.349 613.29V592.007H211.56V610.526H221.204V613.29H208.349ZM224.618 613.29V597.327H227.725V613.29H224.618ZM226.187 594.864C225.647 594.864 225.182 594.684 224.794 594.324C224.413 593.957 224.223 593.52 224.223 593.015C224.223 592.502 224.413 592.065 224.794 591.705C225.182 591.338 225.647 591.154 226.187 591.154C226.727 591.154 227.188 591.338 227.569 591.705C227.957 592.065 228.151 592.502 228.151 593.015C228.151 593.52 227.957 593.957 227.569 594.324C227.188 594.684 226.727 594.864 226.187 594.864ZM238.629 613.612C237.084 613.612 235.754 613.262 234.638 612.562C233.53 611.856 232.678 610.882 232.082 609.642C231.486 608.402 231.188 606.982 231.188 605.381C231.188 603.76 231.493 602.33 232.103 601.089C232.712 599.842 233.571 598.869 234.68 598.169C235.788 597.469 237.094 597.12 238.598 597.12C239.81 597.12 240.891 597.345 241.84 597.795C242.789 598.238 243.555 598.862 244.137 599.666C244.726 600.469 245.076 601.408 245.187 602.482H242.162C241.996 601.734 241.615 601.089 241.019 600.549C240.43 600.009 239.641 599.738 238.65 599.738C237.784 599.738 237.025 599.967 236.374 600.424C235.73 600.875 235.227 601.519 234.867 602.357C234.507 603.189 234.327 604.172 234.327 605.309C234.327 606.473 234.503 607.477 234.857 608.322C235.21 609.168 235.709 609.822 236.353 610.287C237.004 610.751 237.77 610.983 238.65 610.983C239.239 610.983 239.772 610.875 240.25 610.661C240.735 610.439 241.14 610.124 241.466 609.715C241.799 609.306 242.031 608.814 242.162 608.239H245.187C245.076 609.272 244.74 610.193 244.178 611.004C243.617 611.814 242.866 612.452 241.923 612.916C240.988 613.38 239.89 613.612 238.629 613.612ZM255.389 613.612C253.816 613.612 252.462 613.276 251.326 612.604C250.196 611.925 249.324 610.972 248.707 609.746C248.097 608.513 247.792 607.068 247.792 605.413C247.792 603.778 248.097 602.336 248.707 601.089C249.324 599.842 250.183 598.869 251.284 598.169C252.393 597.469 253.688 597.12 255.171 597.12C256.072 597.12 256.945 597.269 257.79 597.566C258.635 597.864 259.394 598.332 260.066 598.969C260.738 599.607 261.268 600.435 261.656 601.453C262.044 602.465 262.238 603.694 262.238 605.142V606.244H249.549V603.916H259.193C259.193 603.099 259.026 602.375 258.694 601.744C258.361 601.107 257.894 600.604 257.291 600.237C256.695 599.87 255.995 599.686 255.192 599.686C254.319 599.686 253.557 599.901 252.905 600.331C252.261 600.753 251.762 601.308 251.409 601.994C251.063 602.672 250.889 603.41 250.889 604.207V606.026C250.889 607.093 251.076 608 251.45 608.749C251.832 609.497 252.362 610.068 253.041 610.463C253.719 610.851 254.513 611.045 255.42 611.045C256.009 611.045 256.546 610.962 257.031 610.796C257.516 610.623 257.935 610.366 258.289 610.027C258.642 609.687 258.912 609.268 259.099 608.769L262.04 609.299C261.805 610.165 261.382 610.924 260.772 611.575C260.17 612.22 259.411 612.722 258.496 613.082C257.589 613.435 256.553 613.612 255.389 613.612ZM268.793 603.812V613.29H265.685V597.327H268.668V599.925H268.865C269.232 599.08 269.808 598.401 270.59 597.889C271.38 597.376 272.374 597.12 273.573 597.12C274.661 597.12 275.613 597.348 276.431 597.805C277.248 598.256 277.882 598.928 278.333 599.822C278.783 600.715 279.008 601.82 279.008 603.137V613.29H275.901V603.511C275.901 602.354 275.599 601.45 274.997 600.798C274.394 600.14 273.566 599.811 272.513 599.811C271.792 599.811 271.152 599.967 270.59 600.279C270.036 600.591 269.596 601.048 269.271 601.651C268.952 602.246 268.793 602.967 268.793 603.812ZM295.137 601.225L292.321 601.723C292.203 601.363 292.016 601.02 291.759 600.695C291.51 600.369 291.171 600.102 290.741 599.894C290.311 599.686 289.775 599.583 289.13 599.583C288.25 599.583 287.516 599.78 286.927 600.175C286.338 600.563 286.044 601.065 286.044 601.682C286.044 602.215 286.241 602.645 286.636 602.97C287.031 603.296 287.668 603.563 288.548 603.771L291.084 604.353C292.553 604.692 293.647 605.215 294.368 605.922C295.088 606.628 295.449 607.546 295.449 608.676C295.449 609.632 295.172 610.484 294.617 611.232C294.07 611.974 293.304 612.556 292.321 612.978C291.344 613.401 290.211 613.612 288.922 613.612C287.135 613.612 285.676 613.231 284.547 612.469C283.418 611.7 282.725 610.609 282.469 609.195L285.472 608.738C285.659 609.521 286.044 610.113 286.626 610.515C287.208 610.91 287.966 611.108 288.902 611.108C289.92 611.108 290.734 610.896 291.344 610.474C291.953 610.044 292.258 609.521 292.258 608.904C292.258 608.406 292.071 607.986 291.697 607.647C291.33 607.307 290.765 607.051 290.003 606.878L287.301 606.286C285.812 605.946 284.71 605.406 283.996 604.664C283.29 603.923 282.936 602.984 282.936 601.848C282.936 600.906 283.2 600.081 283.726 599.375C284.253 598.668 284.98 598.117 285.909 597.722C286.837 597.32 287.9 597.12 289.099 597.12C290.824 597.12 292.182 597.494 293.173 598.242C294.163 598.983 294.818 599.977 295.137 601.225ZM305.745 613.612C304.172 613.612 302.818 613.276 301.681 612.604C300.552 611.925 299.679 610.972 299.063 609.746C298.453 608.513 298.148 607.068 298.148 605.413C298.148 603.778 298.453 602.336 299.063 601.089C299.679 599.842 300.538 598.869 301.64 598.169C302.748 597.469 304.044 597.12 305.527 597.12C306.427 597.12 307.3 597.269 308.145 597.566C308.991 597.864 309.749 598.332 310.421 598.969C311.093 599.607 311.623 600.435 312.011 601.453C312.399 602.465 312.593 603.694 312.593 605.142V606.244H299.904V603.916H309.548C309.548 603.099 309.382 602.375 309.05 601.744C308.717 601.107 308.249 600.604 307.647 600.237C307.051 599.87 306.351 599.686 305.547 599.686C304.674 599.686 303.912 599.901 303.261 600.331C302.617 600.753 302.118 601.308 301.765 601.994C301.418 602.672 301.245 603.41 301.245 604.207V606.026C301.245 607.093 301.432 608 301.806 608.749C302.187 609.497 302.717 610.068 303.396 610.463C304.075 610.851 304.868 611.045 305.776 611.045C306.365 611.045 306.902 610.962 307.387 610.796C307.872 610.623 308.291 610.366 308.644 610.027C308.998 609.687 309.268 609.268 309.455 608.769L312.396 609.299C312.16 610.165 311.738 610.924 311.128 611.575C310.525 612.22 309.767 612.722 308.852 613.082C307.944 613.435 306.909 613.612 305.745 613.612Z" fill="black"/>
<rect x="37.3936" y="1.62001" width="35.7678" height="35.7678" rx="17.8839" transform="rotate(90 37.3936 1.62001)" fill="#78B948" stroke="#78B948" stroke-width="3.25162"/>
<path d="M24.3386 14.5809C24.5676 14.3629 24.8724 14.2423 25.1886 14.2447C25.5048 14.2471 25.8077 14.3723 26.0334 14.5937C26.2591 14.8152 26.3899 15.1157 26.3983 15.4318C26.4066 15.7479 26.2919 16.0549 26.0782 16.288L19.5912 24.4008C19.4797 24.5209 19.345 24.6174 19.1954 24.6843C19.0457 24.7512 18.8841 24.7873 18.7202 24.7903C18.5563 24.7933 18.3934 24.7633 18.2414 24.702C18.0893 24.6406 17.9512 24.5493 17.8353 24.4333L13.5334 20.1314C13.4136 20.0198 13.3175 19.8852 13.2509 19.7356C13.1843 19.586 13.1484 19.4246 13.1455 19.2608C13.1426 19.0971 13.1728 18.9345 13.2341 18.7827C13.2954 18.6308 13.3867 18.4929 13.5025 18.3771C13.6183 18.2613 13.7562 18.17 13.908 18.1087C14.0599 18.0474 14.2225 18.0173 14.3862 18.0202C14.5499 18.0231 14.7114 18.0589 14.861 18.1255C15.0105 18.1922 15.1452 18.2883 15.2568 18.4081L18.6612 21.8109L24.3077 14.6167L24.3386 14.5809Z" fill="white"/>
</svg>
