<svg width="264" height="386" viewBox="0 0 264 386" fill="none" xmlns="http://www.w3.org/2000/svg">
<rect x="21.5338" y="1.73285" width="20.5915" height="20.5915" rx="10.2957" transform="rotate(90 21.5338 1.73285)" fill="white" stroke="#7EBC51" stroke-width="1.87195"/>
<rect x="21.5338" y="69.1235" width="20.5915" height="20.5915" rx="10.2957" transform="rotate(90 21.5338 69.1235)" fill="white" stroke="#E0E0E0" stroke-width="1.87195"/>
<rect x="21.5338" y="136.51" width="20.5915" height="20.5915" rx="10.2957" transform="rotate(90 21.5338 136.51)" fill="white" stroke="#E0E0E0" stroke-width="1.87195"/>
<rect x="21.5338" y="203.897" width="20.5915" height="20.5915" rx="10.2957" transform="rotate(90 21.5338 203.897)" fill="white" stroke="#E0E0E0" stroke-width="1.87195"/>
<rect x="21.5338" y="271.284" width="20.5915" height="20.5915" rx="10.2957" transform="rotate(90 21.5338 271.284)" fill="white" stroke="#E0E0E0" stroke-width="1.87195"/>
<rect x="21.5338" y="338.682" width="20.5915" height="20.5915" rx="10.2957" transform="rotate(90 21.5338 338.682)" fill="white" stroke="#E0E0E0" stroke-width="1.87195"/>
<rect x="12.1699" y="27" width="37.439" height="1.87195" transform="rotate(90 12.1699 27)" fill="#E0E0E0"/>
<rect x="12.1699" y="94.3906" width="37.439" height="1.87195" transform="rotate(90 12.1699 94.3906)" fill="#E0E0E0"/>
<rect x="12.1699" y="161.781" width="37.439" height="1.87195" transform="rotate(90 12.1699 161.781)" fill="#E0E0E0"/>
<rect x="12.1699" y="229.172" width="37.439" height="1.87195" transform="rotate(90 12.1699 229.172)" fill="#E0E0E0"/>
<rect x="12.1699" y="296.562" width="37.439" height="1.87195" transform="rotate(90 12.1699 296.562)" fill="#E0E0E0"/>
<path d="M43.8071 9.64552C43.7513 9.17399 43.5248 8.80793 43.1277 8.54734C42.7306 8.28676 42.2436 8.15647 41.6666 8.15647C41.2447 8.15647 40.8755 8.22472 40.5591 8.36121C40.2458 8.49771 40.0007 8.68539 39.8239 8.92426C39.6502 9.16313 39.5633 9.43457 39.5633 9.73858C39.5633 9.99296 39.6238 10.2117 39.7448 10.3947C39.8689 10.5746 40.0271 10.7251 40.2194 10.8461C40.4118 10.964 40.6134 11.0617 40.8243 11.1392C41.0353 11.2137 41.2292 11.2742 41.406 11.3207L42.3739 11.5813C42.6221 11.6464 42.8982 11.7364 43.2022 11.8512C43.5093 11.966 43.8025 12.1226 44.0816 12.3212C44.3639 12.5166 44.5966 12.7679 44.7796 13.075C44.9627 13.3821 45.0542 13.759 45.0542 14.2057C45.0542 14.7207 44.9192 15.186 44.6493 15.6017C44.3826 16.0174 43.9917 16.3478 43.4767 16.5929C42.9649 16.838 42.3429 16.9605 41.6108 16.9605C40.9283 16.9605 40.3373 16.8504 39.8378 16.6301C39.3415 16.4098 38.9506 16.1027 38.6652 15.7088C38.3829 15.3148 38.2232 14.8572 38.1859 14.336H39.3772C39.4082 14.6959 39.5292 14.9937 39.7401 15.2295C39.9542 15.4621 40.2241 15.6359 40.5498 15.7506C40.8786 15.8623 41.2323 15.9182 41.6108 15.9182C42.0513 15.9182 42.4468 15.8468 42.7973 15.7041C43.1479 15.5583 43.4255 15.3567 43.6303 15.0992C43.835 14.8386 43.9374 14.5346 43.9374 14.1871C43.9374 13.8707 43.849 13.6132 43.6722 13.4147C43.4953 13.2161 43.2627 13.0548 42.9742 12.9307C42.6857 12.8067 42.3739 12.6981 42.0389 12.605L40.8662 12.27C40.1217 12.0559 39.5323 11.7504 39.098 11.3533C38.6637 10.9562 38.4465 10.4366 38.4465 9.79442C38.4465 9.26085 38.5908 8.79552 38.8793 8.39844C39.1709 7.99826 39.5618 7.68804 40.0519 7.46778C40.5451 7.24442 41.0958 7.13274 41.7038 7.13274C42.3181 7.13274 42.864 7.24287 43.3418 7.46313C43.8195 7.68028 44.198 7.97809 44.4772 8.35656C44.7595 8.73503 44.9084 9.16468 44.9239 9.64552H43.8071ZM49.9111 9.64552V10.5762H46.207V9.64552H49.9111ZM47.2866 7.93311H48.3848V14.7455C48.3848 15.0557 48.4298 15.2884 48.5197 15.4435C48.6128 15.5955 48.7307 15.6979 48.8734 15.7506C49.0192 15.8003 49.1727 15.8251 49.334 15.8251C49.455 15.8251 49.5543 15.8189 49.6319 15.8065C49.7094 15.791 49.7715 15.7786 49.818 15.7692L50.0413 16.7557C49.9669 16.7837 49.863 16.8116 49.7296 16.8395C49.5962 16.8705 49.4271 16.886 49.2224 16.886C48.9121 16.886 48.6081 16.8193 48.3103 16.6859C48.0156 16.5525 47.7705 16.3494 47.5751 16.0764C47.3828 15.8034 47.2866 15.459 47.2866 15.0433V7.93311ZM54.4829 16.9419C53.7942 16.9419 53.2002 16.7899 52.7007 16.4859C52.2043 16.1787 51.8212 15.7506 51.5513 15.2015C51.2845 14.6494 51.1512 14.0072 51.1512 13.2751C51.1512 12.543 51.2845 11.8977 51.5513 11.3393C51.8212 10.7778 52.1966 10.3404 52.6774 10.0271C53.1614 9.71067 53.726 9.55245 54.3712 9.55245C54.7435 9.55245 55.1111 9.6145 55.4741 9.73858C55.837 9.86267 56.1674 10.0643 56.4652 10.3435C56.763 10.6196 57.0003 10.9857 57.1772 11.4417C57.354 11.8977 57.4424 12.4592 57.4424 13.1262V13.5915H51.9329V12.6422H56.3256C56.3256 12.239 56.245 11.8791 56.0836 11.5627C55.9254 11.2463 55.699 10.9965 55.4043 10.8135C55.1127 10.6305 54.7683 10.539 54.3712 10.539C53.9338 10.539 53.5554 10.6475 53.2358 10.8647C52.9194 11.0787 52.6759 11.3579 52.5053 11.7023C52.3346 12.0466 52.2493 12.4158 52.2493 12.8098V13.4426C52.2493 13.9824 52.3424 14.44 52.5285 14.8153C52.7178 15.1876 52.9799 15.4714 53.3149 15.6669C53.65 15.8592 54.0393 15.9554 54.4829 15.9554C54.7714 15.9554 55.032 15.915 55.2647 15.8344C55.5004 15.7506 55.7036 15.6265 55.8742 15.4621C56.0449 15.2946 56.1767 15.0868 56.2698 14.8386L57.3307 15.1364C57.219 15.4963 57.0314 15.8127 56.7677 16.0857C56.504 16.3556 56.1783 16.5665 55.7905 16.7185C55.4027 16.8674 54.9668 16.9419 54.4829 16.9419ZM59.1129 19.4733V9.64552H60.1739V10.7809H60.3042C60.3848 10.6568 60.4965 10.4986 60.6392 10.3063C60.785 10.1108 60.9929 9.93713 61.2627 9.78512C61.5357 9.63001 61.9049 9.55245 62.3702 9.55245C62.9721 9.55245 63.5025 9.70291 63.9617 10.0038C64.4208 10.3047 64.7791 10.7313 65.0366 11.2835C65.294 11.8357 65.4228 12.4871 65.4228 13.2379C65.4228 13.9948 65.294 14.6509 65.0366 15.2062C64.7791 15.7584 64.4223 16.1865 63.9663 16.4905C63.5103 16.7914 62.9845 16.9419 62.3888 16.9419C61.9297 16.9419 61.5621 16.8659 61.286 16.7139C61.0099 16.5588 60.7974 16.3835 60.6485 16.188C60.4996 15.9895 60.3848 15.8251 60.3042 15.6948H60.2111V19.4733H59.1129ZM60.1925 13.2192C60.1925 13.759 60.2716 14.2352 60.4298 14.6478C60.588 15.0573 60.8191 15.3784 61.1231 15.611C61.4272 15.8406 61.7994 15.9554 62.2399 15.9554C62.6991 15.9554 63.0822 15.8344 63.3893 15.5924C63.6995 15.3473 63.9322 15.0185 64.0873 14.6059C64.2455 14.1902 64.3246 13.728 64.3246 13.2192C64.3246 12.7167 64.2471 12.2638 64.0919 11.8605C63.9399 11.4541 63.7088 11.133 63.3986 10.8973C63.0915 10.6584 62.7053 10.539 62.2399 10.539C61.7932 10.539 61.4179 10.6522 61.1138 10.8786C60.8098 11.102 60.5803 11.4153 60.4252 11.8186C60.27 12.2188 60.1925 12.6857 60.1925 13.2192ZM74.1151 7.26304V16.793H72.9611V8.47289H72.9053L70.5786 10.0178V8.84515L72.9611 7.26304H74.1151Z" fill="white"/>
<path opacity="0.5" d="M43.8071 77.0361C43.7513 76.5646 43.5248 76.1986 43.1277 75.938C42.7306 75.6774 42.2436 75.5471 41.6666 75.5471C41.2447 75.5471 40.8755 75.6153 40.5591 75.7518C40.2458 75.8883 40.0007 76.076 39.8239 76.3149C39.6502 76.5538 39.5633 76.8252 39.5633 77.1292C39.5633 77.3836 39.6238 77.6023 39.7448 77.7853C39.8689 77.9653 40.0271 78.1157 40.2194 78.2367C40.4118 78.3546 40.6134 78.4523 40.8243 78.5298C41.0353 78.6043 41.2292 78.6648 41.406 78.7113L42.3739 78.9719C42.6221 79.0371 42.8982 79.127 43.2022 79.2418C43.5093 79.3566 43.8025 79.5132 44.0816 79.7118C44.3639 79.9072 44.5966 80.1585 44.7796 80.4656C44.9627 80.7727 45.0542 81.1497 45.0542 81.5964C45.0542 82.1113 44.9192 82.5767 44.6493 82.9924C44.3826 83.408 43.9917 83.7384 43.4767 83.9835C42.9649 84.2286 42.3429 84.3511 41.6108 84.3511C40.9283 84.3511 40.3373 84.241 39.8378 84.0207C39.3415 83.8005 38.9506 83.4934 38.6652 83.0994C38.3829 82.7054 38.2232 82.2478 38.1859 81.7267H39.3772C39.4082 82.0865 39.5292 82.3843 39.7401 82.6201C39.9542 82.8528 40.2241 83.0265 40.5498 83.1413C40.8786 83.2529 41.2323 83.3088 41.6108 83.3088C42.0513 83.3088 42.4468 83.2374 42.7973 83.0947C43.1479 82.9489 43.4255 82.7473 43.6303 82.4898C43.835 82.2292 43.9374 81.9252 43.9374 81.5778C43.9374 81.2613 43.849 81.0038 43.6722 80.8053C43.4953 80.6068 43.2627 80.4455 42.9742 80.3214C42.6857 80.1973 42.3739 80.0887 42.0389 79.9956L40.8662 79.6606C40.1217 79.4465 39.5323 79.141 39.098 78.7439C38.6637 78.3468 38.4465 77.8272 38.4465 77.185C38.4465 76.6515 38.5908 76.1861 38.8793 75.7891C39.1709 75.3889 39.5618 75.0787 40.0519 74.8584C40.5451 74.635 41.0958 74.5234 41.7038 74.5234C42.3181 74.5234 42.864 74.6335 43.3418 74.8538C43.8195 75.0709 44.198 75.3687 44.4772 75.7472C44.7595 76.1257 44.9084 76.5553 44.9239 77.0361H43.8071ZM49.9111 77.0361V77.9668H46.207V77.0361H49.9111ZM47.2866 75.3237H48.3848V82.1361C48.3848 82.4464 48.4298 82.679 48.5197 82.8341C48.6128 82.9861 48.7307 83.0885 48.8734 83.1413C49.0192 83.1909 49.1727 83.2157 49.334 83.2157C49.455 83.2157 49.5543 83.2095 49.6319 83.1971C49.7094 83.1816 49.7715 83.1692 49.818 83.1599L50.0413 84.1464C49.9669 84.1743 49.863 84.2022 49.7296 84.2301C49.5962 84.2611 49.4271 84.2767 49.2224 84.2767C48.9121 84.2767 48.6081 84.21 48.3103 84.0766C48.0156 83.9432 47.7705 83.74 47.5751 83.467C47.3828 83.194 47.2866 82.8497 47.2866 82.434V75.3237ZM54.4829 84.3325C53.7942 84.3325 53.2002 84.1805 52.7007 83.8765C52.2043 83.5694 51.8212 83.1413 51.5513 82.5922C51.2845 82.04 51.1512 81.3978 51.1512 80.6657C51.1512 79.9336 51.2845 79.2883 51.5513 78.7299C51.8212 78.1684 52.1966 77.731 52.6774 77.4177C53.1614 77.1013 53.726 76.9431 54.3712 76.9431C54.7435 76.9431 55.1111 77.0051 55.4741 77.1292C55.837 77.2533 56.1674 77.4549 56.4652 77.7341C56.763 78.0102 57.0003 78.3763 57.1772 78.8323C57.354 79.2883 57.4424 79.8498 57.4424 80.5168V80.9821H51.9329V80.0329H56.3256C56.3256 79.6296 56.245 79.2697 56.0836 78.9533C55.9254 78.6369 55.699 78.3871 55.4043 78.2041C55.1127 78.0211 54.7683 77.9296 54.3712 77.9296C53.9338 77.9296 53.5554 78.0382 53.2358 78.2553C52.9194 78.4694 52.6759 78.7486 52.5053 79.0929C52.3346 79.4372 52.2493 79.8064 52.2493 80.2004V80.8332C52.2493 81.373 52.3424 81.8306 52.5285 82.2059C52.7178 82.5782 52.9799 82.8621 53.3149 83.0575C53.65 83.2498 54.0393 83.346 54.4829 83.346C54.7714 83.346 55.032 83.3057 55.2647 83.225C55.5004 83.1413 55.7036 83.0172 55.8742 82.8528C56.0449 82.6852 56.1767 82.4774 56.2698 82.2292L57.3307 82.527C57.219 82.8869 57.0314 83.2033 56.7677 83.4763C56.504 83.7462 56.1783 83.9571 55.7905 84.1091C55.4027 84.258 54.9668 84.3325 54.4829 84.3325ZM59.1129 86.8639V77.0361H60.1739V78.1715H60.3042C60.3848 78.0475 60.4965 77.8892 60.6392 77.6969C60.785 77.5015 60.9929 77.3278 61.2627 77.1757C61.5357 77.0206 61.9049 76.9431 62.3702 76.9431C62.9721 76.9431 63.5025 77.0935 63.9617 77.3944C64.4208 77.6954 64.7791 78.1219 65.0366 78.6741C65.294 79.2263 65.4228 79.8778 65.4228 80.6285C65.4228 81.3854 65.294 82.0415 65.0366 82.5968C64.7791 83.149 64.4223 83.5771 63.9663 83.8811C63.5103 84.182 62.9845 84.3325 62.3888 84.3325C61.9297 84.3325 61.5621 84.2565 61.286 84.1045C61.0099 83.9494 60.7974 83.7741 60.6485 83.5787C60.4996 83.3801 60.3848 83.2157 60.3042 83.0854H60.2111V86.8639H59.1129ZM60.1925 80.6099C60.1925 81.1497 60.2716 81.6258 60.4298 82.0384C60.588 82.4479 60.8191 82.769 61.1231 83.0017C61.4272 83.2312 61.7994 83.346 62.2399 83.346C62.6991 83.346 63.0822 83.225 63.3893 82.983C63.6995 82.738 63.9322 82.4091 64.0873 81.9965C64.2455 81.5809 64.3246 81.1186 64.3246 80.6099C64.3246 80.1073 64.2471 79.6544 64.0919 79.2511C63.9399 78.8447 63.7088 78.5236 63.3986 78.2879C63.0915 78.049 62.7053 77.9296 62.2399 77.9296C61.7932 77.9296 61.4179 78.0428 61.1138 78.2693C60.8098 78.4926 60.5803 78.8059 60.4252 79.2092C60.27 79.6094 60.1925 80.0763 60.1925 80.6099ZM70.7648 84.1836V83.346L73.9104 79.9026C74.2795 79.4993 74.5836 79.1487 74.8224 78.8509C75.0613 78.55 75.2381 78.2677 75.3529 78.004C75.4708 77.7372 75.5297 77.458 75.5297 77.1664C75.5297 76.8314 75.4491 76.5413 75.2878 76.2963C75.1295 76.0512 74.9124 75.862 74.6363 75.7286C74.3602 75.5952 74.05 75.5285 73.7056 75.5285C73.3396 75.5285 73.0201 75.6045 72.7471 75.7565C72.4772 75.9054 72.2678 76.1148 72.1189 76.3847C71.9731 76.6546 71.9002 76.971 71.9002 77.334H70.802C70.802 76.7756 70.9307 76.2854 71.1882 75.8635C71.4457 75.4416 71.7962 75.1128 72.2399 74.877C72.6866 74.6413 73.1876 74.5234 73.7429 74.5234C74.3013 74.5234 74.7961 74.6413 75.2273 74.877C75.6585 75.1128 75.9966 75.4308 76.2417 75.8309C76.4868 76.2311 76.6093 76.6763 76.6093 77.1664C76.6093 77.517 76.5457 77.8598 76.4185 78.1948C76.2944 78.5267 76.0773 78.8975 75.767 79.3069C75.4599 79.7133 75.0334 80.2097 74.4874 80.796L72.3469 83.0854V83.1599H76.7768V84.1836H70.7648Z" fill="white"/>
<path opacity="0.5" d="M43.8071 144.427C43.7513 143.955 43.5248 143.589 43.1277 143.329C42.7306 143.068 42.2436 142.938 41.6666 142.938C41.2447 142.938 40.8755 143.006 40.5591 143.142C40.2458 143.279 40.0007 143.467 39.8239 143.706C39.6502 143.944 39.5633 144.216 39.5633 144.52C39.5633 144.774 39.6238 144.993 39.7448 145.176C39.8689 145.356 40.0271 145.506 40.2194 145.627C40.4118 145.745 40.6134 145.843 40.8243 145.92C41.0353 145.995 41.2292 146.055 41.406 146.102L42.3739 146.363C42.6221 146.428 42.8982 146.518 43.2022 146.632C43.5093 146.747 43.8025 146.904 44.0816 147.102C44.3639 147.298 44.5966 147.549 44.7796 147.856C44.9627 148.163 45.0542 148.54 45.0542 148.987C45.0542 149.502 44.9192 149.967 44.6493 150.383C44.3826 150.799 43.9917 151.129 43.4767 151.374C42.9649 151.619 42.3429 151.742 41.6108 151.742C40.9283 151.742 40.3373 151.632 39.8378 151.411C39.3415 151.191 38.9506 150.884 38.6652 150.49C38.3829 150.096 38.2232 149.638 38.1859 149.117H39.3772C39.4082 149.477 39.5292 149.775 39.7401 150.011C39.9542 150.243 40.2241 150.417 40.5498 150.532C40.8786 150.644 41.2323 150.699 41.6108 150.699C42.0513 150.699 42.4468 150.628 42.7973 150.485C43.1479 150.34 43.4255 150.138 43.6303 149.88C43.835 149.62 43.9374 149.316 43.9374 148.968C43.9374 148.652 43.849 148.394 43.6722 148.196C43.4953 147.997 43.2627 147.836 42.9742 147.712C42.6857 147.588 42.3739 147.479 42.0389 147.386L40.8662 147.051C40.1217 146.837 39.5323 146.532 39.098 146.135C38.6637 145.737 38.4465 145.218 38.4465 144.576C38.4465 144.042 38.5908 143.577 38.8793 143.18C39.1709 142.78 39.5618 142.469 40.0519 142.249C40.5451 142.026 41.0958 141.914 41.7038 141.914C42.3181 141.914 42.864 142.024 43.3418 142.244C43.8195 142.462 44.198 142.759 44.4772 143.138C44.7595 143.516 44.9084 143.946 44.9239 144.427H43.8071ZM49.9111 144.427V145.357H46.207V144.427H49.9111ZM47.2866 142.714H48.3848V149.527C48.3848 149.837 48.4298 150.07 48.5197 150.225C48.6128 150.377 48.7307 150.479 48.8734 150.532C49.0192 150.582 49.1727 150.606 49.334 150.606C49.455 150.606 49.5543 150.6 49.6319 150.588C49.7094 150.572 49.7715 150.56 49.818 150.55L50.0413 151.537C49.9669 151.565 49.863 151.593 49.7296 151.621C49.5962 151.652 49.4271 151.667 49.2224 151.667C48.9121 151.667 48.6081 151.601 48.3103 151.467C48.0156 151.334 47.7705 151.131 47.5751 150.858C47.3828 150.585 47.2866 150.24 47.2866 149.825V142.714ZM54.4829 151.723C53.7942 151.723 53.2002 151.571 52.7007 151.267C52.2043 150.96 51.8212 150.532 51.5513 149.983C51.2845 149.431 51.1512 148.788 51.1512 148.056C51.1512 147.324 51.2845 146.679 51.5513 146.121C51.8212 145.559 52.1966 145.122 52.6774 144.808C53.1614 144.492 53.726 144.334 54.3712 144.334C54.7435 144.334 55.1111 144.396 55.4741 144.52C55.837 144.644 56.1674 144.846 56.4652 145.125C56.763 145.401 57.0003 145.767 57.1772 146.223C57.354 146.679 57.4424 147.24 57.4424 147.907V148.373H51.9329V147.423H56.3256C56.3256 147.02 56.245 146.66 56.0836 146.344C55.9254 146.028 55.699 145.778 55.4043 145.595C55.1127 145.412 54.7683 145.32 54.3712 145.32C53.9338 145.32 53.5554 145.429 53.2358 145.646C52.9194 145.86 52.6759 146.139 52.5053 146.484C52.3346 146.828 52.2493 147.197 52.2493 147.591V148.224C52.2493 148.764 52.3424 149.221 52.5285 149.597C52.7178 149.969 52.9799 150.253 53.3149 150.448C53.65 150.64 54.0393 150.737 54.4829 150.737C54.7714 150.737 55.032 150.696 55.2647 150.616C55.5004 150.532 55.7036 150.408 55.8742 150.243C56.0449 150.076 56.1767 149.868 56.2698 149.62L57.3307 149.918C57.219 150.278 57.0314 150.594 56.7677 150.867C56.504 151.137 56.1783 151.348 55.7905 151.5C55.4027 151.649 54.9668 151.723 54.4829 151.723ZM59.1129 154.255V144.427H60.1739V145.562H60.3042C60.3848 145.438 60.4965 145.28 60.6392 145.088C60.785 144.892 60.9929 144.718 61.2627 144.566C61.5357 144.411 61.9049 144.334 62.3702 144.334C62.9721 144.334 63.5025 144.484 63.9617 144.785C64.4208 145.086 64.7791 145.513 65.0366 146.065C65.294 146.617 65.4228 147.268 65.4228 148.019C65.4228 148.776 65.294 149.432 65.0366 149.987C64.7791 150.54 64.4223 150.968 63.9663 151.272C63.5103 151.573 62.9845 151.723 62.3888 151.723C61.9297 151.723 61.5621 151.647 61.286 151.495C61.0099 151.34 60.7974 151.165 60.6485 150.969C60.4996 150.771 60.3848 150.606 60.3042 150.476H60.2111V154.255H59.1129ZM60.1925 148C60.1925 148.54 60.2716 149.016 60.4298 149.429C60.588 149.839 60.8191 150.16 61.1231 150.392C61.4272 150.622 61.7994 150.737 62.2399 150.737C62.6991 150.737 63.0822 150.616 63.3893 150.374C63.6995 150.129 63.9322 149.8 64.0873 149.387C64.2455 148.971 64.3246 148.509 64.3246 148C64.3246 147.498 64.2471 147.045 64.0919 146.642C63.9399 146.235 63.7088 145.914 63.3986 145.679C63.0915 145.44 62.7053 145.32 62.2399 145.32C61.7932 145.32 61.4179 145.433 61.1138 145.66C60.8098 145.883 60.5803 146.197 60.4252 146.6C60.27 147 60.1925 147.467 60.1925 148ZM73.9848 151.705C73.3706 151.705 72.8231 151.599 72.3422 151.388C71.8645 151.177 71.4845 150.884 71.2022 150.509C70.923 150.13 70.771 149.691 70.7461 149.192H71.9188C71.9436 149.499 72.0491 149.764 72.2352 149.987C72.4213 150.208 72.6649 150.378 72.9658 150.499C73.2667 150.62 73.6002 150.681 73.9662 150.681C74.3757 150.681 74.7387 150.609 75.0551 150.467C75.3715 150.324 75.6197 150.125 75.7996 149.871C75.9795 149.617 76.0695 149.322 76.0695 148.987C76.0695 148.636 75.9826 148.328 75.8089 148.061C75.6352 147.791 75.3808 147.58 75.0458 147.428C74.7107 147.276 74.3013 147.2 73.8173 147.2H73.0542V146.176H73.8173C74.1958 146.176 74.5277 146.108 74.8131 145.972C75.1016 145.835 75.3265 145.643 75.4878 145.395C75.6523 145.146 75.7345 144.855 75.7345 144.52C75.7345 144.197 75.6631 143.916 75.5204 143.678C75.3777 143.439 75.1761 143.253 74.9155 143.119C74.658 142.986 74.354 142.919 74.0034 142.919C73.6746 142.919 73.3644 142.98 73.0728 143.101C72.7843 143.218 72.5485 143.391 72.3655 143.617C72.1825 143.84 72.0832 144.11 72.0677 144.427H70.9509C70.9695 143.927 71.12 143.49 71.4023 143.115C71.6846 142.736 72.0537 142.441 72.5097 142.23C72.9689 142.019 73.473 141.914 74.0221 141.914C74.6115 141.914 75.1171 142.033 75.539 142.272C75.9609 142.508 76.2851 142.82 76.5116 143.208C76.738 143.595 76.8513 144.014 76.8513 144.464C76.8513 145.001 76.7101 145.458 76.4278 145.837C76.1486 146.215 75.7686 146.477 75.2878 146.623V146.698C75.8896 146.797 76.3596 147.053 76.6977 147.465C77.0358 147.875 77.2049 148.382 77.2049 148.987C77.2049 149.505 77.0638 149.97 76.7815 150.383C76.5023 150.792 76.1207 151.115 75.6368 151.351C75.1528 151.587 74.6022 151.705 73.9848 151.705Z" fill="white"/>
<path opacity="0.5" d="M43.8071 211.813C43.7513 211.342 43.5248 210.976 43.1277 210.715C42.7306 210.455 42.2436 210.324 41.6666 210.324C41.2447 210.324 40.8755 210.393 40.5591 210.529C40.2458 210.666 40.0007 210.853 39.8239 211.092C39.6502 211.331 39.5633 211.603 39.5633 211.907C39.5633 212.161 39.6238 212.38 39.7448 212.563C39.8689 212.743 40.0271 212.893 40.2194 213.014C40.4118 213.132 40.6134 213.23 40.8243 213.307C41.0353 213.382 41.2292 213.442 41.406 213.489L42.3739 213.749C42.6221 213.814 42.8982 213.904 43.2022 214.019C43.5093 214.134 43.8025 214.291 44.0816 214.489C44.3639 214.685 44.5966 214.936 44.7796 215.243C44.9627 215.55 45.0542 215.927 45.0542 216.374C45.0542 216.889 44.9192 217.354 44.6493 217.77C44.3826 218.185 43.9917 218.516 43.4767 218.761C42.9649 219.006 42.3429 219.128 41.6108 219.128C40.9283 219.128 40.3373 219.018 39.8378 218.798C39.3415 218.578 38.9506 218.271 38.6652 217.877C38.3829 217.483 38.2232 217.025 38.1859 216.504H39.3772C39.4082 216.864 39.5292 217.162 39.7401 217.397C39.9542 217.63 40.2241 217.804 40.5498 217.919C40.8786 218.03 41.2323 218.086 41.6108 218.086C42.0513 218.086 42.4468 218.015 42.7973 217.872C43.1479 217.726 43.4255 217.525 43.6303 217.267C43.835 217.007 43.9374 216.703 43.9374 216.355C43.9374 216.039 43.849 215.781 43.6722 215.583C43.4953 215.384 43.2627 215.223 42.9742 215.099C42.6857 214.975 42.3739 214.866 42.0389 214.773L40.8662 214.438C40.1217 214.224 39.5323 213.918 39.098 213.521C38.6637 213.124 38.4465 212.605 38.4465 211.962C38.4465 211.429 38.5908 210.963 38.8793 210.566C39.1709 210.166 39.5618 209.856 40.0519 209.636C40.5451 209.412 41.0958 209.301 41.7038 209.301C42.3181 209.301 42.864 209.411 43.3418 209.631C43.8195 209.848 44.198 210.146 44.4772 210.525C44.7595 210.903 44.9084 211.333 44.9239 211.813H43.8071ZM49.9111 211.813V212.744H46.207V211.813H49.9111ZM47.2866 210.101H48.3848V216.913C48.3848 217.224 48.4298 217.456 48.5197 217.611C48.6128 217.763 48.7307 217.866 48.8734 217.919C49.0192 217.968 49.1727 217.993 49.334 217.993C49.455 217.993 49.5543 217.987 49.6319 217.974C49.7094 217.959 49.7715 217.947 49.818 217.937L50.0413 218.924C49.9669 218.952 49.863 218.98 49.7296 219.007C49.5962 219.038 49.4271 219.054 49.2224 219.054C48.9121 219.054 48.6081 218.987 48.3103 218.854C48.0156 218.721 47.7705 218.517 47.5751 218.244C47.3828 217.971 47.2866 217.627 47.2866 217.211V210.101ZM54.4829 219.11C53.7942 219.11 53.2002 218.958 52.7007 218.654C52.2043 218.347 51.8212 217.919 51.5513 217.37C51.2845 216.817 51.1512 216.175 51.1512 215.443C51.1512 214.711 51.2845 214.066 51.5513 213.507C51.8212 212.946 52.1966 212.508 52.6774 212.195C53.1614 211.879 53.726 211.72 54.3712 211.72C54.7435 211.72 55.1111 211.782 55.4741 211.907C55.837 212.031 56.1674 212.232 56.4652 212.511C56.763 212.788 57.0003 213.154 57.1772 213.61C57.354 214.066 57.4424 214.627 57.4424 215.294V215.759H51.9329V214.81H56.3256C56.3256 214.407 56.245 214.047 56.0836 213.731C55.9254 213.414 55.699 213.164 55.4043 212.981C55.1127 212.798 54.7683 212.707 54.3712 212.707C53.9338 212.707 53.5554 212.815 53.2358 213.033C52.9194 213.247 52.6759 213.526 52.5053 213.87C52.3346 214.215 52.2493 214.584 52.2493 214.978V215.611C52.2493 216.15 52.3424 216.608 52.5285 216.983C52.7178 217.356 52.9799 217.639 53.3149 217.835C53.65 218.027 54.0393 218.123 54.4829 218.123C54.7714 218.123 55.032 218.083 55.2647 218.002C55.5004 217.919 55.7036 217.795 55.8742 217.63C56.0449 217.463 56.1767 217.255 56.2698 217.007L57.3307 217.304C57.219 217.664 57.0314 217.981 56.7677 218.254C56.504 218.524 56.1783 218.734 55.7905 218.886C55.4027 219.035 54.9668 219.11 54.4829 219.11ZM59.1129 221.641V211.813H60.1739V212.949H60.3042C60.3848 212.825 60.4965 212.667 60.6392 212.474C60.785 212.279 60.9929 212.105 61.2627 211.953C61.5357 211.798 61.9049 211.72 62.3702 211.72C62.9721 211.72 63.5025 211.871 63.9617 212.172C64.4208 212.473 64.7791 212.899 65.0366 213.451C65.294 214.004 65.4228 214.655 65.4228 215.406C65.4228 216.163 65.294 216.819 65.0366 217.374C64.7791 217.926 64.4223 218.354 63.9663 218.658C63.5103 218.959 62.9845 219.11 62.3888 219.11C61.9297 219.11 61.5621 219.034 61.286 218.882C61.0099 218.727 60.7974 218.551 60.6485 218.356C60.4996 218.157 60.3848 217.993 60.3042 217.863H60.2111V221.641H59.1129ZM60.1925 215.387C60.1925 215.927 60.2716 216.403 60.4298 216.816C60.588 217.225 60.8191 217.546 61.1231 217.779C61.4272 218.009 61.7994 218.123 62.2399 218.123C62.6991 218.123 63.0822 218.002 63.3893 217.76C63.6995 217.515 63.9322 217.186 64.0873 216.774C64.2455 216.358 64.3246 215.896 64.3246 215.387C64.3246 214.885 64.2471 214.432 64.0919 214.028C63.9399 213.622 63.7088 213.301 63.3986 213.065C63.0915 212.826 62.7053 212.707 62.2399 212.707C61.7932 212.707 61.4179 212.82 61.1138 213.047C60.8098 213.27 60.5803 213.583 60.4252 213.987C60.27 214.387 60.1925 214.854 60.1925 215.387ZM70.5414 217.007V216.057L74.7294 209.431H75.418V210.901H74.9527L71.7885 215.908V215.983H77.4283V217.007H70.5414ZM75.0272 218.961V216.718V216.276V209.431H76.1253V218.961H75.0272Z" fill="white"/>
<path opacity="0.5" d="M43.8071 279.208C43.7513 278.736 43.5248 278.37 43.1277 278.11C42.7306 277.849 42.2436 277.719 41.6666 277.719C41.2447 277.719 40.8755 277.787 40.5591 277.924C40.2458 278.06 40.0007 278.248 39.8239 278.487C39.6502 278.726 39.5633 278.997 39.5633 279.301C39.5633 279.555 39.6238 279.774 39.7448 279.957C39.8689 280.137 40.0271 280.288 40.2194 280.409C40.4118 280.526 40.6134 280.624 40.8243 280.702C41.0353 280.776 41.2292 280.837 41.406 280.883L42.3739 281.144C42.6221 281.209 42.8982 281.299 43.2022 281.414C43.5093 281.528 43.8025 281.685 44.0816 281.884C44.3639 282.079 44.5966 282.33 44.7796 282.637C44.9627 282.945 45.0542 283.322 45.0542 283.768C45.0542 284.283 44.9192 284.749 44.6493 285.164C44.3826 285.58 43.9917 285.91 43.4767 286.155C42.9649 286.4 42.3429 286.523 41.6108 286.523C40.9283 286.523 40.3373 286.413 39.8378 286.193C39.3415 285.972 38.9506 285.665 38.6652 285.271C38.3829 284.877 38.2232 284.42 38.1859 283.899H39.3772C39.4082 284.258 39.5292 284.556 39.7401 284.792C39.9542 285.025 40.2241 285.198 40.5498 285.313C40.8786 285.425 41.2323 285.481 41.6108 285.481C42.0513 285.481 42.4468 285.409 42.7973 285.267C43.1479 285.121 43.4255 284.919 43.6303 284.662C43.835 284.401 43.9374 284.097 43.9374 283.75C43.9374 283.433 43.849 283.176 43.6722 282.977C43.4953 282.779 43.2627 282.617 42.9742 282.493C42.6857 282.369 42.3739 282.261 42.0389 282.168L40.8662 281.832C40.1217 281.618 39.5323 281.313 39.098 280.916C38.6637 280.519 38.4465 279.999 38.4465 279.357C38.4465 278.823 38.5908 278.358 38.8793 277.961C39.1709 277.561 39.5618 277.251 40.0519 277.03C40.5451 276.807 41.0958 276.695 41.7038 276.695C42.3181 276.695 42.864 276.805 43.3418 277.026C43.8195 277.243 44.198 277.541 44.4772 277.919C44.7595 278.298 44.9084 278.727 44.9239 279.208H43.8071ZM49.9111 279.208V280.139H46.207V279.208H49.9111ZM47.2866 277.496H48.3848V284.308C48.3848 284.618 48.4298 284.851 48.5197 285.006C48.6128 285.158 48.7307 285.26 48.8734 285.313C49.0192 285.363 49.1727 285.388 49.334 285.388C49.455 285.388 49.5543 285.381 49.6319 285.369C49.7094 285.353 49.7715 285.341 49.818 285.332L50.0413 286.318C49.9669 286.346 49.863 286.374 49.7296 286.402C49.5962 286.433 49.4271 286.449 49.2224 286.449C48.9121 286.449 48.6081 286.382 48.3103 286.248C48.0156 286.115 47.7705 285.912 47.5751 285.639C47.3828 285.366 47.2866 285.022 47.2866 284.606V277.496ZM54.4829 286.504C53.7942 286.504 53.2002 286.352 52.7007 286.048C52.2043 285.741 51.8212 285.313 51.5513 284.764C51.2845 284.212 51.1512 283.57 51.1512 282.838C51.1512 282.105 51.2845 281.46 51.5513 280.902C51.8212 280.34 52.1966 279.903 52.6774 279.59C53.1614 279.273 53.726 279.115 54.3712 279.115C54.7435 279.115 55.1111 279.177 55.4741 279.301C55.837 279.425 56.1674 279.627 56.4652 279.906C56.763 280.182 57.0003 280.548 57.1772 281.004C57.354 281.46 57.4424 282.022 57.4424 282.689V283.154H51.9329V282.205H56.3256C56.3256 281.801 56.245 281.442 56.0836 281.125C55.9254 280.809 55.699 280.559 55.4043 280.376C55.1127 280.193 54.7683 280.101 54.3712 280.101C53.9338 280.101 53.5554 280.21 53.2358 280.427C52.9194 280.641 52.6759 280.92 52.5053 281.265C52.3346 281.609 52.2493 281.978 52.2493 282.372V283.005C52.2493 283.545 52.3424 284.002 52.5285 284.378C52.7178 284.75 52.9799 285.034 53.3149 285.229C53.65 285.422 54.0393 285.518 54.4829 285.518C54.7714 285.518 55.032 285.478 55.2647 285.397C55.5004 285.313 55.7036 285.189 55.8742 285.025C56.0449 284.857 56.1767 284.649 56.2698 284.401L57.3307 284.699C57.219 285.059 57.0314 285.375 56.7677 285.648C56.504 285.918 56.1783 286.129 55.7905 286.281C55.4027 286.43 54.9668 286.504 54.4829 286.504ZM59.1129 289.036V279.208H60.1739V280.343H60.3042C60.3848 280.219 60.4965 280.061 60.6392 279.869C60.785 279.673 60.9929 279.5 61.2627 279.348C61.5357 279.193 61.9049 279.115 62.3702 279.115C62.9721 279.115 63.5025 279.265 63.9617 279.566C64.4208 279.867 64.7791 280.294 65.0366 280.846C65.294 281.398 65.4228 282.05 65.4228 282.8C65.4228 283.557 65.294 284.213 65.0366 284.769C64.7791 285.321 64.4223 285.749 63.9663 286.053C63.5103 286.354 62.9845 286.504 62.3888 286.504C61.9297 286.504 61.5621 286.428 61.286 286.276C61.0099 286.121 60.7974 285.946 60.6485 285.751C60.4996 285.552 60.3848 285.388 60.3042 285.257H60.2111V289.036H59.1129ZM60.1925 282.782C60.1925 283.322 60.2716 283.798 60.4298 284.21C60.588 284.62 60.8191 284.941 61.1231 285.174C61.4272 285.403 61.7994 285.518 62.2399 285.518C62.6991 285.518 63.0822 285.397 63.3893 285.155C63.6995 284.91 63.9322 284.581 64.0873 284.168C64.2455 283.753 64.3246 283.291 64.3246 282.782C64.3246 282.279 64.2471 281.826 64.0919 281.423C63.9399 281.017 63.7088 280.696 63.3986 280.46C63.0915 280.221 62.7053 280.101 62.2399 280.101C61.7932 280.101 61.4179 280.215 61.1138 280.441C60.8098 280.664 60.5803 280.978 60.4252 281.381C60.27 281.781 60.1925 282.248 60.1925 282.782ZM73.7429 286.486C73.1969 286.486 72.7052 286.377 72.2678 286.16C71.8304 285.943 71.4798 285.645 71.2161 285.267C70.9524 284.888 70.8082 284.457 70.7834 283.973H71.9002C71.9436 284.404 72.139 284.761 72.4865 285.043C72.837 285.322 73.2558 285.462 73.7429 285.462C74.1337 285.462 74.4812 285.371 74.7852 285.187C75.0923 285.004 75.3327 284.753 75.5065 284.434C75.6833 284.111 75.7717 283.747 75.7717 283.34C75.7717 282.924 75.6802 282.554 75.4972 282.228C75.3172 281.899 75.0691 281.64 74.7526 281.451C74.4362 281.262 74.0748 281.166 73.6684 281.162C73.3768 281.159 73.0774 281.204 72.7703 281.297C72.4632 281.387 72.2104 281.504 72.0118 281.646L70.9323 281.516L71.5093 276.826H76.4604V277.849H72.4772L72.1421 280.66H72.198C72.3934 280.505 72.6385 280.376 72.9332 280.274C73.2279 280.171 73.535 280.12 73.8545 280.12C74.4378 280.12 74.9574 280.26 75.4134 280.539C75.8725 280.815 76.2324 281.193 76.493 281.674C76.7566 282.155 76.8885 282.704 76.8885 283.322C76.8885 283.93 76.752 284.472 76.479 284.95C76.2091 285.425 75.8368 285.8 75.3622 286.076C74.8876 286.349 74.3478 286.486 73.7429 286.486Z" fill="white"/>
<path opacity="0.5" d="M43.8071 346.599C43.7513 346.127 43.5248 345.761 43.1277 345.5C42.7306 345.24 42.2436 345.11 41.6666 345.11C41.2447 345.11 40.8755 345.178 40.5591 345.314C40.2458 345.451 40.0007 345.639 39.8239 345.877C39.6502 346.116 39.5633 346.388 39.5633 346.692C39.5633 346.946 39.6238 347.165 39.7448 347.348C39.8689 347.528 40.0271 347.678 40.2194 347.799C40.4118 347.917 40.6134 348.015 40.8243 348.092C41.0353 348.167 41.2292 348.227 41.406 348.274L42.3739 348.534C42.6221 348.6 42.8982 348.69 43.2022 348.804C43.5093 348.919 43.8025 349.076 44.0816 349.274C44.3639 349.47 44.5966 349.721 44.7796 350.028C44.9627 350.335 45.0542 350.712 45.0542 351.159C45.0542 351.674 44.9192 352.139 44.6493 352.555C44.3826 352.971 43.9917 353.301 43.4767 353.546C42.9649 353.791 42.3429 353.914 41.6108 353.914C40.9283 353.914 40.3373 353.803 39.8378 353.583C39.3415 353.363 38.9506 353.056 38.6652 352.662C38.3829 352.268 38.2232 351.81 38.1859 351.289H39.3772C39.4082 351.649 39.5292 351.947 39.7401 352.183C39.9542 352.415 40.2241 352.589 40.5498 352.704C40.8786 352.815 41.2323 352.871 41.6108 352.871C42.0513 352.871 42.4468 352.8 42.7973 352.657C43.1479 352.511 43.4255 352.31 43.6303 352.052C43.835 351.792 43.9374 351.488 43.9374 351.14C43.9374 350.824 43.849 350.566 43.6722 350.368C43.4953 350.169 43.2627 350.008 42.9742 349.884C42.6857 349.76 42.3739 349.651 42.0389 349.558L40.8662 349.223C40.1217 349.009 39.5323 348.703 39.098 348.306C38.6637 347.909 38.4465 347.39 38.4465 346.748C38.4465 346.214 38.5908 345.749 38.8793 345.352C39.1709 344.951 39.5618 344.641 40.0519 344.421C40.5451 344.198 41.0958 344.086 41.7038 344.086C42.3181 344.086 42.864 344.196 43.3418 344.416C43.8195 344.633 44.198 344.931 44.4772 345.31C44.7595 345.688 44.9084 346.118 44.9239 346.599H43.8071ZM49.9111 346.599V347.529H46.207V346.599H49.9111ZM47.2866 344.886H48.3848V351.699C48.3848 352.009 48.4298 352.242 48.5197 352.397C48.6128 352.549 48.7307 352.651 48.8734 352.704C49.0192 352.753 49.1727 352.778 49.334 352.778C49.455 352.778 49.5543 352.772 49.6319 352.76C49.7094 352.744 49.7715 352.732 49.818 352.722L50.0413 353.709C49.9669 353.737 49.863 353.765 49.7296 353.793C49.5962 353.824 49.4271 353.839 49.2224 353.839C48.9121 353.839 48.6081 353.772 48.3103 353.639C48.0156 353.506 47.7705 353.302 47.5751 353.029C47.3828 352.756 47.2866 352.412 47.2866 351.996V344.886ZM54.4829 353.895C53.7942 353.895 53.2002 353.743 52.7007 353.439C52.2043 353.132 51.8212 352.704 51.5513 352.155C51.2845 351.602 51.1512 350.96 51.1512 350.228C51.1512 349.496 51.2845 348.851 51.5513 348.292C51.8212 347.731 52.1966 347.294 52.6774 346.98C53.1614 346.664 53.726 346.506 54.3712 346.506C54.7435 346.506 55.1111 346.568 55.4741 346.692C55.837 346.816 56.1674 347.017 56.4652 347.297C56.763 347.573 57.0003 347.939 57.1772 348.395C57.354 348.851 57.4424 349.412 57.4424 350.079V350.545H51.9329V349.595H56.3256C56.3256 349.192 56.245 348.832 56.0836 348.516C55.9254 348.199 55.699 347.95 55.4043 347.767C55.1127 347.584 54.7683 347.492 54.3712 347.492C53.9338 347.492 53.5554 347.601 53.2358 347.818C52.9194 348.032 52.6759 348.311 52.5053 348.655C52.3346 349 52.2493 349.369 52.2493 349.763V350.396C52.2493 350.936 52.3424 351.393 52.5285 351.768C52.7178 352.141 52.9799 352.425 53.3149 352.62C53.65 352.812 54.0393 352.909 54.4829 352.909C54.7714 352.909 55.032 352.868 55.2647 352.788C55.5004 352.704 55.7036 352.58 55.8742 352.415C56.0449 352.248 56.1767 352.04 56.2698 351.792L57.3307 352.09C57.219 352.449 57.0314 352.766 56.7677 353.039C56.504 353.309 56.1783 353.52 55.7905 353.672C55.4027 353.821 54.9668 353.895 54.4829 353.895ZM59.1129 356.426V346.599H60.1739V347.734H60.3042C60.3848 347.61 60.4965 347.452 60.6392 347.259C60.785 347.064 60.9929 346.89 61.2627 346.738C61.5357 346.583 61.9049 346.506 62.3702 346.506C62.9721 346.506 63.5025 346.656 63.9617 346.957C64.4208 347.258 64.7791 347.684 65.0366 348.237C65.294 348.789 65.4228 349.44 65.4228 350.191C65.4228 350.948 65.294 351.604 65.0366 352.159C64.7791 352.712 64.4223 353.14 63.9663 353.444C63.5103 353.745 62.9845 353.895 62.3888 353.895C61.9297 353.895 61.5621 353.819 61.286 353.667C61.0099 353.512 60.7974 353.337 60.6485 353.141C60.4996 352.943 60.3848 352.778 60.3042 352.648H60.2111V356.426H59.1129ZM60.1925 350.172C60.1925 350.712 60.2716 351.188 60.4298 351.601C60.588 352.01 60.8191 352.331 61.1231 352.564C61.4272 352.794 61.7994 352.909 62.2399 352.909C62.6991 352.909 63.0822 352.788 63.3893 352.546C63.6995 352.3 63.9322 351.972 64.0873 351.559C64.2455 351.143 64.3246 350.681 64.3246 350.172C64.3246 349.67 64.2471 349.217 64.0919 348.814C63.9399 348.407 63.7088 348.086 63.3986 347.85C63.0915 347.612 62.7053 347.492 62.2399 347.492C61.7932 347.492 61.4179 347.605 61.1138 347.832C60.8098 348.055 60.5803 348.368 60.4252 348.772C60.27 349.172 60.1925 349.639 60.1925 350.172ZM73.929 353.876C73.5381 353.87 73.1472 353.796 72.7564 353.653C72.3655 353.51 72.0087 353.27 71.6861 352.932C71.3635 352.591 71.1044 352.13 70.909 351.55C70.7136 350.967 70.6159 350.234 70.6159 349.353C70.6159 348.51 70.695 347.762 70.8532 347.111C71.0114 346.456 71.2409 345.905 71.5419 345.459C71.8428 345.009 72.2057 344.668 72.6307 344.435C73.0588 344.202 73.5412 344.086 74.0779 344.086C74.6115 344.086 75.0861 344.193 75.5018 344.407C75.9206 344.618 76.2618 344.913 76.5255 345.291C76.7892 345.67 76.9598 346.105 77.0374 346.599H75.902C75.7965 346.171 75.5918 345.815 75.2878 345.533C74.9837 345.251 74.5805 345.11 74.0779 345.11C73.3396 345.11 72.7579 345.431 72.3329 346.073C71.911 346.715 71.6985 347.616 71.6954 348.776H71.7699C71.9436 348.513 72.1499 348.288 72.3888 348.102C72.6307 347.912 72.8975 347.767 73.1891 347.664C73.4807 347.562 73.7894 347.511 74.1151 347.511C74.6611 347.511 75.1606 347.647 75.6135 347.92C76.0664 348.19 76.4294 348.564 76.7024 349.042C76.9753 349.516 77.1118 350.061 77.1118 350.675C77.1118 351.264 76.98 351.804 76.7163 352.294C76.4526 352.781 76.0819 353.169 75.6042 353.458C75.1295 353.743 74.5711 353.883 73.929 353.876ZM73.929 352.853C74.3199 352.853 74.6704 352.755 74.9806 352.56C75.294 352.364 75.5406 352.102 75.7205 351.773C75.9035 351.444 75.9951 351.078 75.9951 350.675C75.9951 350.281 75.9066 349.923 75.7298 349.6C75.5561 349.274 75.3157 349.015 75.0086 348.823C74.7045 348.631 74.3571 348.534 73.9662 348.534C73.6715 348.534 73.397 348.593 73.1426 348.711C72.8882 348.826 72.6649 348.984 72.4725 349.186C72.2833 349.388 72.1344 349.619 72.0258 349.879C71.9172 350.137 71.8629 350.408 71.8629 350.694C71.8629 351.072 71.9513 351.426 72.1282 351.754C72.3081 352.083 72.5532 352.349 72.8634 352.55C73.1767 352.752 73.5319 352.853 73.929 352.853Z" fill="white"/>
<path d="M48.9643 32.8607H47.0976C47.0258 32.4618 46.8922 32.1108 46.6968 31.8077C46.5014 31.5046 46.262 31.2473 45.9789 31.0359C45.6957 30.8245 45.3786 30.665 45.0276 30.5573C44.6806 30.4496 44.3117 30.3958 43.9208 30.3958C43.2148 30.3958 42.5826 30.5733 42.0242 30.9282C41.4698 31.2832 41.0311 31.8037 40.708 32.4897C40.3889 33.1758 40.2294 34.0134 40.2294 35.0025C40.2294 35.9997 40.3889 36.8412 40.708 37.5273C41.0311 38.2133 41.4718 38.7318 42.0302 39.0828C42.5886 39.4338 43.2168 39.6093 43.9148 39.6093C44.3017 39.6093 44.6686 39.5574 45.0156 39.4537C45.3666 39.346 45.6837 39.1885 45.9669 38.9811C46.2501 38.7737 46.4894 38.5204 46.6848 38.2213C46.8843 37.9181 47.0219 37.5711 47.0976 37.1803L48.9643 37.1862C48.8646 37.7885 48.6711 38.3429 48.3839 38.8495C48.1008 39.352 47.7358 39.7868 47.2891 40.1537C46.8464 40.5167 46.3398 40.7979 45.7695 40.9973C45.1991 41.1967 44.5769 41.2964 43.9028 41.2964C42.8419 41.2964 41.8966 41.0451 41.067 40.5426C40.2374 40.036 39.5832 39.3121 39.1046 38.3708C38.63 37.4295 38.3927 36.3068 38.3927 35.0025C38.3927 33.6943 38.632 32.5715 39.1106 31.6342C39.5892 30.6929 40.2433 29.971 41.073 29.4684C41.9026 28.9619 42.8459 28.7086 43.9028 28.7086C44.553 28.7086 45.1592 28.8023 45.7216 28.9898C46.288 29.1733 46.7965 29.4445 47.2472 29.8035C47.6979 30.1585 48.0708 30.5932 48.366 31.1077C48.6611 31.6183 48.8606 32.2026 48.9643 32.8607ZM54.9037 41.3144C54.0422 41.3144 53.2903 41.1169 52.6482 40.7221C52.006 40.3272 51.5075 39.7748 51.1525 39.0648C50.7975 38.3549 50.62 37.5253 50.62 36.576C50.62 35.6227 50.7975 34.7891 51.1525 34.0752C51.5075 33.3612 52.006 32.8068 52.6482 32.412C53.2903 32.0171 54.0422 31.8197 54.9037 31.8197C55.7652 31.8197 56.5171 32.0171 57.1592 32.412C57.8014 32.8068 58.2999 33.3612 58.6549 34.0752C59.0099 34.7891 59.1874 35.6227 59.1874 36.576C59.1874 37.5253 59.0099 38.3549 58.6549 39.0648C58.2999 39.7748 57.8014 40.3272 57.1592 40.7221C56.5171 41.1169 55.7652 41.3144 54.9037 41.3144ZM54.9097 39.8127C55.4681 39.8127 55.9307 39.6651 56.2977 39.37C56.6646 39.0748 56.9359 38.6819 57.1113 38.1914C57.2908 37.7008 57.3806 37.1603 57.3806 36.57C57.3806 35.9837 57.2908 35.4452 57.1113 34.9547C56.9359 34.4601 56.6646 34.0632 56.2977 33.7641C55.9307 33.4649 55.4681 33.3154 54.9097 33.3154C54.3473 33.3154 53.8806 33.4649 53.5097 33.7641C53.1428 34.0632 52.8695 34.4601 52.6901 34.9547C52.5146 35.4452 52.4268 35.9837 52.4268 36.57C52.4268 37.1603 52.5146 37.7008 52.6901 38.1914C52.8695 38.6819 53.1428 39.0748 53.5097 39.37C53.8806 39.6651 54.3473 39.8127 54.9097 39.8127ZM61.1841 41.1289V31.9393H62.9012V33.435H63.0149C63.2063 32.9285 63.5194 32.5336 63.9542 32.2504C64.3889 31.9633 64.9094 31.8197 65.5157 31.8197C66.1299 31.8197 66.6444 31.9633 67.0592 32.2504C67.478 32.5376 67.7872 32.9325 67.9866 33.435H68.0823C68.3017 32.9444 68.6507 32.5536 69.1293 32.2624C69.6079 31.9672 70.1783 31.8197 70.8404 31.8197C71.674 31.8197 72.354 32.0809 72.8805 32.6034C73.411 33.1259 73.6762 33.9137 73.6762 34.9666V41.1289H71.8874V35.1341C71.8874 34.5119 71.7178 34.0612 71.3788 33.782C71.0398 33.5028 70.635 33.3632 70.1643 33.3632C69.582 33.3632 69.1293 33.5427 68.8062 33.9017C68.4831 34.2567 68.3216 34.7134 68.3216 35.2717V41.1289H66.5387V35.0205C66.5387 34.5219 66.3832 34.1211 66.0721 33.8179C65.761 33.5148 65.3561 33.3632 64.8576 33.3632C64.5185 33.3632 64.2054 33.453 63.9183 33.6325C63.6351 33.808 63.4057 34.0533 63.2303 34.3683C63.0587 34.6834 62.973 35.0484 62.973 35.4632V41.1289H61.1841ZM76.0738 44.575V31.9393H77.8208V33.429H77.9704C78.0741 33.2376 78.2236 33.0162 78.4191 32.765C78.6145 32.5137 78.8857 32.2943 79.2327 32.1068C79.5797 31.9154 80.0384 31.8197 80.6088 31.8197C81.3507 31.8197 82.0127 32.0071 82.5951 32.3821C83.1774 32.757 83.6341 33.2974 83.9651 34.0034C84.3002 34.7094 84.4677 35.5589 84.4677 36.5521C84.4677 37.5452 84.3022 38.3968 83.9711 39.1067C83.6401 39.8127 83.1854 40.3571 82.607 40.74C82.0287 41.1189 81.3686 41.3084 80.6267 41.3084C80.0683 41.3084 79.6117 41.2147 79.2567 41.0272C78.9057 40.8397 78.6305 40.6204 78.431 40.3691C78.2316 40.1178 78.0781 39.8945 77.9704 39.699H77.8627V44.575H76.0738ZM77.8268 36.5341C77.8268 37.1803 77.9205 37.7466 78.108 38.2332C78.2954 38.7198 78.5667 39.1007 78.9216 39.3759C79.2766 39.6472 79.7114 39.7828 80.2259 39.7828C80.7603 39.7828 81.2071 39.6412 81.566 39.358C81.925 39.0708 82.1962 38.6819 82.3797 38.1914C82.5672 37.7008 82.6609 37.1484 82.6609 36.5341C82.6609 35.9279 82.5691 35.3834 82.3857 34.9008C82.2062 34.4182 81.935 34.0373 81.572 33.7581C81.213 33.4789 80.7643 33.3393 80.2259 33.3393C79.7074 33.3393 79.2686 33.4729 78.9097 33.7402C78.5547 34.0074 78.2855 34.3803 78.102 34.8589C77.9185 35.3376 77.8268 35.896 77.8268 36.5341ZM89.1462 41.3323C88.5639 41.3323 88.0374 41.2246 87.5668 41.0093C87.0961 40.7899 86.7232 40.4728 86.448 40.058C86.1768 39.6432 86.0412 39.1346 86.0412 38.5324C86.0412 38.0139 86.1409 37.5871 86.3403 37.2521C86.5397 36.917 86.809 36.6518 87.148 36.4563C87.487 36.2609 87.8659 36.1133 88.2847 36.0136C88.7035 35.9139 89.1303 35.8381 89.565 35.7863C90.1154 35.7225 90.5622 35.6706 90.9052 35.6307C91.2482 35.5868 91.4975 35.517 91.653 35.4213C91.8086 35.3256 91.8864 35.17 91.8864 34.9547V34.9128C91.8864 34.3903 91.7388 33.9854 91.4436 33.6983C91.1525 33.4111 90.7177 33.2675 90.1394 33.2675C89.5371 33.2675 89.0625 33.4011 88.7155 33.6684C88.3725 33.9316 88.1351 34.2248 88.0035 34.5478L86.3224 34.1649C86.5218 33.6065 86.8129 33.1558 87.1958 32.8128C87.5827 32.4658 88.0275 32.2145 88.53 32.059C89.0326 31.8994 89.561 31.8197 90.1154 31.8197C90.4824 31.8197 90.8713 31.8635 91.2821 31.9513C91.6969 32.0351 92.0838 32.1906 92.4428 32.418C92.8057 32.6453 93.1029 32.9704 93.3342 33.3931C93.5655 33.8119 93.6812 34.3564 93.6812 35.0265V41.1289H91.9342V39.8725H91.8624C91.7468 40.1039 91.5733 40.3312 91.3419 40.5546C91.1106 40.7779 90.8134 40.9634 90.4505 41.111C90.0875 41.2585 89.6528 41.3323 89.1462 41.3323ZM89.5351 39.8964C90.0297 39.8964 90.4525 39.7987 90.8035 39.6033C91.1584 39.4079 91.4277 39.1526 91.6111 38.8375C91.7986 38.5184 91.8923 38.1774 91.8923 37.8144V36.6298C91.8285 36.6937 91.7049 36.7535 91.5214 36.8093C91.3419 36.8612 91.1365 36.907 90.9052 36.9469C90.6738 36.9828 90.4485 37.0167 90.2291 37.0486C90.0098 37.0766 89.8263 37.1005 89.6787 37.1204C89.3317 37.1643 89.0146 37.2381 88.7274 37.3418C88.4443 37.4455 88.2169 37.5951 88.0454 37.7905C87.8779 37.982 87.7941 38.2372 87.7941 38.5563C87.7941 38.999 87.9577 39.3341 88.2847 39.5614C88.6118 39.7848 89.0286 39.8964 89.5351 39.8964ZM97.8527 35.6726V41.1289H96.0638V31.9393H97.7809V33.435H97.8946C98.106 32.9484 98.437 32.5576 98.8877 32.2624C99.3424 31.9672 99.9148 31.8197 100.605 31.8197C101.231 31.8197 101.779 31.9513 102.25 32.2145C102.721 32.4738 103.086 32.8607 103.345 33.3752C103.604 33.8897 103.734 34.5259 103.734 35.2837V41.1289H101.945V35.4991C101.945 34.833 101.771 34.3125 101.424 33.9376C101.077 33.5587 100.601 33.3692 99.9945 33.3692C99.5797 33.3692 99.2108 33.459 98.8877 33.6384C98.5686 33.8179 98.3154 34.0812 98.1279 34.4282C97.9444 34.7712 97.8527 35.186 97.8527 35.6726ZM106.935 44.575C106.667 44.575 106.424 44.5531 106.205 44.5092C105.985 44.4693 105.822 44.4254 105.714 44.3776L106.145 42.9118C106.472 42.9995 106.763 43.0374 107.018 43.0255C107.274 43.0135 107.499 42.9178 107.694 42.7383C107.894 42.5588 108.069 42.2656 108.221 41.8588L108.442 41.2486L105.08 31.9393H106.994L109.322 39.0708H109.417L111.745 31.9393H113.665L109.878 42.3554C109.703 42.834 109.479 43.2388 109.208 43.5699C108.937 43.9049 108.614 44.1562 108.239 44.3237C107.864 44.4912 107.429 44.575 106.935 44.575ZM129.838 28.8761V41.1289H128.139L121.911 32.1427H121.797V41.1289H119.949V28.8761H121.66L127.894 37.8743H128.007V28.8761H129.838ZM135.066 41.3323C134.483 41.3323 133.957 41.2246 133.486 41.0093C133.016 40.7899 132.643 40.4728 132.367 40.058C132.096 39.6432 131.961 39.1346 131.961 38.5324C131.961 38.0139 132.06 37.5871 132.26 37.2521C132.459 36.917 132.728 36.6518 133.067 36.4563C133.406 36.2609 133.785 36.1133 134.204 36.0136C134.623 35.9139 135.05 35.8381 135.484 35.7863C136.035 35.7225 136.482 35.6706 136.825 35.6307C137.168 35.5868 137.417 35.517 137.572 35.4213C137.728 35.3256 137.806 35.17 137.806 34.9547V34.9128C137.806 34.3903 137.658 33.9854 137.363 33.6983C137.072 33.4111 136.637 33.2675 136.059 33.2675C135.457 33.2675 134.982 33.4011 134.635 33.6684C134.292 33.9316 134.055 34.2248 133.923 34.5478L132.242 34.1649C132.441 33.6065 132.732 33.1558 133.115 32.8128C133.502 32.4658 133.947 32.2145 134.449 32.059C134.952 31.8994 135.481 31.8197 136.035 31.8197C136.402 31.8197 136.791 31.8635 137.202 31.9513C137.616 32.0351 138.003 32.1906 138.362 32.418C138.725 32.6453 139.022 32.9704 139.254 33.3931C139.485 33.8119 139.601 34.3564 139.601 35.0265V41.1289H137.854V39.8725H137.782C137.666 40.1039 137.493 40.3312 137.261 40.5546C137.03 40.7779 136.733 40.9634 136.37 41.111C136.007 41.2585 135.572 41.3323 135.066 41.3323ZM135.455 39.8964C135.949 39.8964 136.372 39.7987 136.723 39.6033C137.078 39.4079 137.347 39.1526 137.531 38.8375C137.718 38.5184 137.812 38.1774 137.812 37.8144V36.6298C137.748 36.6937 137.624 36.7535 137.441 36.8093C137.261 36.8612 137.056 36.907 136.825 36.9469C136.593 36.9828 136.368 37.0167 136.149 37.0486C135.929 37.0766 135.746 37.1005 135.598 37.1204C135.251 37.1643 134.934 37.2381 134.647 37.3418C134.364 37.4455 134.136 37.5951 133.965 37.7905C133.797 37.982 133.714 38.2372 133.714 38.5563C133.714 38.999 133.877 39.3341 134.204 39.5614C134.531 39.7848 134.948 39.8964 135.455 39.8964ZM141.983 41.1289V31.9393H143.7V33.435H143.814C144.005 32.9285 144.319 32.5336 144.753 32.2504C145.188 31.9633 145.709 31.8197 146.315 31.8197C146.929 31.8197 147.444 31.9633 147.858 32.2504C148.277 32.5376 148.586 32.9325 148.786 33.435H148.881C149.101 32.9444 149.45 32.5536 149.928 32.2624C150.407 31.9672 150.977 31.8197 151.64 31.8197C152.473 31.8197 153.153 32.0809 153.68 32.6034C154.21 33.1259 154.475 33.9137 154.475 34.9666V41.1289H152.687V35.1341C152.687 34.5119 152.517 34.0612 152.178 33.782C151.839 33.5028 151.434 33.3632 150.963 33.3632C150.381 33.3632 149.928 33.5427 149.605 33.9017C149.282 34.2567 149.121 34.7134 149.121 35.2717V41.1289H147.338V35.0205C147.338 34.5219 147.182 34.1211 146.871 33.8179C146.56 33.5148 146.155 33.3632 145.657 33.3632C145.318 33.3632 145.005 33.453 144.717 33.6325C144.434 33.808 144.205 34.0533 144.029 34.3683C143.858 34.6834 143.772 35.0484 143.772 35.4632V41.1289H141.983ZM160.834 41.3144C159.928 41.3144 159.148 41.1209 158.494 40.734C157.844 40.3432 157.342 39.7947 156.987 39.0888C156.636 38.3788 156.46 37.5472 156.46 36.5939C156.46 35.6527 156.636 34.823 156.987 34.1051C157.342 33.3872 157.836 32.8268 158.47 32.4239C159.109 32.0211 159.854 31.8197 160.708 31.8197C161.226 31.8197 161.729 31.9054 162.216 32.0769C162.702 32.2484 163.139 32.5177 163.526 32.8846C163.913 33.2516 164.218 33.7282 164.441 34.3145C164.665 34.8968 164.776 35.6048 164.776 36.4384V37.0726H157.471V35.7324H163.023C163.023 35.2618 162.928 34.845 162.736 34.482C162.545 34.1151 162.275 33.8259 161.928 33.6145C161.585 33.4031 161.183 33.2974 160.72 33.2974C160.217 33.2974 159.779 33.4211 159.404 33.6684C159.033 33.9117 158.746 34.2307 158.542 34.6256C158.343 35.0165 158.243 35.4413 158.243 35.8999V36.9469C158.243 37.5612 158.351 38.0837 158.566 38.5144C158.785 38.9452 159.091 39.2742 159.481 39.5016C159.872 39.7249 160.329 39.8366 160.852 39.8366C161.191 39.8366 161.5 39.7888 161.779 39.693C162.058 39.5933 162.299 39.4457 162.503 39.2503C162.706 39.0549 162.862 38.8136 162.969 38.5264L164.663 38.8315C164.527 39.3301 164.284 39.7668 163.933 40.1417C163.586 40.5127 163.149 40.8018 162.622 41.0093C162.1 41.2127 161.504 41.3144 160.834 41.3144Z" fill="white"/>
<path opacity="0.5" d="M48.9643 100.251H47.0976C47.0258 99.8525 46.8922 99.5015 46.6968 99.1983C46.5014 98.8952 46.262 98.6379 45.9789 98.4266C45.6957 98.2152 45.3786 98.0556 45.0276 97.9479C44.6806 97.8402 44.3117 97.7864 43.9208 97.7864C43.2148 97.7864 42.5826 97.9639 42.0242 98.3189C41.4698 98.6738 41.0311 99.1943 40.708 99.8804C40.3889 100.566 40.2294 101.404 40.2294 102.393C40.2294 103.39 40.3889 104.232 40.708 104.918C41.0311 105.604 41.4718 106.122 42.0302 106.473C42.5886 106.824 43.2168 107 43.9148 107C44.3017 107 44.6686 106.948 45.0156 106.844C45.3666 106.737 45.6837 106.579 45.9669 106.372C46.2501 106.164 46.4894 105.911 46.6848 105.612C46.8843 105.309 47.0219 104.962 47.0976 104.571L48.9643 104.577C48.8646 105.179 48.6711 105.734 48.3839 106.24C48.1008 106.743 47.7358 107.177 47.2891 107.544C46.8464 107.907 46.3398 108.188 45.7695 108.388C45.1991 108.587 44.5769 108.687 43.9028 108.687C42.8419 108.687 41.8966 108.436 41.067 107.933C40.2374 107.427 39.5832 106.703 39.1046 105.761C38.63 104.82 38.3927 103.697 38.3927 102.393C38.3927 101.085 38.632 99.9621 39.1106 99.0248C39.5892 98.0835 40.2433 97.3616 41.073 96.8591C41.9026 96.3525 42.8459 96.0992 43.9028 96.0992C44.553 96.0992 45.1592 96.193 45.7216 96.3804C46.288 96.5639 46.7965 96.8351 47.2472 97.1941C47.6979 97.5491 48.0708 97.9838 48.366 98.4983C48.6611 99.0089 48.8606 99.5932 48.9643 100.251ZM54.9037 108.705C54.0422 108.705 53.2903 108.508 52.6482 108.113C52.006 107.718 51.5075 107.165 51.1525 106.455C50.7975 105.746 50.62 104.916 50.62 103.967C50.62 103.013 50.7975 102.18 51.1525 101.466C51.5075 100.752 52.006 100.197 52.6482 99.8026C53.2903 99.4077 54.0422 99.2103 54.9037 99.2103C55.7652 99.2103 56.5171 99.4077 57.1592 99.8026C57.8014 100.197 58.2999 100.752 58.6549 101.466C59.0099 102.18 59.1874 103.013 59.1874 103.967C59.1874 104.916 59.0099 105.746 58.6549 106.455C58.2999 107.165 57.8014 107.718 57.1592 108.113C56.5171 108.508 55.7652 108.705 54.9037 108.705ZM54.9097 107.203C55.4681 107.203 55.9307 107.056 56.2977 106.761C56.6646 106.465 56.9359 106.073 57.1113 105.582C57.2908 105.091 57.3806 104.551 57.3806 103.961C57.3806 103.374 57.2908 102.836 57.1113 102.345C56.9359 101.851 56.6646 101.454 56.2977 101.155C55.9307 100.856 55.4681 100.706 54.9097 100.706C54.3473 100.706 53.8806 100.856 53.5097 101.155C53.1428 101.454 52.8695 101.851 52.6901 102.345C52.5146 102.836 52.4268 103.374 52.4268 103.961C52.4268 104.551 52.5146 105.091 52.6901 105.582C52.8695 106.073 53.1428 106.465 53.5097 106.761C53.8806 107.056 54.3473 107.203 54.9097 107.203ZM61.1841 108.52V99.33H62.9012V100.826H63.0149C63.2063 100.319 63.5194 99.9242 63.9542 99.6411C64.3889 99.3539 64.9094 99.2103 65.5157 99.2103C66.1299 99.2103 66.6444 99.3539 67.0592 99.6411C67.478 99.9282 67.7872 100.323 67.9866 100.826H68.0823C68.3017 100.335 68.6507 99.9442 69.1293 99.653C69.6079 99.3579 70.1783 99.2103 70.8404 99.2103C71.674 99.2103 72.354 99.4715 72.8805 99.994C73.411 100.517 73.6762 101.304 73.6762 102.357V108.52H71.8874V102.525C71.8874 101.903 71.7178 101.452 71.3788 101.173C71.0398 100.893 70.635 100.754 70.1643 100.754C69.582 100.754 69.1293 100.933 68.8062 101.292C68.4831 101.647 68.3216 102.104 68.3216 102.662V108.52H66.5387V102.411C66.5387 101.913 66.3832 101.512 66.0721 101.209C65.761 100.905 65.3561 100.754 64.8576 100.754C64.5185 100.754 64.2054 100.844 63.9183 101.023C63.6351 101.199 63.4057 101.444 63.2303 101.759C63.0587 102.074 62.973 102.439 62.973 102.854V108.52H61.1841ZM76.0738 111.966V99.33H77.8208V100.82H77.9704C78.0741 100.628 78.2236 100.407 78.4191 100.156C78.6145 99.9043 78.8857 99.6849 79.2327 99.4975C79.5797 99.306 80.0384 99.2103 80.6088 99.2103C81.3507 99.2103 82.0127 99.3978 82.5951 99.7727C83.1774 100.148 83.6341 100.688 83.9651 101.394C84.3002 102.1 84.4677 102.95 84.4677 103.943C84.4677 104.936 84.3022 105.787 83.9711 106.497C83.6401 107.203 83.1854 107.748 82.607 108.131C82.0287 108.51 81.3686 108.699 80.6267 108.699C80.0683 108.699 79.6117 108.605 79.2567 108.418C78.9057 108.23 78.6305 108.011 78.431 107.76C78.2316 107.508 78.0781 107.285 77.9704 107.09H77.8627V111.966H76.0738ZM77.8268 103.925C77.8268 104.571 77.9205 105.137 78.108 105.624C78.2954 106.11 78.5667 106.491 78.9216 106.767C79.2766 107.038 79.7114 107.173 80.2259 107.173C80.7603 107.173 81.2071 107.032 81.566 106.749C81.925 106.461 82.1962 106.073 82.3797 105.582C82.5672 105.091 82.6609 104.539 82.6609 103.925C82.6609 103.318 82.5691 102.774 82.3857 102.291C82.2062 101.809 81.935 101.428 81.572 101.149C81.213 100.87 80.7643 100.73 80.2259 100.73C79.7074 100.73 79.2686 100.864 78.9097 101.131C78.5547 101.398 78.2855 101.771 78.102 102.25C77.9185 102.728 77.8268 103.287 77.8268 103.925ZM89.1462 108.723C88.5639 108.723 88.0374 108.615 87.5668 108.4C87.0961 108.181 86.7232 107.863 86.448 107.449C86.1768 107.034 86.0412 106.525 86.0412 105.923C86.0412 105.404 86.1409 104.978 86.3403 104.643C86.5397 104.308 86.809 104.042 87.148 103.847C87.487 103.652 87.8659 103.504 88.2847 103.404C88.7035 103.305 89.1303 103.229 89.565 103.177C90.1154 103.113 90.5622 103.061 90.9052 103.021C91.2482 102.977 91.4975 102.908 91.653 102.812C91.8086 102.716 91.8864 102.561 91.8864 102.345V102.303C91.8864 101.781 91.7388 101.376 91.4436 101.089C91.1525 100.802 90.7177 100.658 90.1394 100.658C89.5371 100.658 89.0625 100.792 88.7155 101.059C88.3725 101.322 88.1351 101.615 88.0035 101.938L86.3224 101.556C86.5218 100.997 86.8129 100.546 87.1958 100.203C87.5827 99.8564 88.0275 99.6052 88.53 99.4496C89.0326 99.2901 89.561 99.2103 90.1154 99.2103C90.4824 99.2103 90.8713 99.2542 91.2821 99.3419C91.6969 99.4257 92.0838 99.5812 92.4428 99.8086C92.8057 100.036 93.1029 100.361 93.3342 100.784C93.5655 101.203 93.6812 101.747 93.6812 102.417V108.52H91.9342V107.263H91.8624C91.7468 107.494 91.5733 107.722 91.3419 107.945C91.1106 108.169 90.8134 108.354 90.4505 108.502C90.0875 108.649 89.6528 108.723 89.1462 108.723ZM89.5351 107.287C90.0297 107.287 90.4525 107.189 90.8035 106.994C91.1584 106.798 91.4277 106.543 91.6111 106.228C91.7986 105.909 91.8923 105.568 91.8923 105.205V104.02C91.8285 104.084 91.7049 104.144 91.5214 104.2C91.3419 104.252 91.1365 104.298 90.9052 104.338C90.6738 104.373 90.4485 104.407 90.2291 104.439C90.0098 104.467 89.8263 104.491 89.6787 104.511C89.3317 104.555 89.0146 104.629 88.7274 104.732C88.4443 104.836 88.2169 104.986 88.0454 105.181C87.8779 105.373 87.7941 105.628 87.7941 105.947C87.7941 106.39 87.9577 106.725 88.2847 106.952C88.6118 107.175 89.0286 107.287 89.5351 107.287ZM97.8527 103.063V108.52H96.0638V99.33H97.7809V100.826H97.8946C98.106 100.339 98.437 99.9482 98.8877 99.653C99.3424 99.3579 99.9148 99.2103 100.605 99.2103C101.231 99.2103 101.779 99.3419 102.25 99.6052C102.721 99.8644 103.086 100.251 103.345 100.766C103.604 101.28 103.734 101.917 103.734 102.674V108.52H101.945V102.89C101.945 102.224 101.771 101.703 101.424 101.328C101.077 100.949 100.601 100.76 99.9945 100.76C99.5797 100.76 99.2108 100.85 98.8877 101.029C98.5686 101.209 98.3154 101.472 98.1279 101.819C97.9444 102.162 97.8527 102.577 97.8527 103.063ZM106.935 111.966C106.667 111.966 106.424 111.944 106.205 111.9C105.985 111.86 105.822 111.816 105.714 111.768L106.145 110.302C106.472 110.39 106.763 110.428 107.018 110.416C107.274 110.404 107.499 110.308 107.694 110.129C107.894 109.949 108.069 109.656 108.221 109.249L108.442 108.639L105.08 99.33H106.994L109.322 106.461H109.417L111.745 99.33H113.665L109.878 109.746C109.703 110.225 109.479 110.629 109.208 110.961C108.937 111.296 108.614 111.547 108.239 111.714C107.864 111.882 107.429 111.966 106.935 111.966ZM123.915 108.52H119.949V96.2668H124.041C125.241 96.2668 126.272 96.5121 127.134 97.0026C127.996 97.4892 128.656 98.1892 129.114 99.1026C129.577 100.012 129.808 101.103 129.808 102.375C129.808 103.652 129.575 104.748 129.108 105.666C128.646 106.583 127.976 107.289 127.098 107.784C126.221 108.274 125.16 108.52 123.915 108.52ZM121.797 106.904H123.814C124.747 106.904 125.523 106.729 126.141 106.378C126.759 106.023 127.222 105.51 127.529 104.84C127.836 104.166 127.99 103.344 127.99 102.375C127.99 101.414 127.836 100.598 127.529 99.9282C127.226 99.2582 126.773 98.7496 126.171 98.4026C125.569 98.0556 124.821 97.8821 123.927 97.8821H121.797V106.904ZM135.924 108.705C135.019 108.705 134.239 108.512 133.585 108.125C132.935 107.734 132.432 107.185 132.077 106.479C131.726 105.769 131.551 104.938 131.551 103.985C131.551 103.043 131.726 102.214 132.077 101.496C132.432 100.778 132.927 100.217 133.561 99.8146C134.199 99.4117 134.945 99.2103 135.799 99.2103C136.317 99.2103 136.82 99.2961 137.306 99.4676C137.793 99.6391 138.23 99.9083 138.616 100.275C139.003 100.642 139.309 101.119 139.532 101.705C139.755 102.287 139.867 102.995 139.867 103.829V104.463H132.562V103.123H138.114C138.114 102.652 138.018 102.236 137.827 101.873C137.635 101.506 137.366 101.217 137.019 101.005C136.676 100.794 136.273 100.688 135.811 100.688C135.308 100.688 134.869 100.812 134.494 101.059C134.123 101.302 133.836 101.621 133.633 102.016C133.433 102.407 133.334 102.832 133.334 103.291V104.338C133.334 104.952 133.441 105.474 133.657 105.905C133.876 106.336 134.181 106.665 134.572 106.892C134.963 107.116 135.42 107.227 135.942 107.227C136.281 107.227 136.59 107.179 136.87 107.084C137.149 106.984 137.39 106.836 137.593 106.641C137.797 106.445 137.952 106.204 138.06 105.917L139.753 106.222C139.618 106.721 139.374 107.157 139.023 107.532C138.676 107.903 138.24 108.192 137.713 108.4C137.191 108.603 136.594 108.705 135.924 108.705ZM146.141 99.33V100.766H141.122V99.33H146.141ZM142.468 97.1283H144.257V105.821C144.257 106.168 144.309 106.43 144.412 106.605C144.516 106.777 144.65 106.894 144.813 106.958C144.981 107.018 145.162 107.048 145.358 107.048C145.501 107.048 145.627 107.038 145.735 107.018C145.842 106.998 145.926 106.982 145.986 106.97L146.309 108.448C146.205 108.488 146.058 108.528 145.866 108.567C145.675 108.611 145.435 108.635 145.148 108.639C144.678 108.647 144.239 108.563 143.832 108.388C143.425 108.212 143.096 107.941 142.845 107.574C142.594 107.207 142.468 106.747 142.468 106.192V97.1283ZM150.794 108.723C150.212 108.723 149.686 108.615 149.215 108.4C148.744 108.181 148.371 107.863 148.096 107.449C147.825 107.034 147.689 106.525 147.689 105.923C147.689 105.404 147.789 104.978 147.989 104.643C148.188 104.308 148.457 104.042 148.796 103.847C149.135 103.652 149.514 103.504 149.933 103.404C150.352 103.305 150.779 103.229 151.213 103.177C151.764 103.113 152.21 103.061 152.553 103.021C152.896 102.977 153.146 102.908 153.301 102.812C153.457 102.716 153.535 102.561 153.535 102.345V102.303C153.535 101.781 153.387 101.376 153.092 101.089C152.801 100.802 152.366 100.658 151.788 100.658C151.185 100.658 150.711 100.792 150.364 101.059C150.021 101.322 149.783 101.615 149.652 101.938L147.971 101.556C148.17 100.997 148.461 100.546 148.844 100.203C149.231 99.8564 149.676 99.6052 150.178 99.4496C150.681 99.2901 151.209 99.2103 151.764 99.2103C152.131 99.2103 152.52 99.2542 152.93 99.3419C153.345 99.4257 153.732 99.5812 154.091 99.8086C154.454 100.036 154.751 100.361 154.982 100.784C155.214 101.203 155.329 101.747 155.329 102.417V108.52H153.582V107.263H153.511C153.395 107.494 153.221 107.722 152.99 107.945C152.759 108.169 152.462 108.354 152.099 108.502C151.736 108.649 151.301 108.723 150.794 108.723ZM151.183 107.287C151.678 107.287 152.101 107.189 152.452 106.994C152.807 106.798 153.076 106.543 153.259 106.228C153.447 105.909 153.541 105.568 153.541 105.205V104.02C153.477 104.084 153.353 104.144 153.17 104.2C152.99 104.252 152.785 104.298 152.553 104.338C152.322 104.373 152.097 104.407 151.877 104.439C151.658 104.467 151.475 104.491 151.327 104.511C150.98 104.555 150.663 104.629 150.376 104.732C150.092 104.836 149.865 104.986 149.694 105.181C149.526 105.373 149.442 105.628 149.442 105.947C149.442 106.39 149.606 106.725 149.933 106.952C150.26 107.175 150.677 107.287 151.183 107.287ZM157.712 108.52V99.33H159.501V108.52H157.712ZM158.615 97.912C158.304 97.912 158.037 97.8083 157.814 97.6009C157.594 97.3895 157.485 97.1383 157.485 96.8471C157.485 96.5519 157.594 96.3007 157.814 96.0933C158.037 95.8819 158.304 95.7762 158.615 95.7762C158.927 95.7762 159.192 95.8819 159.411 96.0933C159.635 96.3007 159.746 96.5519 159.746 96.8471C159.746 97.1383 159.635 97.3895 159.411 97.6009C159.192 97.8083 158.927 97.912 158.615 97.912ZM163.696 96.2668V108.52H161.908V96.2668H163.696ZM172.989 101.574L171.368 101.861C171.3 101.653 171.192 101.456 171.045 101.268C170.901 101.081 170.706 100.927 170.458 100.808C170.211 100.688 169.902 100.628 169.531 100.628C169.025 100.628 168.602 100.742 168.263 100.969C167.924 101.193 167.754 101.482 167.754 101.837C167.754 102.144 167.868 102.391 168.095 102.579C168.323 102.766 168.69 102.92 169.196 103.039L170.656 103.374C171.501 103.57 172.132 103.871 172.546 104.278C172.961 104.685 173.169 105.213 173.169 105.863C173.169 106.414 173.009 106.904 172.69 107.335C172.375 107.762 171.934 108.097 171.368 108.34C170.805 108.583 170.153 108.705 169.411 108.705C168.382 108.705 167.543 108.486 166.893 108.047C166.243 107.604 165.844 106.976 165.696 106.162L167.425 105.899C167.533 106.35 167.754 106.691 168.089 106.922C168.424 107.149 168.861 107.263 169.399 107.263C169.986 107.263 170.454 107.141 170.805 106.898C171.156 106.651 171.332 106.35 171.332 105.995C171.332 105.708 171.224 105.466 171.009 105.271C170.797 105.075 170.472 104.928 170.034 104.828L168.478 104.487C167.621 104.292 166.986 103.981 166.576 103.554C166.169 103.127 165.965 102.587 165.965 101.932C165.965 101.39 166.117 100.915 166.42 100.509C166.723 100.102 167.142 99.7846 167.676 99.5573C168.211 99.326 168.823 99.2103 169.513 99.2103C170.506 99.2103 171.288 99.4257 171.858 99.8564C172.429 100.283 172.806 100.856 172.989 101.574Z" fill="white"/>
<path opacity="0.5" d="M38.7875 175.906V163.653H46.3857V165.245H40.6362V168.978H45.8413V170.564H40.6362V175.906H38.7875ZM51.7119 176.092C50.8504 176.092 50.0985 175.894 49.4564 175.499C48.8142 175.105 48.3156 174.552 47.9607 173.842C47.6057 173.132 47.4282 172.303 47.4282 171.353C47.4282 170.4 47.6057 169.566 47.9607 168.853C48.3156 168.139 48.8142 167.584 49.4564 167.189C50.0985 166.794 50.8504 166.597 51.7119 166.597C52.5734 166.597 53.3252 166.794 53.9674 167.189C54.6095 167.584 55.1081 168.139 55.4631 168.853C55.8181 169.566 55.9956 170.4 55.9956 171.353C55.9956 172.303 55.8181 173.132 55.4631 173.842C55.1081 174.552 54.6095 175.105 53.9674 175.499C53.3252 175.894 52.5734 176.092 51.7119 176.092ZM51.7179 174.59C52.2763 174.59 52.7389 174.442 53.1059 174.147C53.4728 173.852 53.744 173.459 53.9195 172.969C54.099 172.478 54.1888 171.938 54.1888 171.347C54.1888 170.761 54.099 170.223 53.9195 169.732C53.744 169.237 53.4728 168.841 53.1059 168.541C52.7389 168.242 52.2763 168.093 51.7179 168.093C51.1555 168.093 50.6888 168.242 50.3179 168.541C49.9509 168.841 49.6777 169.237 49.4982 169.732C49.3227 170.223 49.235 170.761 49.235 171.347C49.235 171.938 49.3227 172.478 49.4982 172.969C49.6777 173.459 49.9509 173.852 50.3179 174.147C50.6888 174.442 51.1555 174.59 51.7179 174.59ZM63.8136 172.095V166.717H65.6084V175.906H63.8495V174.315H63.7537C63.5424 174.805 63.2033 175.214 62.7367 175.541C62.274 175.864 61.6977 176.026 61.0076 176.026C60.4173 176.026 59.8948 175.896 59.4402 175.637C58.9894 175.374 58.6345 174.985 58.3752 174.47C58.1199 173.956 57.9923 173.32 57.9923 172.562V166.717H59.7812V172.346C59.7812 172.973 59.9547 173.471 60.3017 173.842C60.6487 174.213 61.0994 174.399 61.6538 174.399C61.9888 174.399 62.3219 174.315 62.6529 174.147C62.988 173.98 63.2652 173.727 63.4845 173.387C63.7079 173.048 63.8176 172.618 63.8136 172.095ZM69.8009 170.45V175.906H68.012V166.717H69.7291V168.212H69.8427C70.0541 167.726 70.3852 167.335 70.8359 167.04C71.2906 166.745 71.8629 166.597 72.5529 166.597C73.1791 166.597 73.7276 166.729 74.1982 166.992C74.6689 167.251 75.0338 167.638 75.2931 168.153C75.5523 168.667 75.682 169.303 75.682 170.061V175.906H73.8931V170.276C73.8931 169.61 73.7196 169.09 73.3726 168.715C73.0256 168.336 72.549 168.147 71.9427 168.147C71.5279 168.147 71.159 168.236 70.8359 168.416C70.5168 168.595 70.2635 168.859 70.0761 169.206C69.8926 169.549 69.8009 169.963 69.8009 170.45ZM81.5212 176.086C80.7793 176.086 80.1172 175.896 79.5349 175.517C78.9565 175.134 78.5018 174.59 78.1708 173.884C77.8437 173.174 77.6802 172.323 77.6802 171.329C77.6802 170.336 77.8457 169.487 78.1768 168.781C78.5118 168.075 78.9705 167.534 79.5528 167.159C80.1351 166.784 80.7952 166.597 81.5331 166.597C82.1035 166.597 82.5622 166.693 82.9092 166.884C83.2602 167.072 83.5314 167.291 83.7228 167.542C83.9183 167.794 84.0698 168.015 84.1775 168.206H84.2852V163.653H86.0741V175.906H84.3271V174.476H84.1775C84.0698 174.672 83.9143 174.895 83.7109 175.146C83.5114 175.398 83.2362 175.617 82.8852 175.805C82.5342 175.992 82.0796 176.086 81.5212 176.086ZM81.916 174.56C82.4305 174.56 82.8653 174.425 83.2203 174.153C83.5792 173.878 83.8505 173.497 84.0339 173.011C84.2214 172.524 84.3151 171.958 84.3151 171.311C84.3151 170.673 84.2234 170.115 84.0399 169.636C83.8564 169.158 83.5872 168.785 83.2322 168.517C82.8773 168.25 82.4385 168.117 81.916 168.117C81.3776 168.117 80.9289 168.256 80.5699 168.535C80.2109 168.815 79.9397 169.196 79.7562 169.678C79.5768 170.161 79.487 170.705 79.487 171.311C79.487 171.926 79.5787 172.478 79.7622 172.969C79.9457 173.459 80.2169 173.848 80.5759 174.135C80.9388 174.419 81.3856 174.56 81.916 174.56ZM92.5878 176.092C91.6824 176.092 90.9027 175.898 90.2486 175.511C89.5984 175.121 89.0959 174.572 88.7409 173.866C88.3899 173.156 88.2144 172.325 88.2144 171.371C88.2144 170.43 88.3899 169.6 88.7409 168.882C89.0959 168.165 89.5905 167.604 90.2246 167.201C90.8628 166.798 91.6087 166.597 92.4622 166.597C92.9807 166.597 93.4833 166.683 93.9699 166.854C94.4565 167.026 94.8932 167.295 95.2801 167.662C95.667 168.029 95.9721 168.506 96.1955 169.092C96.4188 169.674 96.5305 170.382 96.5305 171.216V171.85H89.2255V170.51H94.7775C94.7775 170.039 94.6818 169.622 94.4904 169.259C94.2989 168.892 94.0297 168.603 93.6827 168.392C93.3397 168.18 92.9368 168.075 92.4742 168.075C91.9716 168.075 91.5329 168.198 91.158 168.446C90.787 168.689 90.4998 169.008 90.2964 169.403C90.097 169.794 89.9973 170.219 89.9973 170.677V171.724C89.9973 172.339 90.105 172.861 90.3204 173.292C90.5397 173.723 90.8449 174.052 91.2357 174.279C91.6266 174.502 92.0833 174.614 92.6058 174.614C92.9448 174.614 93.2539 174.566 93.5331 174.47C93.8123 174.371 94.0536 174.223 94.257 174.028C94.4605 173.832 94.616 173.591 94.7237 173.304L96.4168 173.609C96.2812 174.107 96.0379 174.544 95.6869 174.919C95.3399 175.29 94.9032 175.579 94.3767 175.787C93.8542 175.99 93.2579 176.092 92.5878 176.092ZM98.5153 175.906V166.717H100.244V168.176H100.34C100.508 167.682 100.803 167.293 101.226 167.01C101.652 166.723 102.135 166.579 102.673 166.579C102.785 166.579 102.917 166.583 103.068 166.591C103.224 166.599 103.345 166.609 103.433 166.621V168.332C103.361 168.312 103.234 168.29 103.05 168.266C102.867 168.238 102.683 168.224 102.5 168.224C102.077 168.224 101.7 168.314 101.369 168.494C101.042 168.669 100.783 168.914 100.591 169.229C100.4 169.541 100.304 169.896 100.304 170.294V175.906H98.5153ZM111.867 168.96L110.246 169.247C110.178 169.04 110.071 168.843 109.923 168.655C109.779 168.468 109.584 168.314 109.337 168.194C109.089 168.075 108.78 168.015 108.409 168.015C107.903 168.015 107.48 168.129 107.141 168.356C106.802 168.579 106.632 168.868 106.632 169.223C106.632 169.531 106.746 169.778 106.973 169.965C107.201 170.153 107.568 170.306 108.074 170.426L109.534 170.761C110.38 170.956 111.01 171.258 111.425 171.664C111.839 172.071 112.047 172.6 112.047 173.25C112.047 173.8 111.887 174.291 111.568 174.722C111.253 175.148 110.812 175.483 110.246 175.727C109.684 175.97 109.032 176.092 108.29 176.092C107.261 176.092 106.421 175.872 105.771 175.434C105.121 174.991 104.722 174.363 104.574 173.549L106.303 173.286C106.411 173.736 106.632 174.078 106.967 174.309C107.303 174.536 107.739 174.65 108.278 174.65C108.864 174.65 109.333 174.528 109.684 174.285C110.035 174.038 110.21 173.736 110.21 173.382C110.21 173.094 110.102 172.853 109.887 172.658C109.676 172.462 109.351 172.315 108.912 172.215L107.356 171.874C106.499 171.678 105.865 171.367 105.454 170.941C105.047 170.514 104.844 169.973 104.844 169.319C104.844 168.777 104.995 168.302 105.298 167.895C105.601 167.488 106.02 167.171 106.555 166.944C107.089 166.713 107.701 166.597 108.391 166.597C109.385 166.597 110.166 166.812 110.737 167.243C111.307 167.67 111.684 168.242 111.867 168.96ZM122.038 176.08C121.217 176.08 120.509 175.93 119.914 175.631C119.324 175.332 118.869 174.925 118.55 174.411C118.231 173.892 118.072 173.306 118.072 172.652C118.072 172.153 118.175 171.71 118.383 171.323C118.59 170.933 118.879 170.572 119.25 170.241C119.621 169.909 120.05 169.576 120.536 169.241L122.511 167.847C122.846 167.628 123.107 167.397 123.295 167.153C123.482 166.906 123.576 166.601 123.576 166.238C123.576 165.951 123.452 165.676 123.205 165.412C122.958 165.149 122.626 165.018 122.212 165.018C121.924 165.018 121.671 165.087 121.452 165.227C121.236 165.367 121.067 165.546 120.943 165.765C120.824 165.981 120.764 166.208 120.764 166.447C120.764 166.727 120.84 167.008 120.991 167.291C121.147 167.574 121.346 167.867 121.589 168.17C121.833 168.47 122.088 168.781 122.355 169.104L128.045 175.906H126.023L121.314 170.372C120.919 169.906 120.552 169.467 120.213 169.056C119.874 168.641 119.599 168.222 119.388 167.8C119.18 167.373 119.077 166.912 119.077 166.418C119.077 165.855 119.204 165.357 119.46 164.922C119.719 164.483 120.08 164.14 120.542 163.893C121.005 163.646 121.548 163.522 122.17 163.522C122.8 163.522 123.34 163.646 123.791 163.893C124.246 164.136 124.595 164.461 124.838 164.868C125.085 165.271 125.209 165.712 125.209 166.19C125.209 166.773 125.063 167.287 124.772 167.734C124.485 168.176 124.088 168.583 123.582 168.954L121.123 170.767C120.644 171.118 120.311 171.465 120.124 171.808C119.94 172.147 119.848 172.412 119.848 172.604C119.848 172.955 119.938 173.28 120.118 173.579C120.301 173.878 120.556 174.117 120.883 174.297C121.215 174.476 121.601 174.566 122.044 174.566C122.499 174.566 122.942 174.468 123.372 174.273C123.807 174.074 124.2 173.788 124.551 173.417C124.906 173.046 125.187 172.602 125.395 172.083C125.602 171.565 125.706 170.984 125.706 170.342H127.321C127.321 171.132 127.231 171.8 127.052 172.346C126.872 172.889 126.655 173.332 126.4 173.675C126.148 174.014 125.911 174.279 125.688 174.47C125.616 174.534 125.548 174.598 125.484 174.662C125.42 174.726 125.353 174.789 125.281 174.853C124.866 175.272 124.363 175.581 123.773 175.781C123.187 175.98 122.609 176.08 122.038 176.08ZM144.692 169.78C144.692 171.088 144.453 172.213 143.974 173.154C143.495 174.091 142.839 174.813 142.006 175.32C141.176 175.822 140.233 176.074 139.176 176.074C138.115 176.074 137.168 175.822 136.334 175.32C135.504 174.813 134.85 174.089 134.372 173.148C133.893 172.207 133.654 171.084 133.654 169.78C133.654 168.472 133.893 167.349 134.372 166.412C134.85 165.47 135.504 164.748 136.334 164.246C137.168 163.739 138.115 163.486 139.176 163.486C140.233 163.486 141.176 163.739 142.006 164.246C142.839 164.748 143.495 165.47 143.974 166.412C144.453 167.349 144.692 168.472 144.692 169.78ZM142.861 169.78C142.861 168.783 142.7 167.943 142.377 167.261C142.058 166.575 141.619 166.057 141.06 165.706C140.506 165.351 139.878 165.173 139.176 165.173C138.47 165.173 137.84 165.351 137.285 165.706C136.731 166.057 136.292 166.575 135.969 167.261C135.65 167.943 135.49 168.783 135.49 169.78C135.49 170.777 135.65 171.619 135.969 172.305C136.292 172.987 136.731 173.505 137.285 173.86C137.84 174.211 138.47 174.387 139.176 174.387C139.878 174.387 140.506 174.211 141.06 173.86C141.619 173.505 142.058 172.987 142.377 172.305C142.7 171.619 142.861 170.777 142.861 169.78ZM148.846 175.906L146.141 166.717H147.99L149.791 173.465H149.881L151.687 166.717H153.536L155.331 173.435H155.421L157.21 166.717H159.058L156.36 175.906H154.535L152.669 169.271H152.531L150.664 175.906H148.846ZM162.545 170.45V175.906H160.756V166.717H162.473V168.212H162.587C162.798 167.726 163.129 167.335 163.58 167.04C164.034 166.745 164.607 166.597 165.297 166.597C165.923 166.597 166.471 166.729 166.942 166.992C167.413 167.251 167.778 167.638 168.037 168.153C168.296 168.667 168.426 169.303 168.426 170.061V175.906H166.637V170.276C166.637 169.61 166.463 169.09 166.116 168.715C165.769 168.336 165.293 168.147 164.687 168.147C164.272 168.147 163.903 168.236 163.58 168.416C163.261 168.595 163.007 168.859 162.82 169.206C162.636 169.549 162.545 169.963 162.545 170.45ZM174.785 176.092C173.88 176.092 173.1 175.898 172.446 175.511C171.796 175.121 171.294 174.572 170.939 173.866C170.588 173.156 170.412 172.325 170.412 171.371C170.412 170.43 170.588 169.6 170.939 168.882C171.294 168.165 171.788 167.604 172.422 167.201C173.06 166.798 173.806 166.597 174.66 166.597C175.178 166.597 175.681 166.683 176.168 166.854C176.654 167.026 177.091 167.295 177.478 167.662C177.865 168.029 178.17 168.506 178.393 169.092C178.616 169.674 178.728 170.382 178.728 171.216V171.85H171.423V170.51H176.975C176.975 170.039 176.879 169.622 176.688 169.259C176.497 168.892 176.227 168.603 175.88 168.392C175.537 168.18 175.134 168.075 174.672 168.075C174.169 168.075 173.731 168.198 173.356 168.446C172.985 168.689 172.697 169.008 172.494 169.403C172.295 169.794 172.195 170.219 172.195 170.677V171.724C172.195 172.339 172.303 172.861 172.518 173.292C172.737 173.723 173.042 174.052 173.433 174.279C173.824 174.502 174.281 174.614 174.803 174.614C175.142 174.614 175.452 174.566 175.731 174.47C176.01 174.371 176.251 174.223 176.455 174.028C176.658 173.832 176.814 173.591 176.921 173.304L178.614 173.609C178.479 174.107 178.236 174.544 177.885 174.919C177.538 175.29 177.101 175.579 176.574 175.787C176.052 175.99 175.456 176.092 174.785 176.092ZM180.713 175.906V166.717H182.442V168.176H182.538C182.705 167.682 183 167.293 183.423 167.01C183.85 166.723 184.333 166.579 184.871 166.579C184.983 166.579 185.114 166.583 185.266 166.591C185.421 166.599 185.543 166.609 185.631 166.621V168.332C185.559 168.312 185.431 168.29 185.248 168.266C185.064 168.238 184.881 168.224 184.697 168.224C184.275 168.224 183.898 168.314 183.567 168.494C183.24 168.669 182.98 168.914 182.789 169.229C182.598 169.541 182.502 169.896 182.502 170.294V175.906H180.713ZM194.065 168.96L192.444 169.247C192.376 169.04 192.268 168.843 192.121 168.655C191.977 168.468 191.782 168.314 191.534 168.194C191.287 168.075 190.978 168.015 190.607 168.015C190.1 168.015 189.678 168.129 189.339 168.356C189 168.579 188.83 168.868 188.83 169.223C188.83 169.531 188.944 169.778 189.171 169.965C189.398 170.153 189.765 170.306 190.272 170.426L191.732 170.761C192.577 170.956 193.208 171.258 193.622 171.664C194.037 172.071 194.245 172.6 194.245 173.25C194.245 173.8 194.085 174.291 193.766 174.722C193.451 175.148 193.01 175.483 192.444 175.727C191.881 175.97 191.229 176.092 190.487 176.092C189.458 176.092 188.619 175.872 187.969 175.434C187.318 174.991 186.92 174.363 186.772 173.549L188.501 173.286C188.609 173.736 188.83 174.078 189.165 174.309C189.5 174.536 189.937 174.65 190.475 174.65C191.062 174.65 191.53 174.528 191.881 174.285C192.232 174.038 192.408 173.736 192.408 173.382C192.408 173.094 192.3 172.853 192.085 172.658C191.873 172.462 191.548 172.315 191.11 172.215L189.554 171.874C188.696 171.678 188.062 171.367 187.652 170.941C187.245 170.514 187.041 169.973 187.041 169.319C187.041 168.777 187.193 168.302 187.496 167.895C187.799 167.488 188.218 167.171 188.752 166.944C189.287 166.713 189.899 166.597 190.589 166.597C191.582 166.597 192.364 166.812 192.934 167.243C193.505 167.67 193.882 168.242 194.065 168.96ZM198 170.45V175.906H196.211V163.653H197.976V168.212H198.09C198.305 167.718 198.634 167.325 199.077 167.034C199.52 166.743 200.098 166.597 200.812 166.597C201.442 166.597 201.993 166.727 202.463 166.986C202.938 167.245 203.305 167.632 203.564 168.147C203.827 168.657 203.959 169.295 203.959 170.061V175.906H202.17V170.276C202.17 169.602 201.997 169.08 201.65 168.709C201.303 168.334 200.82 168.147 200.202 168.147C199.779 168.147 199.4 168.236 199.065 168.416C198.734 168.595 198.473 168.859 198.281 169.206C198.094 169.549 198 169.963 198 170.45ZM206.346 175.906V166.717H208.135V175.906H206.346ZM207.25 165.299C206.939 165.299 206.671 165.195 206.448 164.988C206.229 164.776 206.119 164.525 206.119 164.234C206.119 163.939 206.229 163.687 206.448 163.48C206.671 163.269 206.939 163.163 207.25 163.163C207.561 163.163 207.826 163.269 208.045 163.48C208.269 163.687 208.38 163.939 208.38 164.234C208.38 164.525 208.269 164.776 208.045 164.988C207.826 165.195 207.561 165.299 207.25 165.299ZM210.542 179.352V166.717H212.289V168.206H212.438C212.542 168.015 212.692 167.794 212.887 167.542C213.082 167.291 213.354 167.072 213.701 166.884C214.048 166.693 214.506 166.597 215.077 166.597C215.819 166.597 216.481 166.784 217.063 167.159C217.645 167.534 218.102 168.075 218.433 168.781C218.768 169.487 218.936 170.336 218.936 171.329C218.936 172.323 218.77 173.174 218.439 173.884C218.108 174.59 217.653 175.134 217.075 175.517C216.497 175.896 215.836 176.086 215.095 176.086C214.536 176.086 214.08 175.992 213.725 175.805C213.374 175.617 213.098 175.398 212.899 175.146C212.699 174.895 212.546 174.672 212.438 174.476H212.331V179.352H210.542ZM212.295 171.311C212.295 171.958 212.388 172.524 212.576 173.011C212.763 173.497 213.035 173.878 213.389 174.153C213.744 174.425 214.179 174.56 214.694 174.56C215.228 174.56 215.675 174.419 216.034 174.135C216.393 173.848 216.664 173.459 216.848 172.969C217.035 172.478 217.129 171.926 217.129 171.311C217.129 170.705 217.037 170.161 216.854 169.678C216.674 169.196 216.403 168.815 216.04 168.535C215.681 168.256 215.232 168.117 214.694 168.117C214.175 168.117 213.736 168.25 213.378 168.517C213.023 168.785 212.753 169.158 212.57 169.636C212.386 170.115 212.295 170.673 212.295 171.311Z" fill="white"/>
<path opacity="0.5" d="M39.8585 231.048L43.2687 241.027H43.4063L46.8164 231.048H48.8147L44.4054 243.301H42.2695L37.8602 231.048H39.8585ZM50.4405 243.301V234.111H52.2294V243.301H50.4405ZM51.3439 232.693C51.0328 232.693 50.7656 232.59 50.5422 232.382C50.3229 232.171 50.2132 231.92 50.2132 231.628C50.2132 231.333 50.3229 231.082 50.5422 230.875C50.7656 230.663 51.0328 230.557 51.3439 230.557C51.655 230.557 51.9203 230.663 52.1396 230.875C52.363 231.082 52.4747 231.333 52.4747 231.628C52.4747 231.92 52.363 232.171 52.1396 232.382C51.9203 232.59 51.655 232.693 51.3439 232.693ZM61.5222 236.355L59.9008 236.642C59.833 236.435 59.7253 236.237 59.5778 236.05C59.4342 235.862 59.2387 235.709 58.9914 235.589C58.7442 235.469 58.435 235.409 58.0641 235.409C57.5576 235.409 57.1348 235.523 56.7958 235.75C56.4567 235.974 56.2872 236.263 56.2872 236.618C56.2872 236.925 56.4009 237.172 56.6282 237.36C56.8556 237.547 57.2225 237.701 57.7291 237.821L59.1889 238.156C60.0344 238.351 60.6646 238.652 61.0794 239.059C61.4942 239.466 61.7016 239.994 61.7016 240.644C61.7016 241.195 61.5421 241.685 61.223 242.116C60.9079 242.543 60.4672 242.878 59.9008 243.121C59.3384 243.365 58.6863 243.486 57.9445 243.486C56.9154 243.486 56.0758 243.267 55.4257 242.828C54.7756 242.385 54.3767 241.757 54.2291 240.944L55.9582 240.68C56.0659 241.131 56.2872 241.472 56.6223 241.703C56.9573 241.931 57.394 242.044 57.9325 242.044C58.5188 242.044 58.9875 241.923 59.3384 241.679C59.6894 241.432 59.8649 241.131 59.8649 240.776C59.8649 240.489 59.7572 240.248 59.5419 240.052C59.3305 239.857 59.0054 239.709 58.5667 239.609L57.0111 239.268C56.1536 239.073 55.5194 238.762 55.1086 238.335C54.7018 237.908 54.4984 237.368 54.4984 236.714C54.4984 236.171 54.6499 235.697 54.9531 235.29C55.2562 234.883 55.675 234.566 56.2094 234.339C56.7439 234.107 57.3561 233.992 58.0462 233.992C59.0393 233.992 59.8211 234.207 60.3914 234.638C60.9618 235.064 61.3387 235.637 61.5222 236.355ZM66.3428 243.504C65.7605 243.504 65.234 243.397 64.7633 243.181C64.2927 242.962 63.9198 242.645 63.6446 242.23C63.3733 241.815 63.2377 241.307 63.2377 240.704C63.2377 240.186 63.3374 239.759 63.5369 239.424C63.7363 239.089 64.0055 238.824 64.3445 238.628C64.6836 238.433 65.0625 238.285 65.4813 238.185C65.9001 238.086 66.3268 238.01 66.7616 237.958C67.312 237.894 67.7587 237.842 68.1017 237.803C68.4448 237.759 68.694 237.689 68.8496 237.593C69.0051 237.497 69.0829 237.342 69.0829 237.127V237.085C69.0829 236.562 68.9353 236.157 68.6402 235.87C68.349 235.583 67.9143 235.439 67.3359 235.439C66.7337 235.439 66.259 235.573 65.912 235.84C65.569 236.103 65.3317 236.397 65.2001 236.72L63.5189 236.337C63.7183 235.778 64.0095 235.328 64.3924 234.985C64.7793 234.638 65.224 234.386 65.7266 234.231C66.2291 234.071 66.7576 233.992 67.312 233.992C67.679 233.992 68.0678 234.035 68.4787 234.123C68.8935 234.207 69.2804 234.362 69.6393 234.59C70.0023 234.817 70.2994 235.142 70.5308 235.565C70.7621 235.984 70.8778 236.528 70.8778 237.198V243.301H69.1308V242.044H69.059C68.9433 242.276 68.7698 242.503 68.5385 242.726C68.3072 242.95 68.01 243.135 67.6471 243.283C67.2841 243.43 66.8493 243.504 66.3428 243.504ZM66.7317 242.068C67.2263 242.068 67.649 241.971 68 241.775C68.355 241.58 68.6242 241.324 68.8077 241.009C68.9952 240.69 69.0889 240.349 69.0889 239.986V238.802C69.0251 238.866 68.9014 238.925 68.718 238.981C68.5385 239.033 68.3331 239.079 68.1017 239.119C67.8704 239.155 67.6451 239.189 67.4257 239.221C67.2063 239.248 67.0228 239.272 66.8753 239.292C66.5283 239.336 66.2112 239.41 65.924 239.514C65.6408 239.617 65.4135 239.767 65.242 239.962C65.0744 240.154 64.9907 240.409 64.9907 240.728C64.9907 241.171 65.1542 241.506 65.4813 241.733C65.8083 241.957 66.2251 242.068 66.7317 242.068Z" fill="white"/>
<path opacity="0.5" d="M45.4703 301.653C45.4065 301.087 45.1433 300.648 44.6806 300.337C44.2179 300.022 43.6356 299.865 42.9336 299.865C42.4311 299.865 41.9963 299.944 41.6294 300.104C41.2624 300.259 40.9772 300.475 40.7738 300.75C40.5744 301.021 40.4747 301.33 40.4747 301.677C40.4747 301.969 40.5425 302.22 40.6781 302.431C40.8177 302.643 40.9992 302.82 41.2225 302.964C41.4499 303.103 41.6932 303.221 41.9524 303.317C42.2117 303.408 42.461 303.484 42.7003 303.544L43.8968 303.855C44.2877 303.951 44.6886 304.08 45.0994 304.244C45.5102 304.408 45.8911 304.623 46.2421 304.89C46.5931 305.157 46.8763 305.488 47.0917 305.883C47.311 306.278 47.4207 306.751 47.4207 307.301C47.4207 307.995 47.2412 308.611 46.8823 309.15C46.5273 309.688 46.0108 310.113 45.3327 310.424C44.6587 310.735 43.843 310.891 42.8858 310.891C41.9684 310.891 41.1747 310.745 40.5046 310.454C39.8345 310.163 39.31 309.75 38.9311 309.216C38.5522 308.677 38.3428 308.039 38.3029 307.301H40.1576C40.1935 307.744 40.3371 308.113 40.5884 308.408C40.8436 308.699 41.1687 308.917 41.5636 309.06C41.9624 309.2 42.3992 309.27 42.8738 309.27C43.3963 309.27 43.8609 309.188 44.2678 309.024C44.6786 308.857 45.0017 308.625 45.237 308.33C45.4723 308.031 45.59 307.682 45.59 307.283C45.59 306.92 45.4863 306.623 45.2789 306.392C45.0755 306.161 44.7983 305.969 44.4473 305.818C44.1003 305.666 43.7074 305.532 43.2687 305.417L41.8208 305.022C40.8396 304.755 40.0619 304.362 39.4875 303.843C38.9172 303.325 38.632 302.639 38.632 301.785C38.632 301.079 38.8234 300.463 39.2063 299.936C39.5892 299.41 40.1077 299.001 40.7619 298.71C41.416 298.415 42.1539 298.267 42.9755 298.267C43.8051 298.267 44.537 298.413 45.1712 298.704C45.8093 298.995 46.3119 299.396 46.6788 299.906C47.0458 300.413 47.2372 300.995 47.2532 301.653H45.4703ZM55.3075 306.876V301.498H57.1024V310.688H55.3434V309.096H55.2477C55.0363 309.587 54.6973 309.995 54.2306 310.323C53.768 310.646 53.1916 310.807 52.5016 310.807C51.9113 310.807 51.3888 310.678 50.9341 310.418C50.4834 310.155 50.1284 309.766 49.8692 309.252C49.6139 308.737 49.4863 308.101 49.4863 307.343V301.498H51.2751V307.128C51.2751 307.754 51.4486 308.253 51.7956 308.623C52.1426 308.994 52.5933 309.18 53.1477 309.18C53.4828 309.18 53.8158 309.096 54.1469 308.929C54.4819 308.761 54.7591 308.508 54.9785 308.169C55.2018 307.83 55.3115 307.399 55.3075 306.876ZM59.506 310.688V301.498H61.223V302.994H61.3367C61.5281 302.487 61.8412 302.092 62.276 301.809C62.7107 301.522 63.2313 301.378 63.8375 301.378C64.4517 301.378 64.9663 301.522 65.3811 301.809C65.7999 302.096 66.109 302.491 66.3084 302.994H66.4041C66.6235 302.503 66.9725 302.112 67.4511 301.821C67.9297 301.526 68.5001 301.378 69.1622 301.378C69.9958 301.378 70.6758 301.64 71.2023 302.162C71.7328 302.685 71.998 303.472 71.998 304.525V310.688H70.2092V304.693C70.2092 304.071 70.0397 303.62 69.7007 303.341C69.3616 303.061 68.9568 302.922 68.4861 302.922C67.9038 302.922 67.4511 303.101 67.128 303.46C66.805 303.815 66.6434 304.272 66.6434 304.83V310.688H64.8606V304.579C64.8606 304.08 64.705 303.68 64.3939 303.377C64.0828 303.073 63.678 302.922 63.1794 302.922C62.8404 302.922 62.5273 303.012 62.2401 303.191C61.9569 303.367 61.7276 303.612 61.5521 303.927C61.3806 304.242 61.2948 304.607 61.2948 305.022V310.688H59.506ZM74.3956 310.688V301.498H76.1127V302.994H76.2264C76.4178 302.487 76.7309 302.092 77.1657 301.809C77.6004 301.522 78.1209 301.378 78.7272 301.378C79.3414 301.378 79.8559 301.522 80.2708 301.809C80.6896 302.096 80.9987 302.491 81.1981 302.994H81.2938C81.5132 302.503 81.8622 302.112 82.3408 301.821C82.8194 301.526 83.3898 301.378 84.0519 301.378C84.8855 301.378 85.5655 301.64 86.092 302.162C86.6225 302.685 86.8877 303.472 86.8877 304.525V310.688H85.0989V304.693C85.0989 304.071 84.9294 303.62 84.5903 303.341C84.2513 303.061 83.8465 302.922 83.3758 302.922C82.7935 302.922 82.3408 303.101 82.0177 303.46C81.6947 303.815 81.5331 304.272 81.5331 304.83V310.688H79.7503V304.579C79.7503 304.08 79.5947 303.68 79.2836 303.377C78.9725 303.073 78.5677 302.922 78.0691 302.922C77.7301 302.922 77.417 303.012 77.1298 303.191C76.8466 303.367 76.6173 303.612 76.4418 303.927C76.2703 304.242 76.1845 304.607 76.1845 305.022V310.688H74.3956ZM91.9596 310.891C91.3773 310.891 90.8508 310.783 90.3802 310.568C89.9095 310.348 89.5366 310.031 89.2614 309.617C88.9902 309.202 88.8546 308.693 88.8546 308.091C88.8546 307.572 88.9543 307.146 89.1537 306.811C89.3531 306.476 89.6224 306.21 89.9614 306.015C90.3004 305.819 90.6793 305.672 91.0981 305.572C91.5169 305.472 91.9437 305.397 92.3784 305.345C92.9289 305.281 93.3756 305.229 93.7186 305.189C94.0616 305.145 94.3109 305.076 94.4664 304.98C94.622 304.884 94.6998 304.729 94.6998 304.513V304.471C94.6998 303.949 94.5522 303.544 94.257 303.257C93.9659 302.97 93.5311 302.826 92.9528 302.826C92.3505 302.826 91.8759 302.96 91.5289 303.227C91.1859 303.49 90.9486 303.783 90.8169 304.106L89.1358 303.724C89.3352 303.165 89.6264 302.714 90.0093 302.371C90.3961 302.024 90.8409 301.773 91.3434 301.618C91.846 301.458 92.3745 301.378 92.9289 301.378C93.2958 301.378 93.6847 301.422 94.0955 301.51C94.5103 301.594 94.8972 301.749 95.2562 301.977C95.6191 302.204 95.9163 302.529 96.1476 302.952C96.3789 303.371 96.4946 303.915 96.4946 304.585V310.688H94.7476V309.431H94.6758C94.5602 309.662 94.3867 309.89 94.1553 310.113C93.924 310.337 93.6269 310.522 93.2639 310.67C92.9009 310.817 92.4662 310.891 91.9596 310.891ZM92.3485 309.455C92.8431 309.455 93.2659 309.357 93.6169 309.162C93.9719 308.966 94.2411 308.711 94.4246 308.396C94.612 308.077 94.7058 307.736 94.7058 307.373V306.188C94.6419 306.252 94.5183 306.312 94.3348 306.368C94.1553 306.42 93.9499 306.466 93.7186 306.506C93.4873 306.541 93.2619 306.575 93.0425 306.607C92.8232 306.635 92.6397 306.659 92.4921 306.679C92.1451 306.723 91.828 306.797 91.5409 306.9C91.2577 307.004 91.0303 307.154 90.8588 307.349C90.6913 307.541 90.6075 307.796 90.6075 308.115C90.6075 308.558 90.7711 308.893 91.0981 309.12C91.4252 309.343 91.842 309.455 92.3485 309.455ZM98.8773 310.688V301.498H100.606V302.958H100.702C100.87 302.463 101.165 302.074 101.587 301.791C102.014 301.504 102.497 301.36 103.035 301.36C103.147 301.36 103.279 301.364 103.43 301.372C103.586 301.38 103.707 301.39 103.795 301.402V303.113C103.723 303.093 103.596 303.071 103.412 303.047C103.229 303.02 103.045 303.006 102.862 303.006C102.439 303.006 102.062 303.095 101.731 303.275C101.404 303.45 101.145 303.696 100.953 304.011C100.762 304.322 100.666 304.677 100.666 305.076V310.688H98.8773ZM106.754 314.134C106.486 314.134 106.243 314.112 106.024 314.068C105.804 314.028 105.641 313.984 105.533 313.936L105.964 312.47C106.291 312.558 106.582 312.596 106.837 312.584C107.093 312.572 107.318 312.476 107.513 312.297C107.713 312.117 107.888 311.824 108.04 311.417L108.261 310.807L104.899 301.498H106.813L109.141 308.629H109.236L111.564 301.498H113.484L109.697 311.914C109.522 312.393 109.298 312.797 109.027 313.128C108.756 313.464 108.433 313.715 108.058 313.882C107.683 314.05 107.248 314.134 106.754 314.134Z" fill="white"/>
<path opacity="0.5" d="M38.7875 378.078V365.825H43.155C44.1082 365.825 44.898 365.999 45.5242 366.346C46.1504 366.693 46.619 367.167 46.9301 367.77C47.2412 368.368 47.3968 369.042 47.3968 369.792C47.3968 370.546 47.2392 371.224 46.9241 371.826C46.613 372.424 46.1424 372.899 45.5122 373.25C44.886 373.597 44.0983 373.771 43.149 373.771H40.1456V372.203H42.9815C43.5837 372.203 44.0723 372.099 44.4473 371.892C44.8222 371.681 45.0974 371.393 45.2729 371.03C45.4484 370.667 45.5361 370.255 45.5361 369.792C45.5361 369.329 45.4484 368.918 45.2729 368.559C45.0974 368.201 44.8202 367.919 44.4413 367.716C44.0664 367.513 43.5718 367.411 42.9575 367.411H40.6362V378.078H38.7875ZM52.0125 378.282C51.4302 378.282 50.9037 378.174 50.4331 377.958C49.9624 377.739 49.5895 377.422 49.3143 377.007C49.043 376.592 48.9074 376.084 48.9074 375.482C48.9074 374.963 49.0072 374.536 49.2066 374.201C49.406 373.866 49.6752 373.601 50.0143 373.406C50.3533 373.21 50.7322 373.063 51.151 372.963C51.5698 372.863 51.9966 372.787 52.4313 372.735C52.9817 372.672 53.4284 372.62 53.7715 372.58C54.1145 372.536 54.3637 372.466 54.5193 372.371C54.6749 372.275 54.7526 372.119 54.7526 371.904V371.862C54.7526 371.34 54.6051 370.935 54.3099 370.647C54.0187 370.36 53.584 370.217 53.0057 370.217C52.4034 370.217 51.9287 370.35 51.5817 370.618C51.2387 370.881 51.0014 371.174 50.8698 371.497L49.1886 371.114C49.3881 370.556 49.6792 370.105 50.0621 369.762C50.449 369.415 50.8937 369.164 51.3963 369.008C51.8988 368.849 52.4273 368.769 52.9817 368.769C53.3487 368.769 53.7375 368.813 54.1484 368.901C54.5632 368.984 54.9501 369.14 55.309 369.367C55.672 369.595 55.9691 369.92 56.2005 370.342C56.4318 370.761 56.5475 371.306 56.5475 371.976V378.078H54.8005V376.822H54.7287C54.613 377.053 54.4395 377.28 54.2082 377.504C53.9769 377.727 53.6797 377.913 53.3168 378.06C52.9538 378.208 52.5191 378.282 52.0125 378.282ZM52.4014 376.846C52.896 376.846 53.3188 376.748 53.6697 376.553C54.0247 376.357 54.2939 376.102 54.4774 375.787C54.6649 375.468 54.7586 375.127 54.7586 374.764V373.579C54.6948 373.643 54.5712 373.703 54.3877 373.759C54.2082 373.81 54.0028 373.856 53.7715 373.896C53.5401 373.932 53.3148 373.966 53.0954 373.998C52.876 374.026 52.6926 374.05 52.545 374.07C52.198 374.114 51.8809 374.187 51.5937 374.291C51.3105 374.395 51.0832 374.544 50.9117 374.74C50.7442 374.931 50.6604 375.186 50.6604 375.506C50.6604 375.948 50.8239 376.283 51.151 376.511C51.478 376.734 51.8948 376.846 52.4014 376.846ZM59.7318 381.524C59.4646 381.524 59.2213 381.502 59.0019 381.458C58.7825 381.419 58.619 381.375 58.5113 381.327L58.9421 379.861C59.2691 379.949 59.5603 379.987 59.8156 379.975C60.0708 379.963 60.2962 379.867 60.4916 379.687C60.6911 379.508 60.8665 379.215 61.0181 378.808L61.2395 378.198L57.8771 368.889H59.7916L62.1189 376.02H62.2147L64.542 368.889H66.4625L62.6753 379.305C62.4999 379.783 62.2765 380.188 62.0053 380.519C61.7341 380.854 61.411 381.105 61.0361 381.273C60.6611 381.44 60.2264 381.524 59.7318 381.524Z" fill="white"/>
</svg>
